<svg xmlns="http://www.w3.org/2000/svg" viewBox="0 0 64 80" width="512" height="640" class="pb-armor school-void"><g class="pb-fills"><path fill="#EFE5B2" stroke="none" d="M 19,6 C 19.13,5.87 19.87,5.87 20,6 C 20.13,6.13 20.13,6.87 20,7 C 19.87,7.13 19.13,7.13 19,7 C 18.87,6.87 18.87,6.13 19,6 Z"/><path fill="#EFE5B2" stroke="none" d="M 39,6 C 39.13,5.87 39.87,5.87 40,6 C 40.13,6.13 40.13,6.87 40,7 C 39.87,7.13 39.13,7.13 39,7 C 38.87,6.87 38.87,6.13 39,6 Z"/><path fill="#EFE5B2" stroke="none" d="M 45,6 C 45.13,5.87 45.87,5.87 46,6 C 46.13,6.13 46.13,6.87 46,7 C 45.87,7.13 45.13,7.13 45,7 C 44.87,6.87 44.87,6.13 45,6 Z"/><path fill="#EFE5B2" stroke="none" d="M 17,7 C 17.13,6.87 17.87,6.87 18,7 C 18.13,7.13 18.13,7.87 18,8 C 17.87,8.13 17.13,8.13 17,8 C 16.87,7.87 16.87,7.13 17,7 Z"/><path fill="#EFE5B2" stroke="none" d="M 38,7 C 38.13,6.87 38.87,6.87 39,7 C 39.13,7.13 39.13,7.87 39,8 C 38.87,8.13 38.13,8.13 38,8 C 37.87,7.87 37.87,7.13 38,7 Z"/><path fill="#EFE5B2" stroke="none" d="M 47,7 C 47.13,6.87 47.87,6.87 48,7 C 48.13,7.13 48.13,7.87 48,8 C 47.87,8.13 47.13,8.13 47,8 C 46.87,7.87 46.87,7.13 47,7 Z"/><path fill="#F0E6B3" stroke="none" d="M 20,6 C 20.13,5.87 20.87,5.87 21,6 C 21.13,6.13 21.13,6.87 21,7 C 20.87,7.13 20.13,7.13 20,7 C 19.87,6.87 19.87,6.13 20,6 Z"/><path fill="#F0E6B3" stroke="none" d="M 44,6 C 44.13,5.87 44.87,5.87 45,6 C 45.13,6.13 45.13,6.87 45,7 C 44.87,7.13 44.13,7.13 44,7 C 43.87,6.87 43.87,6.13 44,6 Z"/><path fill="#F0E6B3" stroke="none" d="M 18,7 C 18.13,6.87 18.87,6.87 19,7 C 19.13,7.13 19.13,7.87 19,8 C 18.87,8.13 18.13,8.13 18,8 C 17.87,7.87 17.87,7.13 18,7 Z"/><path fill="#F0E6B3" stroke="none" d="M 46,7 C 46.13,6.87 46.87,6.87 47,7 C 47.13,7.13 47.13,7.87 47,8 C 46.87,8.13 46.13,8.13 46,8 C 45.87,7.87 45.87,7.13 46,7 Z"/><path fill="#F0E6B3" stroke="none" d="M 48,8 C 48.13,7.87 48.87,7.87 49,8 C 49.13,8.13 49.13,8.87 49,9 C 48.87,9.13 48.13,9.13 48,9 C 47.87,8.87 47.87,8.13 48,8 Z"/><path fill="#F0E6B3" stroke="none" d="M 37,9 C 37.13,8.87 37.87,8.87 38,9 C 38.13,9.13 38.13,9.87 38,10 C 37.87,10.13 37.13,10.13 37,10 C 36.87,9.87 36.87,9.13 37,9 Z"/><path fill="#F1E7B3" stroke="none" d="M 21,6 C 21.27,5.87 22.73,5.87 23,6 C 23.27,6.13 23.27,6.87 23,7 C 22.73,7.13 21.27,7.13 21,7 C 20.73,6.87 20.73,6.13 21,6 Z"/><path fill="#F1E7B3" stroke="none" d="M 40,6 C 40.53,5.87 43.47,5.87 44,6 C 44.53,6.13 44.53,6.87 44,7 C 43.47,7.13 40.53,7.13 40,7 C 39.47,6.87 39.47,6.13 40,6 Z"/><path fill="#EFE5B3" stroke="none" d="M 23,6 C 23.13,5.87 23.87,5.87 24,6 C 24.13,6.13 24.13,6.87 24,7 C 23.87,7.13 23.13,7.13 23,7 C 22.87,6.87 22.87,6.13 23,6 Z"/><path fill="#EFE5B3" stroke="none" d="M 16,8 C 16.13,7.87 16.87,7.87 17,8 C 17.13,8.13 17.13,8.87 17,9 C 16.87,9.13 16.13,9.13 16,9 C 15.87,8.87 15.87,8.13 16,8 Z"/><path fill="#EFE5B3" stroke="none" d="M 36,11 C 36.13,10.87 36.87,10.87 37,11 C 37.13,11.13 37.13,11.87 37,12 C 36.87,12.13 36.13,12.13 36,12 C 35.87,11.87 35.87,11.13 36,11 Z"/><path fill="#EDE3B2" stroke="none" d="M 24,6 C 24.13,5.87 24.87,5.87 25,6 C 25.13,6.13 25.13,6.87 25,7 C 24.87,7.13 24.13,7.13 24,7 C 23.87,6.87 23.87,6.13 24,6 Z"/><path fill="#ECE2B1" stroke="none" d="M 25,6 C 25.13,5.87 25.87,5.87 26,6 C 26.13,6.13 26.13,6.87 26,7 C 25.87,7.13 25.13,7.13 25,7 C 24.87,6.87 24.87,6.13 25,6 Z"/><path fill="#ECE3B1" stroke="none" d="M 26,6 C 26.13,5.87 26.87,5.87 27,6 C 27.13,6.13 27.13,6.87 27,7 C 26.87,7.13 26.13,7.13 26,7 C 25.87,6.87 25.87,6.13 26,6 Z"/><path fill="#EEE4B2" stroke="none" d="M 38,6 C 38.13,5.87 38.87,5.87 39,6 C 39.13,6.13 39.13,6.87 39,7 C 38.87,7.13 38.13,7.13 38,7 C 37.87,6.87 37.87,6.13 38,6 Z"/><path fill="#EEE4B2" stroke="none" d="M 36,9 C 36.13,8.73 36.87,8.73 37,9 C 37.13,9.27 37.13,10.73 37,11 C 36.87,11.27 36.13,11.27 36,11 C 35.87,10.73 35.87,9.27 36,9 Z"/><path fill="#7C7150" stroke="none" d="M 0,7 C 0.27,6.73 1.73,6.87 2,7 C 2.27,7.13 2.13,7.87 2,8 C 1.87,8.13 1.13,7.87 1,8 C 0.87,8.13 1.13,8.87 1,9 C 0.87,9.13 0.13,9.27 0,9 C -0.13,8.73 -0.27,7.27 0,7 Z"/><path fill="#7C7150" stroke="none" d="M 9,7 C 9.13,6.87 9.87,6.87 10,7 C 10.13,7.13 10.13,7.87 10,8 C 9.87,8.13 9.13,8.13 9,8 C 8.87,7.87 8.87,7.13 9,7 Z"/><path fill="#7C7150" stroke="none" d="M 27,7 C 27.13,6.87 27.87,6.87 28,7 C 28.13,7.13 28.13,7.87 28,8 C 27.87,8.13 27.13,8.13 27,8 C 26.87,7.87 26.87,7.13 27,7 Z"/><path fill="#7C7150" stroke="none" d="M 31,7 C 31.13,6.87 31.87,6.87 32,7 C 32.13,7.13 32.13,7.87 32,8 C 31.87,8.13 31.13,8.13 31,8 C 30.87,7.87 30.87,7.13 31,7 Z"/><path fill="#7C7150" stroke="none" d="M 33,8 C 33.13,7.87 33.87,7.87 34,8 C 34.13,8.13 34.13,8.87 34,9 C 33.87,9.13 33.13,9.13 33,9 C 32.87,8.87 32.87,8.13 33,8 Z"/><path fill="#7C7150" stroke="none" d="M 2,15 C 2.13,14.87 2.87,14.87 3,15 C 3.13,15.13 3.13,15.87 3,16 C 2.87,16.13 2.13,16.13 2,16 C 1.87,15.87 1.87,15.13 2,15 Z"/><path fill="#7C7150" stroke="none" d="M 3,16 C 3.13,15.87 3.87,15.87 4,16 C 4.13,16.13 4.13,16.87 4,17 C 3.87,17.13 3.13,17.13 3,17 C 2.87,16.87 2.87,16.13 3,16 Z"/><path fill="#7C7150" stroke="none" d="M 4,17 C 4.13,16.87 4.87,16.87 5,17 C 5.13,17.13 5.13,17.87 5,18 C 4.87,18.13 4.13,18.13 4,18 C 3.87,17.87 3.87,17.13 4,17 Z"/><path fill="#7C704F" stroke="none" d="M 2,7 C 2.80,6.87 7.20,6.87 8,7 C 8.80,7.13 8.80,7.87 8,8 C 7.20,8.13 2.80,8.13 2,8 C 1.20,7.87 1.20,7.13 2,7 Z"/><path fill="#7C704F" stroke="none" d="M 28,7 C 28.27,6.87 29.73,6.87 30,7 C 30.27,7.13 30.27,7.87 30,8 C 29.73,8.13 28.27,8.13 28,8 C 27.73,7.87 27.73,7.13 28,7 Z"/><path fill="#7C704F" stroke="none" d="M 0,9 C 0.13,8.60 0.87,8.60 1,9 C 1.13,9.40 1.13,11.60 1,12 C 0.87,12.40 0.13,12.40 0,12 C -0.13,11.60 -0.13,9.40 0,9 Z"/><path fill="#7C704F" stroke="none" d="M 2,14 C 2.13,13.87 2.87,13.87 3,14 C 3.13,14.13 3.13,14.87 3,15 C 2.87,15.13 2.13,15.13 2,15 C 1.87,14.87 1.87,14.13 2,14 Z"/><path fill="#7C714F" stroke="none" d="M 8,7 C 8.13,6.87 8.87,6.87 9,7 C 9.13,7.13 9.13,7.87 9,8 C 8.87,8.13 8.13,8.13 8,8 C 7.87,7.87 7.87,7.13 8,7 Z"/><path fill="#7C714F" stroke="none" d="M 30,7 C 30.13,6.87 30.87,6.87 31,7 C 31.13,7.13 31.13,7.87 31,8 C 30.87,8.13 30.13,8.13 30,8 C 29.87,7.87 29.87,7.13 30,7 Z"/><path fill="#7C714F" stroke="none" d="M 32,8 C 32.13,7.87 32.87,7.87 33,8 C 33.13,8.13 33.13,8.87 33,9 C 32.87,9.13 32.13,9.13 32,9 C 31.87,8.87 31.87,8.13 32,8 Z"/><path fill="#7C714F" stroke="none" d="M 34,9 C 34.13,8.87 34.87,8.87 35,9 C 35.13,9.13 35.13,9.87 35,10 C 34.87,10.13 34.13,10.13 34,10 C 33.87,9.87 33.87,9.13 34,9 Z"/><path fill="#7C714F" stroke="none" d="M 15,10 C 15.13,9.87 15.87,9.87 16,10 C 16.13,10.13 16.13,10.87 16,11 C 15.87,11.13 15.13,11.13 15,11 C 14.87,10.87 14.87,10.13 15,10 Z"/><path fill="#7C714F" stroke="none" d="M 0,12 C 0.13,11.73 0.87,11.73 1,12 C 1.13,12.27 1.13,13.73 1,14 C 0.87,14.27 0.13,14.27 0,14 C -0.13,13.73 -0.13,12.27 0,12 Z"/><path fill="#7C714F" stroke="none" d="M 5,18 C 5.13,17.87 5.87,17.87 6,18 C 6.13,18.13 6.13,18.87 6,19 C 5.87,19.13 5.13,19.13 5,19 C 4.87,18.87 4.87,18.13 5,18 Z"/><path fill="#716E5A" stroke="none" d="M 19,7 C 19.13,6.87 19.87,6.87 20,7 C 20.13,7.13 20.13,7.87 20,8 C 19.87,8.13 19.13,8.13 19,8 C 18.87,7.87 18.87,7.13 19,7 Z"/><path fill="#716E5A" stroke="none" d="M 45,7 C 45.13,6.87 45.87,6.87 46,7 C 46.13,7.13 46.13,7.87 46,8 C 45.87,8.13 45.13,8.13 45,8 C 44.87,7.87 44.87,7.13 45,7 Z"/><path fill="#716E5A" stroke="none" d="M 17,8 C 17.13,7.87 17.87,7.87 18,8 C 18.13,8.13 18.13,8.87 18,9 C 17.87,9.13 17.13,9.13 17,9 C 16.87,8.87 16.87,8.13 17,8 Z"/><path fill="#000000" stroke="none" d="M 20,7 C 20.53,6.87 23.47,6.60 24,7 C 24.53,7.40 24.40,9.60 24,10 C 23.60,10.40 21.40,10.27 21,10 C 20.60,9.73 21.13,8.27 21,8 C 20.87,7.73 20.13,8.13 20,8 C 19.87,7.87 19.47,7.13 20,7 Z"/><path fill="#000000" stroke="none" d="M 39,7 C 39.13,6.87 39.87,6.87 40,7 C 40.13,7.13 40.13,7.87 40,8 C 39.87,8.13 39.13,8.13 39,8 C 38.87,7.87 38.87,7.13 39,7 Z"/><path fill="#000000" stroke="none" d="M 44,7 C 44.13,6.87 44.87,6.87 45,7 C 45.13,7.13 45.13,7.87 45,8 C 44.87,8.13 44.13,8.13 44,8 C 43.87,7.87 43.87,7.13 44,7 Z"/><path fill="#000000" stroke="none" d="M 1,8 C 2.07,7.33 7.93,7.87 9,8 C 10.07,8.13 8.87,8.87 9,9 C 9.13,9.13 9.87,8.87 10,9 C 10.13,9.13 9.47,9.87 10,10 C 10.53,10.13 13.47,9.87 14,10 C 14.53,10.13 13.60,10.87 14,11 C 14.40,11.13 16.60,11.13 17,11 C 17.40,10.87 16.73,10.13 17,10 C 17.27,9.87 18.73,9.73 19,10 C 19.27,10.27 19.13,11.73 19,12 C 18.87,12.27 18.13,11.87 18,12 C 17.87,12.13 18.27,12.87 18,13 C 17.73,13.13 16.27,12.87 16,13 C 15.73,13.13 16.13,13.87 16,14 C 15.87,14.13 15.13,14.13 15,14 C 14.87,13.87 15.27,13.13 15,13 C 14.73,12.87 13.27,13.13 13,13 C 12.73,12.87 13.40,12.13 13,12 C 12.60,11.87 10.40,12.13 10,12 C 9.60,11.87 10.80,11.13 10,11 C 9.20,10.87 4.80,10.87 4,11 C 3.20,11.13 3.87,11.87 4,12 C 4.13,12.13 4.87,11.73 5,12 C 5.13,12.27 4.87,13.73 5,14 C 5.13,14.27 5.87,13.87 6,14 C 6.13,14.13 5.47,14.87 6,15 C 6.53,15.13 9.47,14.87 10,15 C 10.53,15.13 9.73,15.87 10,16 C 10.27,16.13 11.73,15.60 12,16 C 12.27,16.40 12.27,18.60 12,19 C 11.73,19.40 10.27,19.13 10,19 C 9.73,18.87 10.53,18.13 10,18 C 9.47,17.87 6.53,18.13 6,18 C 5.47,17.87 6.13,17.13 6,17 C 5.87,16.87 5.13,17.13 5,17 C 4.87,16.87 5.13,16.13 5,16 C 4.87,15.87 4.13,16.13 4,16 C 3.87,15.87 4.13,15.13 4,15 C 3.87,14.87 3.13,15.13 3,15 C 2.87,14.87 3.13,14.13 3,14 C 2.87,13.87 2.13,14.13 2,14 C 1.87,13.87 2.13,13.13 2,13 C 1.87,12.87 1.13,13.67 1,13 C 0.87,12.33 -0.07,8.67 1,8 Z"/><path fill="#000000" stroke="none" d="M 27,8 C 27.53,6.80 30.47,7.87 31,8 C 31.53,8.13 30.73,8.87 31,9 C 31.27,9.13 32.73,8.73 33,9 C 33.27,9.27 33.13,10.73 33,11 C 32.87,11.27 32.13,10.87 32,11 C 31.87,11.13 32.27,11.87 32,12 C 31.73,12.13 30.27,11.87 30,12 C 29.73,12.13 30.13,12.87 30,13 C 29.87,13.13 29.13,12.87 29,13 C 28.87,13.13 29.13,13.87 29,14 C 28.87,14.13 28.13,13.60 28,14 C 27.87,14.40 28.13,16.60 28,17 C 27.87,17.40 27.13,18.20 27,17 C 26.87,15.80 26.47,9.20 27,8 Z"/><path fill="#000000" stroke="none" d="M 37,10 C 37.13,9.87 37.87,9.87 38,10 C 38.13,10.13 38.13,10.87 38,11 C 37.87,11.13 37.13,11.13 37,11 C 36.87,10.87 36.87,10.13 37,10 Z"/><path fill="#000000" stroke="none" d="M 23,61 C 23.13,60.73 23.87,60.73 24,61 C 24.13,61.27 24.13,62.73 24,63 C 23.87,63.27 23.13,63.27 23,63 C 22.87,62.73 22.87,61.27 23,61 Z"/><path fill="#BBB2FF" stroke="none" d="M 24,7 C 24.13,6.87 24.87,6.87 25,7 C 25.13,7.13 25.13,7.87 25,8 C 24.87,8.13 24.13,8.13 24,8 C 23.87,7.87 23.87,7.13 24,7 Z"/><path fill="#BBB2FF" stroke="none" d="M 26,7 C 26.13,6.87 26.87,6.87 27,7 C 27.13,7.13 27.13,7.87 27,8 C 26.87,8.13 26.13,8.13 26,8 C 25.87,7.87 25.87,7.13 26,7 Z"/><path fill="#BBB2FF" stroke="none" d="M 24,63 C 24.13,62.87 24.87,62.87 25,63 C 25.13,63.13 25.13,63.87 25,64 C 24.87,64.13 24.13,64.13 24,64 C 23.87,63.87 23.87,63.13 24,63 Z"/><path fill="#EADBFF" stroke="none" d="M 25,7 C 25.13,6.87 25.87,6.87 26,7 C 26.13,7.13 26.13,7.87 26,8 C 25.87,8.13 25.13,8.13 25,8 C 24.87,7.87 24.87,7.13 25,7 Z"/><path fill="#000001" stroke="none" d="M 40,7 C 40.53,6.87 43.47,6.87 44,7 C 44.53,7.13 44.53,7.87 44,8 C 43.47,8.13 40.53,8.13 40,8 C 39.47,7.87 39.47,7.13 40,7 Z"/><path fill="#000001" stroke="none" d="M 18,8 C 18.13,7.87 18.87,7.87 19,8 C 19.13,8.13 19.13,8.87 19,9 C 18.87,9.13 18.13,9.13 18,9 C 17.87,8.87 17.87,8.13 18,8 Z"/><path fill="#000001" stroke="none" d="M 46,8 C 46.13,7.87 46.87,7.87 47,8 C 47.13,8.13 47.13,8.87 47,9 C 46.87,9.13 46.13,9.13 46,9 C 45.87,8.87 45.87,8.13 46,8 Z"/><path fill="#000001" stroke="none" d="M 59,11 C 59.13,10.87 59.87,10.87 60,11 C 60.13,11.13 60.13,11.87 60,12 C 59.87,12.13 59.13,12.13 59,12 C 58.87,11.87 58.87,11.13 59,11 Z"/><path fill="#000001" stroke="none" d="M 11,20 C 11.13,19.87 11.87,19.87 12,20 C 12.13,20.13 12.13,20.87 12,21 C 11.87,21.13 11.13,21.13 11,21 C 10.87,20.87 10.87,20.13 11,20 Z"/><path fill="#000001" stroke="none" d="M 23,22 C 23.13,21.60 23.87,21.60 24,22 C 24.13,22.40 24.13,24.60 24,25 C 23.87,25.40 23.13,25.40 23,25 C 22.87,24.60 22.87,22.40 23,22 Z"/><path fill="#000001" stroke="none" d="M 12,24 C 12.13,23.87 12.87,23.87 13,24 C 13.13,24.13 13.13,24.87 13,25 C 12.87,25.13 12.13,25.13 12,25 C 11.87,24.87 11.87,24.13 12,24 Z"/><path fill="#000001" stroke="none" d="M 13,30 C 13.13,29.87 13.87,29.87 14,30 C 14.13,30.13 14.13,30.87 14,31 C 13.87,31.13 13.13,31.13 13,31 C 12.87,30.87 12.87,30.13 13,30 Z"/><path fill="#000001" stroke="none" d="M 14,36 C 14.13,35.87 14.87,35.87 15,36 C 15.13,36.13 15.13,36.87 15,37 C 14.87,37.13 14.13,37.13 14,37 C 13.87,36.87 13.87,36.13 14,36 Z"/><path fill="#000001" stroke="none" d="M 15,42 C 15.13,41.87 15.87,41.87 16,42 C 16.13,42.13 16.13,42.87 16,43 C 15.87,43.13 15.13,43.13 15,43 C 14.87,42.87 14.87,42.13 15,42 Z"/><path fill="#000001" stroke="none" d="M 23,43 C 23.13,42.87 23.87,42.87 24,43 C 24.13,43.13 24.13,43.87 24,44 C 23.87,44.13 23.13,44.13 23,44 C 22.87,43.87 22.87,43.13 23,43 Z"/><path fill="#000001" stroke="none" d="M 16,48 C 16.13,47.87 16.87,47.87 17,48 C 17.13,48.13 17.13,48.87 17,49 C 16.87,49.13 16.13,49.13 16,49 C 15.87,48.87 15.87,48.13 16,48 Z"/><path fill="#000001" stroke="none" d="M 27,50 C 27.13,49.87 27.87,49.87 28,50 C 28.13,50.13 28.13,50.87 28,51 C 27.87,51.13 27.13,51.13 27,51 C 26.87,50.87 26.87,50.13 27,50 Z"/><path fill="#000001" stroke="none" d="M 17,53 C 17.13,52.87 17.87,52.87 18,53 C 18.13,53.13 18.13,53.87 18,54 C 17.87,54.13 17.13,54.13 17,54 C 16.87,53.87 16.87,53.13 17,53 Z"/><path fill="#000001" stroke="none" d="M 27,55 C 27.13,54.73 27.87,54.73 28,55 C 28.13,55.27 28.13,56.73 28,57 C 27.87,57.27 27.13,57.27 27,57 C 26.87,56.73 26.87,55.27 27,55 Z"/><path fill="#000001" stroke="none" d="M 27,64 C 27.13,63.87 27.87,63.87 28,64 C 28.13,64.13 28.13,64.87 28,65 C 27.87,65.13 27.13,65.13 27,65 C 26.87,64.87 26.87,64.13 27,64 Z"/><path fill="#4B432E" stroke="none" d="M 9,8 C 9.13,7.87 9.87,7.87 10,8 C 10.13,8.13 10.13,8.87 10,9 C 9.87,9.13 9.13,9.13 9,9 C 8.87,8.87 8.87,8.13 9,8 Z"/><path fill="#BBA665" stroke="none" d="M 10,8 C 10.13,7.87 10.87,7.87 11,8 C 11.13,8.13 11.13,8.87 11,9 C 10.87,9.13 10.13,9.13 10,9 C 9.87,8.87 9.87,8.13 10,8 Z"/><path fill="#BBA665" stroke="none" d="M 49,10 C 49.13,9.87 49.87,9.87 50,10 C 50.13,10.13 50.13,10.87 50,11 C 49.87,11.13 49.13,11.13 49,11 C 48.87,10.87 48.87,10.13 49,10 Z"/><path fill="#BBA665" stroke="none" d="M 29,18 C 29.13,17.87 29.87,17.87 30,18 C 30.13,18.13 30.13,18.87 30,19 C 29.87,19.13 29.13,19.13 29,19 C 28.87,18.87 28.87,18.13 29,18 Z"/><path fill="#BBA665" stroke="none" d="M 35,18 C 35.13,17.87 35.87,17.87 36,18 C 36.13,18.13 36.13,18.87 36,19 C 35.87,19.13 35.13,19.13 35,19 C 34.87,18.87 34.87,18.13 35,18 Z"/><path fill="#BBA665" stroke="none" d="M 22,62 C 22.13,61.87 22.87,61.87 23,62 C 23.13,62.13 23.13,62.87 23,63 C 22.87,63.13 22.13,63.13 22,63 C 21.87,62.87 21.87,62.13 22,62 Z"/><path fill="#BAA665" stroke="none" d="M 11,8 C 11.53,7.87 14.47,7.87 15,8 C 15.53,8.13 15.53,8.87 15,9 C 14.47,9.13 11.53,9.13 11,9 C 10.47,8.87 10.47,8.13 11,8 Z"/><path fill="#BAA665" stroke="none" d="M 51,8 C 51.53,7.87 54.47,7.87 55,8 C 55.53,8.13 55.53,8.87 55,9 C 54.47,9.13 51.53,9.13 51,9 C 50.47,8.87 50.47,8.13 51,8 Z"/><path fill="#BAA665" stroke="none" d="M 16,9 C 16.13,8.87 16.87,8.87 17,9 C 17.13,9.13 17.13,9.87 17,10 C 16.87,10.13 16.13,10.13 16,10 C 15.87,9.87 15.87,9.13 16,9 Z"/><path fill="#BAA665" stroke="none" d="M 50,9 C 50.13,8.87 50.87,8.87 51,9 C 51.13,9.13 51.13,9.87 51,10 C 50.87,10.13 50.13,10.13 50,10 C 49.87,9.87 49.87,9.13 50,9 Z"/><path fill="#BAA665" stroke="none" d="M 55,9 C 55.53,8.87 58.47,8.87 59,9 C 59.53,9.13 59.53,9.87 59,10 C 58.47,10.13 55.53,10.13 55,10 C 54.47,9.87 54.47,9.13 55,9 Z"/><path fill="#BAA665" stroke="none" d="M 59,10 C 59.27,9.87 60.73,9.87 61,10 C 61.27,10.13 61.27,10.87 61,11 C 60.73,11.13 59.27,11.13 59,11 C 58.73,10.87 58.73,10.13 59,10 Z"/><path fill="#BAA665" stroke="none" d="M 37,12 C 37.13,11.47 37.87,11.47 38,12 C 38.13,12.53 38.13,15.47 38,16 C 37.87,16.53 37.13,16.53 37,16 C 36.87,15.47 36.87,12.53 37,12 Z"/><path fill="#BAA665" stroke="none" d="M 61,12 C 61.13,11.87 61.87,11.87 62,12 C 62.13,12.13 62.13,12.87 62,13 C 61.87,13.13 61.13,13.13 61,13 C 60.87,12.87 60.87,12.13 61,12 Z"/><path fill="#BAA665" stroke="none" d="M 36,16 C 36.13,15.73 36.87,15.73 37,16 C 37.13,16.27 37.13,17.73 37,18 C 36.87,18.27 36.13,18.27 36,18 C 35.87,17.73 35.87,16.27 36,16 Z"/><path fill="#BAA665" stroke="none" d="M 30,18 C 30.67,17.87 34.33,17.87 35,18 C 35.67,18.13 35.67,18.87 35,19 C 34.33,19.13 30.67,19.13 30,19 C 29.33,18.87 29.33,18.13 30,18 Z"/><path fill="#BAA665" stroke="none" d="M 10,20 C 10.13,19.73 10.87,19.73 11,20 C 11.13,20.27 11.13,21.73 11,22 C 10.87,22.27 10.13,22.27 10,22 C 9.87,21.73 9.87,20.27 10,20 Z"/><path fill="#BAA665" stroke="none" d="M 11,22 C 11.13,21.47 11.87,21.47 12,22 C 12.13,22.53 12.13,25.47 12,26 C 11.87,26.53 11.13,26.53 11,26 C 10.87,25.47 10.87,22.53 11,22 Z"/><path fill="#BAA665" stroke="none" d="M 12,26 C 12.13,25.20 12.87,25.20 13,26 C 13.13,26.80 13.13,31.20 13,32 C 12.87,32.80 12.13,32.80 12,32 C 11.87,31.20 11.87,26.80 12,26 Z"/><path fill="#BAA665" stroke="none" d="M 13,32 C 13.13,31.20 13.87,31.20 14,32 C 14.13,32.80 14.13,37.20 14,38 C 13.87,38.80 13.13,38.80 13,38 C 12.87,37.20 12.87,32.80 13,32 Z"/><path fill="#BAA665" stroke="none" d="M 14,38 C 14.13,37.20 14.87,37.20 15,38 C 15.13,38.80 15.13,43.20 15,44 C 14.87,44.80 14.13,44.80 14,44 C 13.87,43.20 13.87,38.80 14,38 Z"/><path fill="#BAA665" stroke="none" d="M 15,44 C 15.13,43.20 15.87,43.20 16,44 C 16.13,44.80 16.13,49.20 16,50 C 15.87,50.80 15.13,50.80 15,50 C 14.87,49.20 14.87,44.80 15,44 Z"/><path fill="#BAA665" stroke="none" d="M 16,50 C 16.13,49.33 16.87,49.33 17,50 C 17.13,50.67 17.13,54.33 17,55 C 16.87,55.67 16.13,55.67 16,55 C 15.87,54.33 15.87,50.67 16,50 Z"/><path fill="#BAA665" stroke="none" d="M 17,55 C 17.13,54.87 17.87,54.87 18,55 C 18.13,55.13 18.13,55.87 18,56 C 17.87,56.13 17.13,56.13 17,56 C 16.87,55.87 16.87,55.13 17,55 Z"/><path fill="#BAA665" stroke="none" d="M 18,56 C 18.13,55.73 18.87,55.73 19,56 C 19.13,56.27 19.13,57.73 19,58 C 18.87,58.27 18.13,58.27 18,58 C 17.87,57.73 17.87,56.27 18,56 Z"/><path fill="#BAA665" stroke="none" d="M 19,58 C 19.13,57.73 19.87,57.73 20,58 C 20.13,58.27 20.13,59.73 20,60 C 19.87,60.27 19.13,60.27 19,60 C 18.87,59.73 18.87,58.27 19,58 Z"/><path fill="#BAA665" stroke="none" d="M 20,60 C 20.13,59.73 20.87,59.73 21,60 C 21.13,60.27 21.13,61.73 21,62 C 20.87,62.27 20.13,62.27 20,62 C 19.87,61.73 19.87,60.27 20,60 Z"/><path fill="#BAA665" stroke="none" d="M 22,63 C 22.13,62.87 22.87,62.87 23,63 C 23.13,63.13 23.13,63.87 23,64 C 22.87,64.13 22.13,64.13 22,64 C 21.87,63.87 21.87,63.13 22,63 Z"/><path fill="#000003" stroke="none" d="M 19,8 C 19.13,7.87 19.87,7.87 20,8 C 20.13,8.13 20.13,8.87 20,9 C 19.87,9.13 19.13,9.13 19,9 C 18.87,8.87 18.87,8.13 19,8 Z"/><path fill="#000003" stroke="none" d="M 45,8 C 45.13,7.87 45.87,7.87 46,8 C 46.13,8.13 46.13,8.87 46,9 C 45.87,9.13 45.13,9.13 45,9 C 44.87,8.87 44.87,8.13 45,8 Z"/><path fill="#000003" stroke="none" d="M 10,9 C 10.13,8.87 10.87,8.87 11,9 C 11.13,9.13 11.13,9.87 11,10 C 10.87,10.13 10.13,10.13 10,10 C 9.87,9.87 9.87,9.13 10,9 Z"/><path fill="#000003" stroke="none" d="M 38,10 C 38.13,9.87 38.87,9.87 39,10 C 39.13,10.13 39.13,10.87 39,11 C 38.87,11.13 38.13,11.13 38,11 C 37.87,10.87 37.87,10.13 38,10 Z"/><path fill="#000003" stroke="none" d="M 59,12 C 59.13,11.87 59.87,11.87 60,12 C 60.13,12.13 60.13,12.87 60,13 C 59.87,13.13 59.13,13.13 59,13 C 58.87,12.87 58.87,12.13 59,12 Z"/><path fill="#000003" stroke="none" d="M 58,13 C 58.13,12.87 58.87,12.87 59,13 C 59.13,13.13 59.13,13.87 59,14 C 58.87,14.13 58.13,14.13 58,14 C 57.87,13.87 57.87,13.13 58,13 Z"/><path fill="#000003" stroke="none" d="M 53,17 C 53.13,16.47 53.87,16.47 54,17 C 54.13,17.53 54.13,20.47 54,21 C 53.87,21.53 53.13,21.53 53,21 C 52.87,20.47 52.87,17.53 53,17 Z"/><path fill="#000003" stroke="none" d="M 11,19 C 11.13,18.87 11.87,18.87 12,19 C 12.13,19.13 12.13,19.87 12,20 C 11.87,20.13 11.13,20.13 11,20 C 10.87,19.87 10.87,19.13 11,19 Z"/><path fill="#000003" stroke="none" d="M 12,22 C 12.13,21.87 12.87,21.87 13,22 C 13.13,22.13 13.13,22.87 13,23 C 12.87,23.13 12.13,23.13 12,23 C 11.87,22.87 11.87,22.13 12,22 Z"/><path fill="#000003" stroke="none" d="M 52,23 C 52.13,22.73 52.87,22.73 53,23 C 53.13,23.27 53.13,24.73 53,25 C 52.87,25.27 52.13,25.27 52,25 C 51.87,24.73 51.87,23.27 52,23 Z"/><path fill="#000003" stroke="none" d="M 13,26 C 13.13,25.87 13.87,25.87 14,26 C 14.13,26.13 14.13,26.87 14,27 C 13.87,27.13 13.13,27.13 13,27 C 12.87,26.87 12.87,26.13 13,26 Z"/><path fill="#000003" stroke="none" d="M 51,27 C 51.13,26.47 51.87,26.47 52,27 C 52.13,27.53 52.13,30.47 52,31 C 51.87,31.53 51.13,31.53 51,31 C 50.87,30.47 50.87,27.53 51,27 Z"/><path fill="#000003" stroke="none" d="M 14,32 C 14.13,31.87 14.87,31.87 15,32 C 15.13,32.13 15.13,32.87 15,33 C 14.87,33.13 14.13,33.13 14,33 C 13.87,32.87 13.87,32.13 14,32 Z"/><path fill="#000003" stroke="none" d="M 50,33 C 50.13,32.47 50.87,32.47 51,33 C 51.13,33.53 51.13,36.47 51,37 C 50.87,37.53 50.13,37.53 50,37 C 49.87,36.47 49.87,33.53 50,33 Z"/><path fill="#000003" stroke="none" d="M 15,38 C 15.13,37.87 15.87,37.87 16,38 C 16.13,38.13 16.13,38.87 16,39 C 15.87,39.13 15.13,39.13 15,39 C 14.87,38.87 14.87,38.13 15,38 Z"/><path fill="#000003" stroke="none" d="M 49,39 C 49.13,38.47 49.87,38.47 50,39 C 50.13,39.53 50.13,42.47 50,43 C 49.87,43.53 49.13,43.53 49,43 C 48.87,42.47 48.87,39.53 49,39 Z"/><path fill="#000003" stroke="none" d="M 16,44 C 16.13,43.87 16.87,43.87 17,44 C 17.13,44.13 17.13,44.87 17,45 C 16.87,45.13 16.13,45.13 16,45 C 15.87,44.87 15.87,44.13 16,44 Z"/><path fill="#000003" stroke="none" d="M 48,45 C 48.13,44.47 48.87,44.47 49,45 C 49.13,45.53 49.13,48.47 49,49 C 48.87,49.53 48.13,49.53 48,49 C 47.87,48.47 47.87,45.53 48,45 Z"/><path fill="#000003" stroke="none" d="M 17,50 C 17.13,49.87 17.87,49.87 18,50 C 18.13,50.13 18.13,50.87 18,51 C 17.87,51.13 17.13,51.13 17,51 C 16.87,50.87 16.87,50.13 17,50 Z"/><path fill="#000003" stroke="none" d="M 47,51 C 47.13,50.60 47.87,50.60 48,51 C 48.13,51.40 48.13,53.60 48,54 C 47.87,54.40 47.13,54.40 47,54 C 46.87,53.60 46.87,51.40 47,51 Z"/><path fill="#000003" stroke="none" d="M 18,54 C 18.13,53.87 18.87,53.87 19,54 C 19.13,54.13 19.13,54.87 19,55 C 18.87,55.13 18.13,55.13 18,55 C 17.87,54.87 17.87,54.13 18,54 Z"/><path fill="#000003" stroke="none" d="M 45,56 C 45.13,55.87 45.87,55.87 46,56 C 46.13,56.13 46.13,56.87 46,57 C 45.87,57.13 45.13,57.13 45,57 C 44.87,56.87 44.87,56.13 45,56 Z"/><path fill="#000003" stroke="none" d="M 44,58 C 44.13,57.87 44.87,57.87 45,58 C 45.13,58.13 45.13,58.87 45,59 C 44.87,59.13 44.13,59.13 44,59 C 43.87,58.87 43.87,58.13 44,58 Z"/><path fill="#000003" stroke="none" d="M 43,60 C 43.13,59.87 43.87,59.87 44,60 C 44.13,60.13 44.13,60.87 44,61 C 43.87,61.13 43.13,61.13 43,61 C 42.87,60.87 42.87,60.13 43,60 Z"/><path fill="#000003" stroke="none" d="M 22,61 C 22.13,60.87 22.87,60.87 23,61 C 23.13,61.13 23.13,61.87 23,62 C 22.87,62.13 22.13,62.13 22,62 C 21.87,61.87 21.87,61.13 22,61 Z"/><path fill="#000003" stroke="none" d="M 28,64 C 29.60,63.87 38.40,63.87 40,64 C 41.60,64.13 41.60,64.87 40,65 C 38.40,65.13 29.60,65.13 28,65 C 26.40,64.87 26.40,64.13 28,64 Z"/><path fill="#000005" stroke="none" d="M 20,8 C 20.13,7.87 20.87,7.73 21,8 C 21.13,8.27 21.40,9.73 21,10 C 20.60,10.27 18.40,10.13 18,10 C 17.60,9.87 17.73,9.13 18,9 C 18.27,8.87 19.73,9.13 20,9 C 20.27,8.87 19.87,8.13 20,8 Z"/><path fill="#000005" stroke="none" d="M 40,8 C 40.67,7.73 44.33,7.87 45,8 C 45.67,8.13 44.87,8.87 45,9 C 45.13,9.13 45.87,8.87 46,9 C 46.13,9.13 46.67,9.87 46,10 C 45.33,10.13 41.67,9.87 41,10 C 40.33,10.13 41.13,10.87 41,11 C 40.87,11.13 40.13,10.87 40,11 C 39.87,11.13 39.87,11.87 40,12 C 40.13,12.13 40.87,11.73 41,12 C 41.13,12.27 41.27,13.73 41,14 C 40.73,14.27 39.27,14.53 39,14 C 38.73,13.47 38.87,10.53 39,10 C 39.13,9.47 39.87,10.27 40,10 C 40.13,9.73 39.33,8.27 40,8 Z"/><path fill="#000005" stroke="none" d="M 57,11 C 57.13,10.73 57.87,10.87 58,11 C 58.13,11.13 57.87,11.87 58,12 C 58.13,12.13 58.87,11.87 59,12 C 59.13,12.13 59.27,12.87 59,13 C 58.73,13.13 57.27,13.27 57,13 C 56.73,12.73 56.87,11.27 57,11 Z"/><path fill="#000005" stroke="none" d="M 17,14 C 17.27,13.73 18.73,13.87 19,14 C 19.27,14.13 19.13,14.87 19,15 C 18.87,15.13 18.13,14.87 18,15 C 17.87,15.13 18.13,15.87 18,16 C 17.87,16.13 17.13,16.27 17,16 C 16.87,15.73 16.73,14.27 17,14 Z"/><path fill="#000005" stroke="none" d="M 12,17 C 12.53,16.47 15.47,16.87 16,17 C 16.53,17.13 15.73,17.87 16,18 C 16.27,18.13 17.73,17.87 18,18 C 18.27,18.13 17.87,18.87 18,19 C 18.13,19.13 18.87,18.73 19,19 C 19.13,19.27 18.87,20.73 19,21 C 19.13,21.27 19.87,20.47 20,21 C 20.13,21.53 19.87,24.47 20,25 C 20.13,25.53 20.87,24.60 21,25 C 21.13,25.40 21.13,27.60 21,28 C 20.87,28.40 20.13,27.87 20,28 C 19.87,28.13 20.13,28.87 20,29 C 19.87,29.13 19.13,28.87 19,29 C 18.87,29.13 18.87,29.87 19,30 C 19.13,30.13 19.87,30.13 20,30 C 20.13,29.87 19.87,29.13 20,29 C 20.13,28.87 20.87,28.87 21,29 C 21.13,29.13 21.13,29.87 21,30 C 20.87,30.13 20.13,29.87 20,30 C 19.87,30.13 19.87,30.87 20,31 C 20.13,31.13 20.87,30.87 21,31 C 21.13,31.13 20.87,31.87 21,32 C 21.13,32.13 21.87,31.33 22,32 C 22.13,32.67 21.87,36.33 22,37 C 22.13,37.67 22.87,33.80 23,37 C 23.13,40.20 23.13,57.80 23,61 C 22.87,64.20 22.13,61.27 22,61 C 21.87,60.73 22.13,59.27 22,59 C 21.87,58.73 21.13,59.27 21,59 C 20.87,58.73 21.13,57.27 21,57 C 20.87,56.73 20.13,57.27 20,57 C 19.87,56.73 20.13,55.27 20,55 C 19.87,54.73 19.13,55.13 19,55 C 18.87,54.87 19.13,54.13 19,54 C 18.87,53.87 18.13,54.67 18,54 C 17.87,53.33 18.13,49.67 18,49 C 17.87,48.33 17.13,49.80 17,49 C 16.87,48.20 17.13,43.80 17,43 C 16.87,42.20 16.13,43.80 16,43 C 15.87,42.20 16.13,37.80 16,37 C 15.87,36.20 15.13,37.80 15,37 C 14.87,36.20 15.13,31.80 15,31 C 14.87,30.20 14.13,31.80 14,31 C 13.87,30.20 14.13,25.80 14,25 C 13.87,24.20 13.13,25.53 13,25 C 12.87,24.47 13.13,21.53 13,21 C 12.87,20.47 12.13,21.53 12,21 C 11.87,20.47 11.47,17.53 12,17 Z"/><path fill="#000005" stroke="none" d="M 45,17 C 45.13,16.87 45.87,16.87 46,17 C 46.13,17.13 46.13,17.87 46,18 C 45.87,18.13 45.13,18.13 45,18 C 44.87,17.87 44.87,17.13 45,17 Z"/><path fill="#000005" stroke="none" d="M 49,17 C 49.53,16.87 52.47,16.47 53,17 C 53.53,17.53 53.13,20.47 53,21 C 52.87,21.53 52.13,20.47 52,21 C 51.87,21.53 52.13,24.47 52,25 C 51.87,25.53 51.13,24.20 51,25 C 50.87,25.80 51.13,30.20 51,31 C 50.87,31.80 50.13,30.20 50,31 C 49.87,31.80 50.13,36.20 50,37 C 49.87,37.80 49.13,36.20 49,37 C 48.87,37.80 49.13,42.20 49,43 C 48.87,43.80 48.13,42.20 48,43 C 47.87,43.80 48.13,48.20 48,49 C 47.87,49.80 47.13,48.33 47,49 C 46.87,49.67 47.13,53.33 47,54 C 46.87,54.67 46.13,53.87 46,54 C 45.87,54.13 46.13,54.87 46,55 C 45.87,55.13 45.13,54.73 45,55 C 44.87,55.27 45.13,56.73 45,57 C 44.87,57.27 44.13,56.73 44,57 C 43.87,57.27 44.13,58.73 44,59 C 43.87,59.27 43.13,58.73 43,59 C 42.87,59.27 43.13,60.73 43,61 C 42.87,61.27 42.13,60.87 42,61 C 41.87,61.13 42.13,61.87 42,62 C 41.87,62.13 41.13,61.87 41,62 C 40.87,62.13 41.13,62.87 41,63 C 40.87,63.13 40.13,62.87 40,63 C 39.87,63.13 41.60,63.87 40,64 C 38.40,64.13 29.60,65.07 28,64 C 26.40,62.93 27.87,57.07 28,56 C 28.13,54.93 28.87,55.87 29,56 C 29.13,56.13 28.07,56.87 29,57 C 29.93,57.13 35.07,57.13 36,57 C 36.93,56.87 35.87,56.13 36,56 C 36.13,55.87 36.87,56.13 37,56 C 37.13,55.87 36.87,55.13 37,55 C 37.13,54.87 37.87,55.13 38,55 C 38.13,54.87 37.87,54.13 38,54 C 38.13,53.87 38.87,54.13 39,54 C 39.13,53.87 39.13,53.13 39,53 C 38.87,52.87 38.13,53.27 38,53 C 37.87,52.73 38.13,51.27 38,51 C 37.87,50.73 37.13,51.13 37,51 C 36.87,50.87 37.13,50.13 37,50 C 36.87,49.87 36.13,50.13 36,50 C 35.87,49.87 36.13,49.13 36,49 C 35.87,48.87 35.13,48.87 35,49 C 34.87,49.13 34.87,49.87 35,50 C 35.13,50.13 35.87,49.87 36,50 C 36.13,50.13 35.87,50.87 36,51 C 36.13,51.13 36.87,50.87 37,51 C 37.13,51.13 36.60,51.87 37,52 C 37.40,52.13 39.60,52.40 40,52 C 40.40,51.60 39.87,49.40 40,49 C 40.13,48.60 40.87,49.80 41,49 C 41.13,48.20 40.87,43.80 41,43 C 41.13,42.20 41.87,43.80 42,43 C 42.13,42.20 41.87,37.80 42,37 C 42.13,36.20 42.87,37.67 43,37 C 43.13,36.33 42.87,32.67 43,32 C 43.13,31.33 43.87,32.13 44,32 C 44.13,31.87 43.87,31.13 44,31 C 44.13,30.87 44.87,31.40 45,31 C 45.13,30.60 45.13,28.40 45,28 C 44.87,27.60 44.13,28.40 44,28 C 43.87,27.60 43.87,25.40 44,25 C 44.13,24.60 44.87,25.53 45,25 C 45.13,24.47 44.87,21.53 45,21 C 45.13,20.47 45.87,21.40 46,21 C 46.13,20.60 45.60,18.40 46,18 C 46.40,17.60 48.60,18.13 49,18 C 49.40,17.87 48.47,17.13 49,17 Z"/><path fill="#000005" stroke="none" d="M 44,18 C 44.13,17.87 44.87,17.73 45,18 C 45.13,18.27 45.13,19.73 45,20 C 44.87,20.27 44.13,19.73 44,20 C 43.87,20.27 44.13,21.73 44,22 C 43.87,22.27 43.13,21.73 43,22 C 42.87,22.27 43.13,23.73 43,24 C 42.87,24.27 42.13,23.87 42,24 C 41.87,24.13 42.53,24.87 42,25 C 41.47,25.13 38.53,25.13 38,25 C 37.47,24.87 37.87,24.13 38,24 C 38.13,23.87 38.87,24.27 39,24 C 39.13,23.73 38.87,22.27 39,22 C 39.13,21.73 39.87,22.13 40,22 C 40.13,21.87 39.73,21.13 40,21 C 40.27,20.87 41.73,21.13 42,21 C 42.27,20.87 41.87,20.13 42,20 C 42.13,19.87 42.87,20.13 43,20 C 43.13,19.87 42.87,19.13 43,19 C 43.13,18.87 43.87,19.13 44,19 C 44.13,18.87 43.87,18.13 44,18 Z"/><path fill="#000005" stroke="none" d="M 21,20 C 21.13,19.73 21.87,19.87 22,20 C 22.13,20.13 21.87,20.87 22,21 C 22.13,21.13 22.87,20.60 23,21 C 23.13,21.40 23.13,23.60 23,24 C 22.87,24.40 22.13,24.27 22,24 C 21.87,23.73 22.13,22.27 22,22 C 21.87,21.73 21.13,22.27 21,22 C 20.87,21.73 20.87,20.27 21,20 Z"/><path fill="#000005" stroke="none" d="M 28,26 C 29.20,25.87 35.80,25.87 37,26 C 38.20,26.13 38.20,26.87 37,27 C 35.80,27.13 29.20,27.13 28,27 C 26.80,26.87 26.80,26.13 28,26 Z"/><path fill="#000005" stroke="none" d="M 44,29 C 44.27,28.87 45.73,28.87 46,29 C 46.27,29.13 46.27,29.87 46,30 C 45.73,30.13 44.27,30.13 44,30 C 43.73,29.87 43.73,29.13 44,29 Z"/><path fill="#000005" stroke="none" d="M 29,48 C 29.13,47.87 29.87,47.87 30,48 C 30.13,48.13 30.13,48.87 30,49 C 29.87,49.13 29.13,49.13 29,49 C 28.87,48.87 28.87,48.13 29,48 Z"/><path fill="#000005" stroke="none" d="M 28,49 C 28.13,48.87 28.87,48.87 29,49 C 29.13,49.13 29.13,49.87 29,50 C 28.87,50.13 28.13,50.13 28,50 C 27.87,49.87 27.87,49.13 28,49 Z"/><path fill="#BCB3FF" stroke="none" d="M 24,8 C 24.13,0.80 24.87,0.80 25,8 C 25.13,15.20 25.13,54.80 25,62 C 24.87,69.20 24.13,69.20 24,62 C 23.87,54.80 23.87,15.20 24,8 Z"/><path fill="#BCB3FF" stroke="none" d="M 26,9 C 26.13,1.53 26.87,1.53 27,9 C 27.13,16.47 27.13,57.53 27,65 C 26.87,72.47 26.13,72.47 26,65 C 25.87,57.53 25.87,16.47 26,9 Z"/><path fill="#EADCFF" stroke="none" d="M 25,8 C 25.13,0.53 25.87,0.53 26,8 C 26.13,15.47 26.13,56.53 26,64 C 25.87,71.47 25.13,71.47 25,64 C 24.87,56.53 24.87,15.47 25,8 Z"/><path fill="#BBB3FF" stroke="none" d="M 26,8 C 26.13,7.87 26.87,7.87 27,8 C 27.13,8.13 27.13,8.87 27,9 C 26.87,9.13 26.13,9.13 26,9 C 25.87,8.87 25.87,8.13 26,8 Z"/><path fill="#BBB3FF" stroke="none" d="M 24,62 C 24.13,61.87 24.87,61.87 25,62 C 25.13,62.13 25.13,62.87 25,63 C 24.87,63.13 24.13,63.13 24,63 C 23.87,62.87 23.87,62.13 24,62 Z"/><path fill="#BBB3FF" stroke="none" d="M 24,64 C 24.13,63.87 24.87,63.87 25,64 C 25.13,64.13 25.13,64.87 25,65 C 24.87,65.13 24.13,65.13 24,65 C 23.87,64.87 23.87,64.13 24,64 Z"/><path fill="#3C3729" stroke="none" d="M 31,8 C 31.13,7.87 31.87,7.87 32,8 C 32.13,8.13 32.13,8.87 32,9 C 31.87,9.13 31.13,9.13 31,9 C 30.87,8.87 30.87,8.13 31,8 Z"/><path fill="#3C3729" stroke="none" d="M 4,16 C 4.13,15.87 4.87,15.87 5,16 C 5.13,16.13 5.13,16.87 5,17 C 4.87,17.13 4.13,17.13 4,17 C 3.87,16.87 3.87,16.13 4,16 Z"/><path fill="#3C3729" stroke="none" d="M 5,17 C 5.13,16.87 5.87,16.87 6,17 C 6.13,17.13 6.13,17.87 6,18 C 5.87,18.13 5.13,18.13 5,18 C 4.87,17.87 4.87,17.13 5,17 Z"/><path fill="#F2E7B4" stroke="none" d="M 38,8 C 38.13,7.87 38.87,7.87 39,8 C 39.13,8.13 39.13,8.87 39,9 C 38.87,9.13 38.13,9.13 38,9 C 37.87,8.87 37.87,8.13 38,8 Z"/><path fill="#000002" stroke="none" d="M 39,8 C 39.13,7.87 39.87,7.87 40,8 C 40.13,8.13 40.13,8.87 40,9 C 39.87,9.13 39.13,9.13 39,9 C 38.87,8.87 38.87,8.13 39,8 Z"/><path fill="#000002" stroke="none" d="M 11,9 C 11.13,8.87 11.87,8.87 12,9 C 12.13,9.13 12.13,9.87 12,10 C 11.87,10.13 11.13,10.13 11,10 C 10.87,9.87 10.87,9.13 11,9 Z"/><path fill="#000002" stroke="none" d="M 17,9 C 17.13,8.87 17.87,8.87 18,9 C 18.13,9.13 18.13,9.87 18,10 C 17.87,10.13 17.13,10.13 17,10 C 16.87,9.87 16.87,9.13 17,9 Z"/><path fill="#000002" stroke="none" d="M 38,9 C 38.13,8.87 38.87,8.87 39,9 C 39.13,9.13 39.13,9.87 39,10 C 38.87,10.13 38.13,10.13 38,10 C 37.87,9.87 37.87,9.13 38,9 Z"/><path fill="#000002" stroke="none" d="M 47,9 C 47.13,8.87 47.87,8.87 48,9 C 48.13,9.13 48.13,9.87 48,10 C 47.87,10.13 47.13,10.13 47,10 C 46.87,9.87 46.87,9.13 47,9 Z"/><path fill="#000002" stroke="none" d="M 38,12 C 38.13,11.73 38.87,11.73 39,12 C 39.13,12.27 39.13,13.73 39,14 C 38.87,14.27 38.13,14.27 38,14 C 37.87,13.73 37.87,12.27 38,12 Z"/><path fill="#000002" stroke="none" d="M 12,23 C 12.13,22.87 12.87,22.87 13,23 C 13.13,23.13 13.13,23.87 13,24 C 12.87,24.13 12.13,24.13 12,24 C 11.87,23.87 11.87,23.13 12,23 Z"/><path fill="#000002" stroke="none" d="M 13,27 C 13.13,26.60 13.87,26.60 14,27 C 14.13,27.40 14.13,29.60 14,30 C 13.87,30.40 13.13,30.40 13,30 C 12.87,29.60 12.87,27.40 13,27 Z"/><path fill="#000002" stroke="none" d="M 14,33 C 14.13,32.60 14.87,32.60 15,33 C 15.13,33.40 15.13,35.60 15,36 C 14.87,36.40 14.13,36.40 14,36 C 13.87,35.60 13.87,33.40 14,33 Z"/><path fill="#000002" stroke="none" d="M 15,39 C 15.13,38.60 15.87,38.60 16,39 C 16.13,39.40 16.13,41.60 16,42 C 15.87,42.40 15.13,42.40 15,42 C 14.87,41.60 14.87,39.40 15,39 Z"/><path fill="#000002" stroke="none" d="M 23,44 C 23.13,41.73 23.87,41.73 24,44 C 24.13,46.27 24.13,58.73 24,61 C 23.87,63.27 23.13,63.27 23,61 C 22.87,58.73 22.87,46.27 23,44 Z"/><path fill="#000002" stroke="none" d="M 16,45 C 16.13,44.60 16.87,44.60 17,45 C 17.13,45.40 17.13,47.60 17,48 C 16.87,48.40 16.13,48.40 16,48 C 15.87,47.60 15.87,45.40 16,45 Z"/><path fill="#000002" stroke="none" d="M 17,51 C 17.13,50.73 17.87,50.73 18,51 C 18.13,51.27 18.13,52.73 18,53 C 17.87,53.27 17.13,53.27 17,53 C 16.87,52.73 16.87,51.27 17,51 Z"/><path fill="#000002" stroke="none" d="M 19,56 C 19.13,55.87 19.87,55.87 20,56 C 20.13,56.13 20.13,56.87 20,57 C 19.87,57.13 19.13,57.13 19,57 C 18.87,56.87 18.87,56.13 19,56 Z"/><path fill="#000002" stroke="none" d="M 27,57 C 27.13,56.07 27.87,56.07 28,57 C 28.13,57.93 28.13,63.07 28,64 C 27.87,64.93 27.13,64.93 27,64 C 26.87,63.07 26.87,57.93 27,57 Z"/><path fill="#000002" stroke="none" d="M 20,58 C 20.13,57.87 20.87,57.87 21,58 C 21.13,58.13 21.13,58.87 21,59 C 20.87,59.13 20.13,59.13 20,59 C 19.87,58.87 19.87,58.13 20,58 Z"/><path fill="#000002" stroke="none" d="M 21,60 C 21.13,59.87 21.87,59.87 22,60 C 22.13,60.13 22.13,60.87 22,61 C 21.87,61.13 21.13,61.13 21,61 C 20.87,60.87 20.87,60.13 21,60 Z"/><path fill="#000002" stroke="none" d="M 40,64 C 40.13,63.87 40.87,63.87 41,64 C 41.13,64.13 41.13,64.87 41,65 C 40.87,65.13 40.13,65.13 40,65 C 39.87,64.87 39.87,64.13 40,64 Z"/><path fill="#716E5B" stroke="none" d="M 47,8 C 47.13,7.87 47.87,7.87 48,8 C 48.13,8.13 48.13,8.87 48,9 C 47.87,9.13 47.13,9.13 47,9 C 46.87,8.87 46.87,8.13 47,8 Z"/><path fill="#B9A666" stroke="none" d="M 50,8 C 50.13,7.87 50.87,7.87 51,8 C 51.13,8.13 51.13,8.87 51,9 C 50.87,9.13 50.13,9.13 50,9 C 49.87,8.87 49.87,8.13 50,8 Z"/><path fill="#000113" stroke="none" d="M 12,9 C 12.13,8.87 12.87,8.87 13,9 C 13.13,9.13 13.13,9.87 13,10 C 12.87,10.13 12.13,10.13 12,10 C 11.87,9.87 11.87,9.13 12,9 Z"/><path fill="#000113" stroke="none" d="M 52,9 C 52.27,8.87 53.73,8.87 54,9 C 54.27,9.13 54.27,9.87 54,10 C 53.73,10.13 52.27,10.13 52,10 C 51.73,9.87 51.73,9.13 52,9 Z"/><path fill="#000113" stroke="none" d="M 56,10 C 56.27,9.87 57.73,9.87 58,10 C 58.27,10.13 58.27,10.87 58,11 C 57.73,11.13 56.27,11.13 56,11 C 55.73,10.87 55.73,10.13 56,10 Z"/><path fill="#000113" stroke="none" d="M 38,14 C 38.13,13.87 38.87,13.87 39,14 C 39.13,14.13 39.13,14.87 39,15 C 38.87,15.13 38.13,15.13 38,15 C 37.87,14.87 37.87,14.13 38,14 Z"/><path fill="#000113" stroke="none" d="M 23,19 C 23.13,18.60 23.87,18.60 24,19 C 24.13,19.40 24.13,21.60 24,22 C 23.87,22.40 23.13,22.40 23,22 C 22.87,21.60 22.87,19.40 23,19 Z"/><path fill="#000113" stroke="none" d="M 27,19 C 27.13,17.27 27.87,17.27 28,19 C 28.13,20.73 28.13,30.27 28,32 C 27.87,33.73 27.13,33.73 27,32 C 26.87,30.27 26.87,20.73 27,19 Z"/><path fill="#000113" stroke="none" d="M 30,19 C 30.67,18.87 34.33,18.87 35,19 C 35.67,19.13 35.67,19.87 35,20 C 34.33,20.13 30.67,20.13 30,20 C 29.33,19.87 29.33,19.13 30,19 Z"/><path fill="#000113" stroke="none" d="M 23,25 C 23.13,22.60 23.87,22.60 24,25 C 24.13,27.40 24.13,40.60 24,43 C 23.87,45.40 23.13,45.40 23,43 C 22.87,40.60 22.87,27.40 23,25 Z"/><path fill="#000113" stroke="none" d="M 27,37 C 27.13,35.27 27.87,35.27 28,37 C 28.13,38.73 28.13,48.27 28,50 C 27.87,51.73 27.13,51.73 27,50 C 26.87,48.27 26.87,38.73 27,37 Z"/><path fill="#000113" stroke="none" d="M 27,51 C 27.13,50.47 27.87,50.47 28,51 C 28.13,51.53 28.13,54.47 28,55 C 27.87,55.53 27.13,55.53 27,55 C 26.87,54.47 26.87,51.53 27,51 Z"/><path fill="#000012" stroke="none" d="M 13,9 C 13.13,8.87 13.87,8.87 14,9 C 14.13,9.13 14.13,9.87 14,10 C 13.87,10.13 13.13,10.13 13,10 C 12.87,9.87 12.87,9.13 13,9 Z"/><path fill="#000012" stroke="none" d="M 51,9 C 51.13,8.87 51.87,8.87 52,9 C 52.13,9.13 52.13,9.87 52,10 C 51.87,10.13 51.13,10.13 51,10 C 50.87,9.87 50.87,9.13 51,9 Z"/><path fill="#000012" stroke="none" d="M 27,17 C 27.13,16.73 27.87,16.73 28,17 C 28.13,17.27 28.13,18.73 28,19 C 27.87,19.27 27.13,19.27 27,19 C 26.87,18.73 26.87,17.27 27,17 Z"/><path fill="#7C6720" stroke="none" d="M 14,9 C 14.13,8.87 14.87,8.87 15,9 C 15.13,9.13 15.13,9.87 15,10 C 14.87,10.13 14.13,10.13 14,10 C 13.87,9.87 13.87,9.13 14,9 Z"/><path fill="#7C6720" stroke="none" d="M 60,11 C 60.13,10.87 60.87,10.87 61,11 C 61.13,11.13 61.13,11.87 61,12 C 60.87,12.13 60.13,12.13 60,12 C 59.87,11.87 59.87,11.13 60,11 Z"/><path fill="#7C6720" stroke="none" d="M 60,13 C 60.13,12.87 60.87,12.87 61,13 C 61.13,13.13 61.13,13.87 61,14 C 60.87,14.13 60.13,14.13 60,14 C 59.87,13.87 59.87,13.13 60,13 Z"/><path fill="#7C6720" stroke="none" d="M 21,61 C 21.13,60.87 21.87,60.87 22,61 C 22.13,61.13 22.13,61.87 22,62 C 21.87,62.13 21.13,62.13 21,62 C 20.87,61.87 20.87,61.13 21,61 Z"/><path fill="#7C6720" stroke="none" d="M 44,61 C 44.13,60.87 44.87,60.87 45,61 C 45.13,61.13 45.13,61.87 45,62 C 44.87,62.13 44.13,62.13 44,62 C 43.87,61.87 43.87,61.13 44,61 Z"/><path fill="#7C6720" stroke="none" d="M 26,65 C 26.27,64.87 27.73,64.87 28,65 C 28.27,65.13 28.27,65.87 28,66 C 27.73,66.13 26.27,66.13 26,66 C 25.73,65.87 25.73,65.13 26,65 Z"/><path fill="#7C6720" stroke="none" d="M 41,65 C 41.13,64.87 41.87,64.87 42,65 C 42.13,65.13 42.13,65.87 42,66 C 41.87,66.13 41.13,66.13 41,66 C 40.87,65.87 40.87,65.13 41,65 Z"/><path fill="#3C372A" stroke="none" d="M 33,9 C 33.13,8.87 33.87,8.87 34,9 C 34.13,9.13 34.13,9.87 34,10 C 33.87,10.13 33.13,10.13 33,10 C 32.87,9.87 32.87,9.13 33,9 Z"/><path fill="#3C372A" stroke="none" d="M 3,15 C 3.13,14.87 3.87,14.87 4,15 C 4.13,15.13 4.13,15.87 4,16 C 3.87,16.13 3.13,16.13 3,16 C 2.87,15.87 2.87,15.13 3,15 Z"/><path fill="#000004" stroke="none" d="M 39,9 C 39.13,8.87 39.87,8.87 40,9 C 40.13,9.13 40.13,9.87 40,10 C 39.87,10.13 39.13,10.13 39,10 C 38.87,9.87 38.87,9.13 39,9 Z"/><path fill="#000004" stroke="none" d="M 46,9 C 46.13,8.87 46.87,8.87 47,9 C 47.13,9.13 47.13,9.87 47,10 C 46.87,10.13 46.13,10.13 46,10 C 45.87,9.87 45.87,9.13 46,9 Z"/><path fill="#000004" stroke="none" d="M 38,11 C 38.13,10.87 38.87,10.87 39,11 C 39.13,11.13 39.13,11.87 39,12 C 38.87,12.13 38.13,12.13 38,12 C 37.87,11.87 37.87,11.13 38,11 Z"/><path fill="#000004" stroke="none" d="M 58,11 C 58.13,10.87 58.87,10.87 59,11 C 59.13,11.13 59.13,11.87 59,12 C 58.87,12.13 58.13,12.13 58,12 C 57.87,11.87 57.87,11.13 58,11 Z"/><path fill="#000004" stroke="none" d="M 57,13 C 57.13,12.87 57.87,12.87 58,13 C 58.13,13.13 58.13,13.87 58,14 C 57.87,14.13 57.13,14.13 57,14 C 56.87,13.87 56.87,13.13 57,13 Z"/><path fill="#000004" stroke="none" d="M 12,21 C 12.13,20.87 12.87,20.87 13,21 C 13.13,21.13 13.13,21.87 13,22 C 12.87,22.13 12.13,22.13 12,22 C 11.87,21.87 11.87,21.13 12,21 Z"/><path fill="#000004" stroke="none" d="M 52,21 C 52.13,20.73 52.87,20.73 53,21 C 53.13,21.27 53.13,22.73 53,23 C 52.87,23.27 52.13,23.27 52,23 C 51.87,22.73 51.87,21.27 52,21 Z"/><path fill="#000004" stroke="none" d="M 13,25 C 13.13,24.87 13.87,24.87 14,25 C 14.13,25.13 14.13,25.87 14,26 C 13.87,26.13 13.13,26.13 13,26 C 12.87,25.87 12.87,25.13 13,25 Z"/><path fill="#000004" stroke="none" d="M 51,25 C 51.13,24.73 51.87,24.73 52,25 C 52.13,25.27 52.13,26.73 52,27 C 51.87,27.27 51.13,27.27 51,27 C 50.87,26.73 50.87,25.27 51,25 Z"/><path fill="#000004" stroke="none" d="M 14,31 C 14.13,30.87 14.87,30.87 15,31 C 15.13,31.13 15.13,31.87 15,32 C 14.87,32.13 14.13,32.13 14,32 C 13.87,31.87 13.87,31.13 14,31 Z"/><path fill="#000004" stroke="none" d="M 50,31 C 50.13,30.73 50.87,30.73 51,31 C 51.13,31.27 51.13,32.73 51,33 C 50.87,33.27 50.13,33.27 50,33 C 49.87,32.73 49.87,31.27 50,31 Z"/><path fill="#000004" stroke="none" d="M 15,37 C 15.13,36.87 15.87,36.87 16,37 C 16.13,37.13 16.13,37.87 16,38 C 15.87,38.13 15.13,38.13 15,38 C 14.87,37.87 14.87,37.13 15,37 Z"/><path fill="#000004" stroke="none" d="M 49,37 C 49.13,36.73 49.87,36.73 50,37 C 50.13,37.27 50.13,38.73 50,39 C 49.87,39.27 49.13,39.27 49,39 C 48.87,38.73 48.87,37.27 49,37 Z"/><path fill="#000004" stroke="none" d="M 16,43 C 16.13,42.87 16.87,42.87 17,43 C 17.13,43.13 17.13,43.87 17,44 C 16.87,44.13 16.13,44.13 16,44 C 15.87,43.87 15.87,43.13 16,43 Z"/><path fill="#000004" stroke="none" d="M 48,43 C 48.13,42.73 48.87,42.73 49,43 C 49.13,43.27 49.13,44.73 49,45 C 48.87,45.27 48.13,45.27 48,45 C 47.87,44.73 47.87,43.27 48,43 Z"/><path fill="#000004" stroke="none" d="M 17,49 C 17.13,48.87 17.87,48.87 18,49 C 18.13,49.13 18.13,49.87 18,50 C 17.87,50.13 17.13,50.13 17,50 C 16.87,49.87 16.87,49.13 17,49 Z"/><path fill="#000004" stroke="none" d="M 47,49 C 47.13,48.73 47.87,48.73 48,49 C 48.13,49.27 48.13,50.73 48,51 C 47.87,51.27 47.13,51.27 47,51 C 46.87,50.73 46.87,49.27 47,49 Z"/><path fill="#000004" stroke="none" d="M 46,54 C 46.13,53.87 46.87,53.87 47,54 C 47.13,54.13 47.13,54.87 47,55 C 46.87,55.13 46.13,55.13 46,55 C 45.87,54.87 45.87,54.13 46,54 Z"/><path fill="#000004" stroke="none" d="M 19,55 C 19.13,54.87 19.87,54.87 20,55 C 20.13,55.13 20.13,55.87 20,56 C 19.87,56.13 19.13,56.13 19,56 C 18.87,55.87 18.87,55.13 19,55 Z"/><path fill="#000004" stroke="none" d="M 45,55 C 45.13,54.87 45.87,54.87 46,55 C 46.13,55.13 46.13,55.87 46,56 C 45.87,56.13 45.13,56.13 45,56 C 44.87,55.87 44.87,55.13 45,55 Z"/><path fill="#000004" stroke="none" d="M 20,57 C 20.13,56.87 20.87,56.87 21,57 C 21.13,57.13 21.13,57.87 21,58 C 20.87,58.13 20.13,58.13 20,58 C 19.87,57.87 19.87,57.13 20,57 Z"/><path fill="#000004" stroke="none" d="M 44,57 C 44.13,56.87 44.87,56.87 45,57 C 45.13,57.13 45.13,57.87 45,58 C 44.87,58.13 44.13,58.13 44,58 C 43.87,57.87 43.87,57.13 44,57 Z"/><path fill="#000004" stroke="none" d="M 21,59 C 21.13,58.87 21.87,58.87 22,59 C 22.13,59.13 22.13,59.87 22,60 C 21.87,60.13 21.13,60.13 21,60 C 20.87,59.87 20.87,59.13 21,59 Z"/><path fill="#000004" stroke="none" d="M 43,59 C 43.13,58.87 43.87,58.87 44,59 C 44.13,59.13 44.13,59.87 44,60 C 43.87,60.13 43.13,60.13 43,60 C 42.87,59.87 42.87,59.13 43,59 Z"/><path fill="#000004" stroke="none" d="M 42,61 C 42.13,60.87 42.87,60.87 43,61 C 43.13,61.13 43.13,61.87 43,62 C 42.87,62.13 42.13,62.13 42,62 C 41.87,61.87 41.87,61.13 42,61 Z"/><path fill="#000004" stroke="none" d="M 41,62 C 41.13,61.87 41.87,61.87 42,62 C 42.13,62.13 42.13,62.87 42,63 C 41.87,63.13 41.13,63.13 41,63 C 40.87,62.87 40.87,62.13 41,62 Z"/><path fill="#000004" stroke="none" d="M 40,63 C 40.13,62.87 40.87,62.87 41,63 C 41.13,63.13 41.13,63.87 41,64 C 40.87,64.13 40.13,64.13 40,64 C 39.87,63.87 39.87,63.13 40,63 Z"/><path fill="#7C6721" stroke="none" d="M 48,9 C 48.13,8.87 48.87,8.87 49,9 C 49.13,9.13 49.13,9.87 49,10 C 48.87,10.13 48.13,10.13 48,10 C 47.87,9.87 47.87,9.13 48,9 Z"/><path fill="#7C6721" stroke="none" d="M 61,13 C 61.13,12.87 61.87,12.87 62,13 C 62.13,13.13 62.13,13.87 62,14 C 61.87,14.13 61.13,14.13 61,14 C 60.87,13.87 60.87,13.13 61,13 Z"/><path fill="#5C543E" stroke="none" d="M 54,9 C 54.13,8.87 54.87,8.87 55,9 C 55.13,9.13 55.13,9.87 55,10 C 54.87,10.13 54.13,10.13 54,10 C 53.87,9.87 53.87,9.13 54,9 Z"/><path fill="#5C543E" stroke="none" d="M 50,10 C 50.13,9.87 50.87,9.87 51,10 C 51.13,10.13 51.13,10.87 51,11 C 50.87,11.13 50.13,11.13 50,11 C 49.87,10.87 49.87,10.13 50,10 Z"/><path fill="#5C543E" stroke="none" d="M 58,10 C 58.13,9.87 58.87,9.87 59,10 C 59.13,10.13 59.13,10.87 59,11 C 58.87,11.13 58.13,11.13 58,11 C 57.87,10.87 57.87,10.13 58,10 Z"/><path fill="#5C543E" stroke="none" d="M 37,16 C 37.13,15.87 37.87,15.87 38,16 C 38.13,16.13 38.13,16.87 38,17 C 37.87,17.13 37.13,17.13 37,17 C 36.87,16.87 36.87,16.13 37,16 Z"/><path fill="#3C331D" stroke="none" d="M 14,10 C 14.13,9.87 14.87,9.87 15,10 C 15.13,10.13 15.13,10.87 15,11 C 14.87,11.13 14.13,11.13 14,11 C 13.87,10.87 13.87,10.13 14,10 Z"/><path fill="#4A432E" stroke="none" d="M 16,10 C 16.13,9.87 16.87,9.87 17,10 C 17.13,10.13 17.13,10.87 17,11 C 16.87,11.13 16.13,11.13 16,11 C 15.87,10.87 15.87,10.13 16,10 Z"/><path fill="#00010C" stroke="none" d="M 19,10 C 19.53,9.73 22.47,9.87 23,10 C 23.53,10.13 23.40,10.87 23,11 C 22.60,11.13 20.40,10.87 20,11 C 19.60,11.13 20.13,11.87 20,12 C 19.87,12.13 19.13,12.27 19,12 C 18.87,11.73 18.47,10.27 19,10 Z"/><path fill="#00010C" stroke="none" d="M 4,11 C 4.80,10.87 9.20,10.87 10,11 C 10.80,11.13 10.53,11.87 10,12 C 9.47,12.13 6.53,11.73 6,12 C 5.47,12.27 6.13,13.73 6,14 C 5.87,14.27 5.13,14.27 5,14 C 4.87,13.73 5.13,12.27 5,12 C 4.87,11.73 4.13,12.13 4,12 C 3.87,11.87 3.20,11.13 4,11 Z"/><path fill="#00010C" stroke="none" d="M 10,12 C 10.40,11.87 12.60,11.87 13,12 C 13.40,12.13 13.40,12.87 13,13 C 12.60,13.13 10.40,13.13 10,13 C 9.60,12.87 9.60,12.13 10,12 Z"/><path fill="#00010C" stroke="none" d="M 18,12 C 18.13,11.87 18.87,11.73 19,12 C 19.13,12.27 19.40,13.73 19,14 C 18.60,14.27 16.40,14.13 16,14 C 15.60,13.87 15.73,13.13 16,13 C 16.27,12.87 17.73,13.13 18,13 C 18.27,12.87 17.87,12.13 18,12 Z"/><path fill="#00010C" stroke="none" d="M 14,13 C 14.13,12.87 14.87,12.87 15,13 C 15.13,13.13 15.13,13.87 15,14 C 14.87,14.13 14.13,14.13 14,14 C 13.87,13.87 13.87,13.13 14,13 Z"/><path fill="#00010C" stroke="none" d="M 6,14 C 6.53,13.87 9.47,13.87 10,14 C 10.53,14.13 10.53,14.87 10,15 C 9.47,15.13 6.53,15.13 6,15 C 5.47,14.87 5.47,14.13 6,14 Z"/><path fill="#00010C" stroke="none" d="M 10,15 C 10.13,14.87 10.87,14.87 11,15 C 11.13,15.13 11.13,15.87 11,16 C 10.87,16.13 10.13,16.13 10,16 C 9.87,15.87 9.87,15.13 10,15 Z"/><path fill="#00010C" stroke="none" d="M 19,16 C 19.13,15.73 19.87,15.87 20,16 C 20.13,16.13 19.87,16.87 20,17 C 20.13,17.13 20.87,16.87 21,17 C 21.13,17.13 20.73,17.87 21,18 C 21.27,18.13 22.73,17.87 23,18 C 23.27,18.13 23.40,18.87 23,19 C 22.60,19.13 20.40,19.13 20,19 C 19.60,18.87 20.13,18.13 20,18 C 19.87,17.87 19.13,18.27 19,18 C 18.87,17.73 18.87,16.27 19,16 Z"/><path fill="#000009" stroke="none" d="M 23,10 C 23.13,8.80 23.87,8.80 24,10 C 24.13,11.20 24.13,17.80 24,19 C 23.87,20.20 23.13,20.20 23,19 C 22.87,17.80 22.87,11.20 23,10 Z"/><path fill="#1F1809" stroke="none" d="M 33,10 C 33.13,9.87 33.87,9.87 34,10 C 34.13,10.13 34.13,10.87 34,11 C 33.87,11.13 33.13,11.13 33,11 C 32.87,10.87 32.87,10.13 33,10 Z"/><path fill="#40320D" stroke="none" d="M 34,10 C 34.13,9.87 34.87,9.87 35,10 C 35.13,10.13 35.13,10.87 35,11 C 34.87,11.13 34.13,11.13 34,11 C 33.87,10.87 33.87,10.13 34,10 Z"/><path fill="#40320D" stroke="none" d="M 1,13 C 1.13,12.87 1.87,12.87 2,13 C 2.13,13.13 2.13,13.87 2,14 C 1.87,14.13 1.13,14.13 1,14 C 0.87,13.87 0.87,13.13 1,13 Z"/><path fill="#40320D" stroke="none" d="M 6,18 C 6.13,17.87 6.87,17.87 7,18 C 7.13,18.13 7.13,18.87 7,19 C 6.87,19.13 6.13,19.13 6,19 C 5.87,18.87 5.87,18.13 6,18 Z"/><path fill="#40320D" stroke="none" d="M 9,18 C 9.13,17.87 9.87,17.87 10,18 C 10.13,18.13 10.13,18.87 10,19 C 9.87,19.13 9.13,19.13 9,19 C 8.87,18.87 8.87,18.13 9,18 Z"/><path fill="#0C1130" stroke="none" d="M 41,10 C 41.40,9.73 43.60,9.87 44,10 C 44.40,10.13 44.27,10.87 44,11 C 43.73,11.13 42.27,10.87 42,11 C 41.73,11.13 42.13,11.87 42,12 C 41.87,12.13 41.13,12.27 41,12 C 40.87,11.73 40.60,10.27 41,10 Z"/><path fill="#0C1130" stroke="none" d="M 43,12 C 43.13,11.60 43.87,11.60 44,12 C 44.13,12.40 44.13,14.60 44,15 C 43.87,15.40 43.13,15.40 43,15 C 42.87,14.60 42.87,12.40 43,12 Z"/><path fill="#0C1130" stroke="none" d="M 46,15 C 46.13,14.73 46.87,14.87 47,15 C 47.13,15.13 46.87,15.87 47,16 C 47.13,16.13 47.87,15.87 48,16 C 48.13,16.13 48.27,16.87 48,17 C 47.73,17.13 46.27,17.27 46,17 C 45.73,16.73 45.87,15.27 46,15 Z"/><path fill="#0C1130" stroke="none" d="M 43,16 C 43.27,15.87 44.73,15.87 45,16 C 45.27,16.13 45.27,16.87 45,17 C 44.73,17.13 43.27,17.13 43,17 C 42.73,16.87 42.73,16.13 43,16 Z"/><path fill="#0C1130" stroke="none" d="M 28,32 C 28.13,31.73 28.87,31.73 29,32 C 29.13,32.27 29.13,33.73 29,34 C 28.87,34.27 28.13,34.27 28,34 C 27.87,33.73 27.87,32.27 28,32 Z"/><path fill="#0C1130" stroke="none" d="M 36,32 C 36.13,31.73 36.87,31.73 37,32 C 37.13,32.27 37.13,33.73 37,34 C 36.87,34.27 36.13,34.27 36,34 C 35.87,33.73 35.87,32.27 36,32 Z"/><path fill="#0C1130" stroke="none" d="M 28,36 C 28.13,35.87 28.87,35.87 29,36 C 29.13,36.13 29.13,36.87 29,37 C 28.87,37.13 28.13,37.13 28,37 C 27.87,36.87 27.87,36.13 28,36 Z"/><path fill="#0C1130" stroke="none" d="M 36,36 C 36.13,35.87 36.87,35.87 37,36 C 37.13,36.13 37.13,36.87 37,37 C 36.87,37.13 36.13,37.13 36,37 C 35.87,36.87 35.87,36.13 36,36 Z"/><path fill="#0C1130" stroke="none" d="M 29,37 C 29.13,36.87 29.87,36.87 30,37 C 30.13,37.13 30.13,37.87 30,38 C 29.87,38.13 29.13,38.13 29,38 C 28.87,37.87 28.87,37.13 29,37 Z"/><path fill="#0C1130" stroke="none" d="M 35,37 C 35.13,36.87 35.87,36.87 36,37 C 36.13,37.13 36.13,37.87 36,38 C 35.87,38.13 35.13,38.13 35,38 C 34.87,37.87 34.87,37.13 35,37 Z"/><path fill="#0C1130" stroke="none" d="M 32,39 C 32.13,38.33 32.87,38.33 33,39 C 33.13,39.67 33.13,43.33 33,44 C 32.87,44.67 32.13,44.67 32,44 C 31.87,43.33 31.87,39.67 32,39 Z"/><path fill="#0C112F" stroke="none" d="M 44,10 C 44.27,9.87 45.73,9.87 46,10 C 46.27,10.13 46.27,10.87 46,11 C 45.73,11.13 44.27,11.13 44,11 C 43.73,10.87 43.73,10.13 44,10 Z"/><path fill="#0C112F" stroke="none" d="M 40,11 C 40.13,10.87 40.87,10.87 41,11 C 41.13,11.13 41.13,11.87 41,12 C 40.87,12.13 40.13,12.13 40,12 C 39.87,11.87 39.87,11.13 40,11 Z"/><path fill="#0C112F" stroke="none" d="M 15,16 C 15.27,15.87 16.73,15.87 17,16 C 17.27,16.13 17.27,16.87 17,17 C 16.73,17.13 15.27,17.13 15,17 C 14.73,16.87 14.73,16.13 15,16 Z"/><path fill="#0C112F" stroke="none" d="M 48,16 C 48.13,15.87 48.87,15.87 49,16 C 49.13,16.13 49.13,16.87 49,17 C 48.87,17.13 48.13,17.13 48,17 C 47.87,16.87 47.87,16.13 48,16 Z"/><path fill="#0C112F" stroke="none" d="M 22,19 C 22.13,18.87 22.87,18.87 23,19 C 23.13,19.13 23.13,19.87 23,20 C 22.87,20.13 22.13,20.13 22,20 C 21.87,19.87 21.87,19.13 22,19 Z"/><path fill="#0C112F" stroke="none" d="M 28,25 C 29.07,24.87 34.93,24.87 36,25 C 37.07,25.13 37.07,25.87 36,26 C 34.93,26.13 29.07,26.13 28,26 C 26.93,25.87 26.93,25.13 28,25 Z"/><path fill="#020416" stroke="none" d="M 46,10 C 46.13,9.87 46.87,9.87 47,10 C 47.13,10.13 46.87,10.87 47,11 C 47.13,11.13 47.87,10.87 48,11 C 48.13,11.13 47.47,11.87 48,12 C 48.53,12.13 51.47,12.27 52,12 C 52.53,11.73 51.87,10.27 52,10 C 52.13,9.73 52.87,9.87 53,10 C 53.13,10.13 52.47,10.87 53,11 C 53.53,11.13 56.47,10.60 57,11 C 57.53,11.40 57.27,13.60 57,14 C 56.73,14.40 55.27,13.87 55,14 C 54.73,14.13 55.13,14.87 55,15 C 54.87,15.13 54.13,14.87 54,15 C 53.87,15.13 54.13,15.87 54,16 C 53.87,16.13 53.13,15.87 53,16 C 52.87,16.13 53.53,16.87 53,17 C 52.47,17.13 49.53,17.13 49,17 C 48.47,16.87 49.27,16.13 49,16 C 48.73,15.87 47.27,16.13 47,16 C 46.73,15.87 47.27,15.13 47,15 C 46.73,14.87 45.27,15.13 45,15 C 44.73,14.87 45.13,14.13 45,14 C 44.87,13.87 44.13,14.27 44,14 C 43.87,13.73 44.13,12.27 44,12 C 43.87,11.73 43.13,12.13 43,12 C 42.87,11.87 42.60,11.13 43,11 C 43.40,10.87 45.60,11.13 46,11 C 46.40,10.87 45.87,10.13 46,10 Z"/><path fill="#020416" stroke="none" d="M 41,12 C 41.27,11.73 42.73,11.33 43,12 C 43.27,12.67 42.73,16.33 43,17 C 43.27,17.67 44.73,17.13 45,17 C 45.27,16.87 44.87,16.13 45,16 C 45.13,15.87 45.87,15.87 46,16 C 46.13,16.13 46.13,16.87 46,17 C 45.87,17.13 45.13,16.87 45,17 C 44.87,17.13 45.13,17.87 45,18 C 44.87,18.13 44.13,17.87 44,18 C 43.87,18.13 44.13,18.87 44,19 C 43.87,19.13 43.13,18.87 43,19 C 42.87,19.13 43.13,19.87 43,20 C 42.87,20.13 42.13,19.87 42,20 C 41.87,20.13 42.27,20.87 42,21 C 41.73,21.13 40.27,20.87 40,21 C 39.73,21.13 40.13,21.87 40,22 C 39.87,22.13 39.13,21.73 39,22 C 38.87,22.27 39.13,23.73 39,24 C 38.87,24.27 38.13,23.87 38,24 C 37.87,24.13 37.47,24.87 38,25 C 38.53,25.13 41.47,25.13 42,25 C 42.53,24.87 41.87,24.13 42,24 C 42.13,23.87 42.87,24.27 43,24 C 43.13,23.73 42.87,22.27 43,22 C 43.13,21.73 43.87,22.27 44,22 C 44.13,21.73 43.87,20.27 44,20 C 44.13,19.73 44.87,20.27 45,20 C 45.13,19.73 44.87,18.27 45,18 C 45.13,17.73 45.87,18.13 46,18 C 46.13,17.87 45.60,17.13 46,17 C 46.40,16.87 48.60,16.87 49,17 C 49.40,17.13 49.40,17.87 49,18 C 48.60,18.13 46.40,17.60 46,18 C 45.60,18.40 46.13,20.60 46,21 C 45.87,21.40 45.13,20.47 45,21 C 44.87,21.53 45.13,24.47 45,25 C 44.87,25.53 44.13,24.60 44,25 C 43.87,25.40 43.87,27.60 44,28 C 44.13,28.40 44.87,27.87 45,28 C 45.13,28.13 45.13,28.87 45,29 C 44.87,29.13 44.13,28.87 44,29 C 43.87,29.13 43.87,29.87 44,30 C 44.13,30.13 44.87,30.13 45,30 C 45.13,29.87 44.87,29.13 45,29 C 45.13,28.87 45.87,28.87 46,29 C 46.13,29.13 46.13,29.87 46,30 C 45.87,30.13 45.13,29.87 45,30 C 44.87,30.13 45.13,30.87 45,31 C 44.87,31.13 44.13,30.87 44,31 C 43.87,31.13 44.13,31.87 44,32 C 43.87,32.13 43.13,31.33 43,32 C 42.87,32.67 43.13,36.33 43,37 C 42.87,37.67 42.13,36.20 42,37 C 41.87,37.80 42.13,42.20 42,43 C 41.87,43.80 41.13,42.20 41,43 C 40.87,43.80 41.13,48.20 41,49 C 40.87,49.80 40.13,48.60 40,49 C 39.87,49.40 40.27,51.60 40,52 C 39.73,52.40 38.27,52.13 38,52 C 37.73,51.87 38.13,51.13 38,51 C 37.87,50.87 37.13,51.13 37,51 C 36.87,50.87 37.13,50.13 37,50 C 36.87,49.87 36.13,50.13 36,50 C 35.87,49.87 36.13,49.13 36,49 C 35.87,48.87 35.13,48.87 35,49 C 34.87,49.13 34.87,49.87 35,50 C 35.13,50.13 35.87,49.87 36,50 C 36.13,50.13 35.87,50.87 36,51 C 36.13,51.13 36.87,50.87 37,51 C 37.13,51.13 36.87,51.87 37,52 C 37.13,52.13 37.87,51.87 38,52 C 38.13,52.13 37.87,52.87 38,53 C 38.13,53.13 38.87,52.87 39,53 C 39.13,53.13 39.13,53.87 39,54 C 38.87,54.13 38.13,53.87 38,54 C 37.87,54.13 38.13,54.87 38,55 C 37.87,55.13 37.13,54.87 37,55 C 36.87,55.13 37.13,55.87 37,56 C 36.87,56.13 36.13,55.87 36,56 C 35.87,56.13 36.93,56.87 36,57 C 35.07,57.13 29.93,57.13 29,57 C 28.07,56.87 29.13,56.13 29,56 C 28.87,55.87 28.13,56.80 28,56 C 27.87,55.20 27.87,50.80 28,50 C 28.13,49.20 28.87,50.27 29,50 C 29.13,49.73 28.87,48.27 29,48 C 29.13,47.73 29.87,47.87 30,48 C 30.13,48.13 30.27,48.87 30,49 C 29.73,49.13 28.27,50.60 28,49 C 27.73,47.40 27.87,38.60 28,37 C 28.13,35.40 28.87,36.87 29,37 C 29.13,37.13 28.73,37.87 29,38 C 29.27,38.13 30.73,37.87 31,38 C 31.27,38.13 30.87,38.87 31,39 C 31.13,39.13 31.87,38.33 32,39 C 32.13,39.67 31.87,43.33 32,44 C 32.13,44.67 32.87,44.67 33,44 C 33.13,43.33 32.87,39.67 33,39 C 33.13,38.33 33.87,39.13 34,39 C 34.13,38.87 33.73,38.13 34,38 C 34.27,37.87 35.73,38.13 36,38 C 36.27,37.87 35.87,37.13 36,37 C 36.13,36.87 36.87,37.67 37,37 C 37.13,36.33 37.13,32.67 37,32 C 36.87,31.33 36.13,31.87 36,32 C 35.87,32.13 36.93,32.87 36,33 C 35.07,33.13 29.93,33.13 29,33 C 28.07,32.87 29.13,32.13 29,32 C 28.87,31.87 28.13,32.67 28,32 C 27.87,31.33 26.80,27.67 28,27 C 29.20,26.33 35.80,27.13 37,27 C 38.20,26.87 37.13,26.13 37,26 C 36.87,25.87 36.13,26.13 36,26 C 35.87,25.87 37.07,25.13 36,25 C 34.93,24.87 29.07,25.67 28,25 C 26.93,24.33 26.80,20.67 28,20 C 29.20,19.33 35.80,20.13 37,20 C 38.20,19.87 36.87,19.13 37,19 C 37.13,18.87 37.87,19.13 38,19 C 38.13,18.87 37.87,18.13 38,18 C 38.13,17.87 38.87,18.53 39,18 C 39.13,17.47 38.73,14.53 39,14 C 39.27,13.47 40.73,14.27 41,14 C 41.27,13.73 40.73,12.27 41,12 Z"/><path fill="#020416" stroke="none" d="M 12,14 C 12.67,13.60 16.33,13.73 17,14 C 17.67,14.27 17.27,15.73 17,16 C 16.73,16.27 15.27,15.87 15,16 C 14.73,16.13 15.40,16.87 15,17 C 14.60,17.13 12.40,17.40 12,17 C 11.60,16.60 11.33,14.40 12,14 Z"/><path fill="#020416" stroke="none" d="M 18,15 C 18.13,14.87 18.87,14.47 19,15 C 19.13,15.53 19.13,18.47 19,19 C 18.87,19.53 18.13,19.13 18,19 C 17.87,18.87 18.27,18.13 18,18 C 17.73,17.87 16.27,18.13 16,18 C 15.73,17.87 15.87,17.13 16,17 C 16.13,16.87 16.87,17.13 17,17 C 17.13,16.87 16.87,16.13 17,16 C 17.13,15.87 17.87,16.13 18,16 C 18.13,15.87 17.87,15.13 18,15 Z"/><path fill="#020416" stroke="none" d="M 19,19 C 19.40,18.73 21.60,18.87 22,19 C 22.40,19.13 22.13,19.87 22,20 C 21.87,20.13 21.13,19.73 21,20 C 20.87,20.27 20.87,21.73 21,22 C 21.13,22.27 21.87,21.73 22,22 C 22.13,22.27 21.87,23.73 22,24 C 22.13,24.27 22.87,22.27 23,24 C 23.13,25.73 23.13,35.27 23,37 C 22.87,38.73 22.13,37.67 22,37 C 21.87,36.33 22.13,32.67 22,32 C 21.87,31.33 21.13,32.13 21,32 C 20.87,31.87 21.13,31.13 21,31 C 20.87,30.87 20.13,31.40 20,31 C 19.87,30.60 19.87,28.40 20,28 C 20.13,27.60 20.87,28.40 21,28 C 21.13,27.60 21.13,25.40 21,25 C 20.87,24.60 20.13,25.53 20,25 C 19.87,24.47 20.13,21.53 20,21 C 19.87,20.47 19.13,21.27 19,21 C 18.87,20.73 18.60,19.27 19,19 Z"/><path fill="#020416" stroke="none" d="M 22,20 C 22.13,19.87 22.87,19.87 23,20 C 23.13,20.13 23.13,20.87 23,21 C 22.87,21.13 22.13,21.13 22,21 C 21.87,20.87 21.87,20.13 22,20 Z"/><path fill="#020416" stroke="none" d="M 19,29 C 19.27,28.87 20.73,28.87 21,29 C 21.27,29.13 21.27,29.87 21,30 C 20.73,30.13 19.27,30.13 19,30 C 18.73,29.87 18.73,29.13 19,29 Z"/><path fill="#010315" stroke="none" d="M 47,10 C 47.13,9.87 47.87,9.87 48,10 C 48.13,10.13 48.13,10.87 48,11 C 47.87,11.13 47.13,11.13 47,11 C 46.87,10.87 46.87,10.13 47,10 Z"/><path fill="#010315" stroke="none" d="M 51,10 C 51.13,9.87 51.87,9.87 52,10 C 52.13,10.13 52.13,10.87 52,11 C 51.87,11.13 51.13,11.13 51,11 C 50.87,10.87 50.87,10.13 51,10 Z"/><path fill="#010315" stroke="none" d="M 54,10 C 54.13,9.87 54.87,9.87 55,10 C 55.13,10.13 55.13,10.87 55,11 C 54.87,11.13 54.13,11.13 54,11 C 53.87,10.87 53.87,10.13 54,10 Z"/><path fill="#010315" stroke="none" d="M 48,11 C 48.13,10.87 48.87,10.87 49,11 C 49.13,11.13 49.13,11.87 49,12 C 48.87,12.13 48.13,12.13 48,12 C 47.87,11.87 47.87,11.13 48,11 Z"/><path fill="#010315" stroke="none" d="M 50,11 C 50.13,10.87 50.87,10.87 51,11 C 51.13,11.13 51.13,11.87 51,12 C 50.87,12.13 50.13,12.13 50,12 C 49.87,11.87 49.87,11.13 50,11 Z"/><path fill="#010315" stroke="none" d="M 55,14 C 55.13,13.87 55.87,13.87 56,14 C 56.13,14.13 56.13,14.87 56,15 C 55.87,15.13 55.13,15.13 55,15 C 54.87,14.87 54.87,14.13 55,14 Z"/><path fill="#010315" stroke="none" d="M 54,15 C 54.13,14.87 54.87,14.87 55,15 C 55.13,15.13 55.13,15.87 55,16 C 54.87,16.13 54.13,16.13 54,16 C 53.87,15.87 53.87,15.13 54,15 Z"/><path fill="#010315" stroke="none" d="M 38,16 C 38.13,15.87 38.87,15.87 39,16 C 39.13,16.13 39.13,16.87 39,17 C 38.87,17.13 38.13,17.13 38,17 C 37.87,16.87 37.87,16.13 38,16 Z"/><path fill="#010315" stroke="none" d="M 53,16 C 53.13,15.87 53.87,15.87 54,16 C 54.13,16.13 54.13,16.87 54,17 C 53.87,17.13 53.13,17.13 53,17 C 52.87,16.87 52.87,16.13 53,16 Z"/><path fill="#010315" stroke="none" d="M 37,18 C 37.13,17.87 37.87,17.87 38,18 C 38.13,18.13 38.13,18.87 38,19 C 37.87,19.13 37.13,19.13 37,19 C 36.87,18.87 36.87,18.13 37,18 Z"/><path fill="#010315" stroke="none" d="M 28,19 C 28.13,18.87 28.87,18.87 29,19 C 29.13,19.13 29.13,19.87 29,20 C 28.87,20.13 28.13,20.13 28,20 C 27.87,19.87 27.87,19.13 28,19 Z"/><path fill="#010315" stroke="none" d="M 36,19 C 36.13,18.87 36.87,18.87 37,19 C 37.13,19.13 37.13,19.87 37,20 C 36.87,20.13 36.13,20.13 36,20 C 35.87,19.87 35.87,19.13 36,19 Z"/><path fill="#4D442D" stroke="none" d="M 48,10 C 48.13,9.87 48.87,9.87 49,10 C 49.13,10.13 49.13,10.87 49,11 C 48.87,11.13 48.13,11.13 48,11 C 47.87,10.87 47.87,10.13 48,10 Z"/><path fill="#020415" stroke="none" d="M 53,10 C 53.13,9.87 53.87,9.87 54,10 C 54.13,10.13 54.13,10.87 54,11 C 53.87,11.13 53.13,11.13 53,11 C 52.87,10.87 52.87,10.13 53,10 Z"/><path fill="#020415" stroke="none" d="M 51,11 C 51.13,10.87 51.87,10.87 52,11 C 52.13,11.13 52.13,11.87 52,12 C 51.87,12.13 51.13,12.13 51,12 C 50.87,11.87 50.87,11.13 51,11 Z"/><path fill="#020415" stroke="none" d="M 38,17 C 38.13,16.87 38.87,16.87 39,17 C 39.13,17.13 39.13,17.87 39,18 C 38.87,18.13 38.13,18.13 38,18 C 37.87,17.87 37.87,17.13 38,17 Z"/><path fill="#000214" stroke="none" d="M 55,10 C 55.13,9.87 55.87,9.87 56,10 C 56.13,10.13 56.13,10.87 56,11 C 55.87,11.13 55.13,11.13 55,11 C 54.87,10.87 54.87,10.13 55,10 Z"/><path fill="#000214" stroke="none" d="M 49,11 C 49.13,10.87 49.87,10.87 50,11 C 50.13,11.13 50.13,11.87 50,12 C 49.87,12.13 49.13,12.13 49,12 C 48.87,11.87 48.87,11.13 49,11 Z"/><path fill="#000214" stroke="none" d="M 56,14 C 56.13,13.87 56.87,13.87 57,14 C 57.13,14.13 57.13,14.87 57,15 C 56.87,15.13 56.13,15.13 56,15 C 55.87,14.87 55.87,14.13 56,14 Z"/><path fill="#000214" stroke="none" d="M 38,15 C 38.13,14.87 38.87,14.87 39,15 C 39.13,15.13 39.13,15.87 39,16 C 38.87,16.13 38.13,16.13 38,16 C 37.87,15.87 37.87,15.13 38,15 Z"/><path fill="#000214" stroke="none" d="M 37,17 C 37.13,16.87 37.87,16.87 38,17 C 38.13,17.13 38.13,17.87 38,18 C 37.87,18.13 37.13,18.13 37,18 C 36.87,17.87 36.87,17.13 37,17 Z"/><path fill="#000214" stroke="none" d="M 28,18 C 28.13,17.87 28.87,17.87 29,18 C 29.13,18.13 29.13,18.87 29,19 C 28.87,19.13 28.13,19.13 28,19 C 27.87,18.87 27.87,18.13 28,18 Z"/><path fill="#000214" stroke="none" d="M 36,18 C 36.13,17.87 36.87,17.87 37,18 C 37.13,18.13 37.13,18.87 37,19 C 36.87,19.13 36.13,19.13 36,19 C 35.87,18.87 35.87,18.13 36,18 Z"/><path fill="#000214" stroke="none" d="M 29,19 C 29.13,18.87 29.87,18.87 30,19 C 30.13,19.13 30.13,19.87 30,20 C 29.87,20.13 29.13,20.13 29,20 C 28.87,19.87 28.87,19.13 29,19 Z"/><path fill="#000214" stroke="none" d="M 35,19 C 35.13,18.87 35.87,18.87 36,19 C 36.13,19.13 36.13,19.87 36,20 C 35.87,20.13 35.13,20.13 35,20 C 34.87,19.87 34.87,19.13 35,19 Z"/><path fill="#00010D" stroke="none" d="M 20,11 C 20.40,10.87 22.60,10.07 23,11 C 23.40,11.93 23.27,17.07 23,18 C 22.73,18.93 21.27,18.13 21,18 C 20.73,17.87 21.13,17.13 21,17 C 20.87,16.87 20.13,17.13 20,17 C 19.87,16.87 20.13,16.13 20,16 C 19.87,15.87 19.13,16.53 19,16 C 18.87,15.47 18.87,12.53 19,12 C 19.13,11.47 19.87,12.13 20,12 C 20.13,11.87 19.60,11.13 20,11 Z"/><path fill="#00010D" stroke="none" d="M 6,12 C 6.53,11.73 9.47,11.87 10,12 C 10.53,12.13 9.47,12.87 10,13 C 10.53,13.13 13.47,12.87 14,13 C 14.53,13.13 14.27,13.87 14,14 C 13.73,14.13 12.27,13.73 12,14 C 11.73,14.27 12.13,15.73 12,16 C 11.87,16.27 11.13,16.13 11,16 C 10.87,15.87 11.13,15.13 11,15 C 10.87,14.87 10.13,15.13 10,15 C 9.87,14.87 10.53,14.13 10,14 C 9.47,13.87 6.53,14.27 6,14 C 5.47,13.73 5.47,12.27 6,12 Z"/><path fill="#1F1909" stroke="none" d="M 32,11 C 32.13,10.87 32.87,10.87 33,11 C 33.13,11.13 33.13,11.87 33,12 C 32.87,12.13 32.13,12.13 32,12 C 31.87,11.87 31.87,11.13 32,11 Z"/><path fill="#1F1909" stroke="none" d="M 30,12 C 30.13,11.87 30.87,11.87 31,12 C 31.13,12.13 31.13,12.87 31,13 C 30.87,13.13 30.13,13.13 30,13 C 29.87,12.87 29.87,12.13 30,12 Z"/><path fill="#40310C" stroke="none" d="M 33,11 C 33.13,10.87 33.87,10.87 34,11 C 34.13,11.13 34.13,11.87 34,12 C 33.87,12.13 33.13,12.13 33,12 C 32.87,11.87 32.87,11.13 33,11 Z"/><path fill="#40310C" stroke="none" d="M 31,12 C 31.13,11.87 31.87,11.87 32,12 C 32.13,12.13 32.13,12.87 32,13 C 31.87,13.13 31.13,13.13 31,13 C 30.87,12.87 30.87,12.13 31,12 Z"/><path fill="#40310C" stroke="none" d="M 28,15 C 28.13,14.87 28.87,14.87 29,15 C 29.13,15.13 29.13,15.87 29,16 C 28.87,16.13 28.13,16.13 28,16 C 27.87,15.87 27.87,15.13 28,15 Z"/><path fill="#656048" stroke="none" d="M 37,11 C 37.13,10.87 37.87,10.87 38,11 C 38.13,11.13 38.13,11.87 38,12 C 37.87,12.13 37.13,12.13 37,12 C 36.87,11.87 36.87,11.13 37,11 Z"/><path fill="#0C1230" stroke="none" d="M 42,11 C 42.13,10.87 42.87,10.87 43,11 C 43.13,11.13 43.13,11.87 43,12 C 42.87,12.13 42.13,12.13 42,12 C 41.87,11.87 41.87,11.13 42,11 Z"/><path fill="#0C1230" stroke="none" d="M 44,14 C 44.13,13.87 44.87,13.87 45,14 C 45.13,14.13 44.87,14.87 45,15 C 45.13,15.13 45.87,14.87 46,15 C 46.13,15.13 46.40,15.87 46,16 C 45.60,16.13 43.40,16.13 43,16 C 42.60,15.87 42.87,15.13 43,15 C 43.13,14.87 43.87,15.13 44,15 C 44.13,14.87 43.87,14.13 44,14 Z"/><path fill="#0C1230" stroke="none" d="M 29,33 C 29.93,32.87 35.07,32.87 36,33 C 36.93,33.13 36.93,33.87 36,34 C 35.07,34.13 29.93,34.13 29,34 C 28.07,33.87 28.07,33.13 29,33 Z"/><path fill="#0C1230" stroke="none" d="M 28,34 C 28.13,33.73 28.87,33.73 29,34 C 29.13,34.27 29.13,35.73 29,36 C 28.87,36.27 28.13,36.27 28,36 C 27.87,35.73 27.87,34.27 28,34 Z"/><path fill="#0C1230" stroke="none" d="M 36,34 C 36.13,33.73 36.87,33.73 37,34 C 37.13,34.27 37.13,35.73 37,36 C 36.87,36.27 36.13,36.27 36,36 C 35.87,35.73 35.87,34.27 36,34 Z"/><path fill="#0C1230" stroke="none" d="M 29,36 C 29.13,35.87 29.87,35.87 30,36 C 30.13,36.13 30.13,36.87 30,37 C 29.87,37.13 29.13,37.13 29,37 C 28.87,36.87 28.87,36.13 29,36 Z"/><path fill="#0C1230" stroke="none" d="M 35,36 C 35.13,35.87 35.87,35.87 36,36 C 36.13,36.13 36.13,36.87 36,37 C 35.87,37.13 35.13,37.13 35,37 C 34.87,36.87 34.87,36.13 35,36 Z"/><path fill="#0C1230" stroke="none" d="M 30,37 C 30.27,36.87 31.73,36.87 32,37 C 32.27,37.13 31.87,37.87 32,38 C 32.13,38.13 32.87,38.13 33,38 C 33.13,37.87 32.73,37.13 33,37 C 33.27,36.87 34.73,36.87 35,37 C 35.27,37.13 35.13,37.87 35,38 C 34.87,38.13 34.13,37.87 34,38 C 33.87,38.13 34.40,38.87 34,39 C 33.60,39.13 31.40,39.13 31,39 C 30.60,38.87 31.13,38.13 31,38 C 30.87,37.87 30.13,38.13 30,38 C 29.87,37.87 29.73,37.13 30,37 Z"/><path fill="#40320C" stroke="none" d="M 32,12 C 32.13,11.87 32.87,11.87 33,12 C 33.13,12.13 33.13,12.87 33,13 C 32.87,13.13 32.13,13.13 32,13 C 31.87,12.87 31.87,12.13 32,12 Z"/><path fill="#40320C" stroke="none" d="M 30,13 C 30.13,12.87 30.87,12.87 31,13 C 31.13,13.13 31.13,13.87 31,14 C 30.87,14.13 30.13,14.13 30,14 C 29.87,13.87 29.87,13.13 30,13 Z"/><path fill="#4B4125" stroke="none" d="M 60,12 C 60.13,11.87 60.87,11.87 61,12 C 61.13,12.13 61.13,12.87 61,13 C 60.87,13.13 60.13,13.13 60,13 C 59.87,12.87 59.87,12.13 60,12 Z"/><path fill="#3F310C" stroke="none" d="M 29,13 C 29.13,12.87 29.87,12.87 30,13 C 30.13,13.13 30.13,13.87 30,14 C 29.87,14.13 29.13,14.13 29,14 C 28.87,13.87 28.87,13.13 29,13 Z"/><path fill="#3F310C" stroke="none" d="M 28,14 C 28.13,13.87 28.87,13.87 29,14 C 29.13,14.13 29.13,14.87 29,15 C 28.87,15.13 28.13,15.13 28,15 C 27.87,14.87 27.87,14.13 28,14 Z"/><path fill="#3F310C" stroke="none" d="M 7,18 C 7.27,17.87 8.73,17.87 9,18 C 9.27,18.13 9.27,18.87 9,19 C 8.73,19.13 7.27,19.13 7,19 C 6.73,18.87 6.73,18.13 7,18 Z"/><path fill="#3C3315" stroke="none" d="M 59,13 C 59.13,12.87 59.87,12.87 60,13 C 60.13,13.13 60.13,13.87 60,14 C 59.87,14.13 59.13,14.13 59,14 C 58.87,13.87 58.87,13.13 59,13 Z"/><path fill="#3C3315" stroke="none" d="M 57,14 C 57.13,13.87 57.87,13.87 58,14 C 58.13,14.13 58.13,14.87 58,15 C 57.87,15.13 57.13,15.13 57,15 C 56.87,14.87 56.87,14.13 57,14 Z"/><path fill="#3C3315" stroke="none" d="M 53,21 C 53.13,20.87 53.87,20.87 54,21 C 54.13,21.13 54.13,21.87 54,22 C 53.87,22.13 53.13,22.13 53,22 C 52.87,21.87 52.87,21.13 53,21 Z"/><path fill="#3C3315" stroke="none" d="M 52,25 C 52.13,24.87 52.87,24.87 53,25 C 53.13,25.13 53.13,25.87 53,26 C 52.87,26.13 52.13,26.13 52,26 C 51.87,25.87 51.87,25.13 52,25 Z"/><path fill="#3C3315" stroke="none" d="M 51,31 C 51.13,30.87 51.87,30.87 52,31 C 52.13,31.13 52.13,31.87 52,32 C 51.87,32.13 51.13,32.13 51,32 C 50.87,31.87 50.87,31.13 51,31 Z"/><path fill="#3C3315" stroke="none" d="M 50,37 C 50.13,36.87 50.87,36.87 51,37 C 51.13,37.13 51.13,37.87 51,38 C 50.87,38.13 50.13,38.13 50,38 C 49.87,37.87 49.87,37.13 50,37 Z"/><path fill="#3C3315" stroke="none" d="M 49,43 C 49.13,42.87 49.87,42.87 50,43 C 50.13,43.13 50.13,43.87 50,44 C 49.87,44.13 49.13,44.13 49,44 C 48.87,43.87 48.87,43.13 49,43 Z"/><path fill="#3C3315" stroke="none" d="M 48,49 C 48.13,48.87 48.87,48.87 49,49 C 49.13,49.13 49.13,49.87 49,50 C 48.87,50.13 48.13,50.13 48,50 C 47.87,49.87 47.87,49.13 48,49 Z"/><path fill="#3C3315" stroke="none" d="M 47,54 C 47.13,53.87 47.87,53.87 48,54 C 48.13,54.13 48.13,54.87 48,55 C 47.87,55.13 47.13,55.13 47,55 C 46.87,54.87 46.87,54.13 47,54 Z"/><path fill="#3C3315" stroke="none" d="M 45,57 C 45.13,56.87 45.87,56.87 46,57 C 46.13,57.13 46.13,57.87 46,58 C 45.87,58.13 45.13,58.13 45,58 C 44.87,57.87 44.87,57.13 45,57 Z"/><path fill="#3C3315" stroke="none" d="M 44,59 C 44.13,58.87 44.87,58.87 45,59 C 45.13,59.13 45.13,59.87 45,60 C 44.87,60.13 44.13,60.13 44,60 C 43.87,59.87 43.87,59.13 44,59 Z"/><path fill="#3C3315" stroke="none" d="M 41,63 C 41.13,62.87 41.87,62.87 42,63 C 42.13,63.13 42.13,63.87 42,64 C 41.87,64.13 41.13,64.13 41,64 C 40.87,63.87 40.87,63.13 41,63 Z"/><path fill="#7C671F" stroke="none" d="M 58,14 C 58.27,13.87 59.73,13.87 60,14 C 60.27,14.13 60.27,14.87 60,15 C 59.73,15.13 58.27,15.13 58,15 C 57.73,14.87 57.73,14.13 58,14 Z"/><path fill="#7C671F" stroke="none" d="M 56,15 C 56.27,14.87 57.73,14.87 58,15 C 58.27,15.13 58.27,15.87 58,16 C 57.73,16.13 56.27,16.13 56,16 C 55.73,15.87 55.73,15.13 56,15 Z"/><path fill="#7C671F" stroke="none" d="M 55,16 C 55.13,15.87 55.87,15.87 56,16 C 56.13,16.13 56.13,16.87 56,17 C 55.87,17.13 55.13,17.13 55,17 C 54.87,16.87 54.87,16.13 55,16 Z"/><path fill="#7C671F" stroke="none" d="M 28,17 C 28.13,16.87 28.87,16.87 29,17 C 29.13,17.13 29.13,17.87 29,18 C 28.87,18.13 28.13,18.13 28,18 C 27.87,17.87 27.87,17.13 28,17 Z"/><path fill="#7C671F" stroke="none" d="M 54,17 C 54.13,16.87 54.87,16.87 55,17 C 55.13,17.13 55.13,17.87 55,18 C 54.87,18.13 54.13,18.13 54,18 C 53.87,17.87 53.87,17.13 54,17 Z"/><path fill="#7C671F" stroke="none" d="M 54,20 C 54.13,19.73 54.87,19.73 55,20 C 55.13,20.27 55.13,21.73 55,22 C 54.87,22.27 54.13,22.27 54,22 C 53.87,21.73 53.87,20.27 54,20 Z"/><path fill="#7C671F" stroke="none" d="M 53,22 C 53.13,21.87 53.87,21.87 54,22 C 54.13,22.13 54.13,22.87 54,23 C 53.87,23.13 53.13,23.13 53,23 C 52.87,22.87 52.87,22.13 53,22 Z"/><path fill="#7C671F" stroke="none" d="M 53,24 C 53.13,23.73 53.87,23.73 54,24 C 54.13,24.27 54.13,25.73 54,26 C 53.87,26.27 53.13,26.27 53,26 C 52.87,25.73 52.87,24.27 53,24 Z"/><path fill="#7C671F" stroke="none" d="M 52,26 C 52.13,25.87 52.87,25.87 53,26 C 53.13,26.13 53.13,26.87 53,27 C 52.87,27.13 52.13,27.13 52,27 C 51.87,26.87 51.87,26.13 52,26 Z"/><path fill="#7C671F" stroke="none" d="M 52,30 C 52.13,29.73 52.87,29.73 53,30 C 53.13,30.27 53.13,31.73 53,32 C 52.87,32.27 52.13,32.27 52,32 C 51.87,31.73 51.87,30.27 52,30 Z"/><path fill="#7C671F" stroke="none" d="M 51,32 C 51.13,31.87 51.87,31.87 52,32 C 52.13,32.13 52.13,32.87 52,33 C 51.87,33.13 51.13,33.13 51,33 C 50.87,32.87 50.87,32.13 51,32 Z"/><path fill="#7C671F" stroke="none" d="M 51,36 C 51.13,35.73 51.87,35.73 52,36 C 52.13,36.27 52.13,37.73 52,38 C 51.87,38.27 51.13,38.27 51,38 C 50.87,37.73 50.87,36.27 51,36 Z"/><path fill="#7C671F" stroke="none" d="M 50,38 C 50.13,37.87 50.87,37.87 51,38 C 51.13,38.13 51.13,38.87 51,39 C 50.87,39.13 50.13,39.13 50,39 C 49.87,38.87 49.87,38.13 50,38 Z"/><path fill="#7C671F" stroke="none" d="M 50,42 C 50.13,41.73 50.87,41.73 51,42 C 51.13,42.27 51.13,43.73 51,44 C 50.87,44.27 50.13,44.27 50,44 C 49.87,43.73 49.87,42.27 50,42 Z"/><path fill="#7C671F" stroke="none" d="M 49,44 C 49.13,43.87 49.87,43.87 50,44 C 50.13,44.13 50.13,44.87 50,45 C 49.87,45.13 49.13,45.13 49,45 C 48.87,44.87 48.87,44.13 49,44 Z"/><path fill="#7C671F" stroke="none" d="M 49,48 C 49.13,47.73 49.87,47.73 50,48 C 50.13,48.27 50.13,49.73 50,50 C 49.87,50.27 49.13,50.27 49,50 C 48.87,49.73 48.87,48.27 49,48 Z"/><path fill="#7C671F" stroke="none" d="M 48,50 C 48.13,49.87 48.87,49.87 49,50 C 49.13,50.13 49.13,50.87 49,51 C 48.87,51.13 48.13,51.13 48,51 C 47.87,50.87 47.87,50.13 48,50 Z"/><path fill="#7C671F" stroke="none" d="M 48,53 C 48.13,52.73 48.87,52.73 49,53 C 49.13,53.27 49.13,54.73 49,55 C 48.87,55.27 48.13,55.27 48,55 C 47.87,54.73 47.87,53.27 48,53 Z"/><path fill="#7C671F" stroke="none" d="M 47,55 C 47.13,54.87 47.87,54.87 48,55 C 48.13,55.13 48.13,55.87 48,56 C 47.87,56.13 47.13,56.13 47,56 C 46.87,55.87 46.87,55.13 47,55 Z"/><path fill="#7C671F" stroke="none" d="M 46,56 C 46.13,55.73 46.87,55.73 47,56 C 47.13,56.27 47.13,57.73 47,58 C 46.87,58.27 46.13,58.27 46,58 C 45.87,57.73 45.87,56.27 46,56 Z"/><path fill="#7C671F" stroke="none" d="M 45,58 C 45.13,57.73 45.87,57.73 46,58 C 46.13,58.27 46.13,59.73 46,60 C 45.87,60.27 45.13,60.27 45,60 C 44.87,59.73 44.87,58.27 45,58 Z"/><path fill="#7C671F" stroke="none" d="M 44,60 C 44.13,59.87 44.87,59.87 45,60 C 45.13,60.13 45.13,60.87 45,61 C 44.87,61.13 44.13,61.13 44,61 C 43.87,60.87 43.87,60.13 44,60 Z"/><path fill="#7C671F" stroke="none" d="M 43,61 C 43.13,60.87 43.87,60.87 44,61 C 44.13,61.13 44.13,61.87 44,62 C 43.87,62.13 43.13,62.13 43,62 C 42.87,61.87 42.87,61.13 43,61 Z"/><path fill="#7C671F" stroke="none" d="M 42,62 C 42.13,61.73 42.87,61.73 43,62 C 43.13,62.27 43.13,63.73 43,64 C 42.87,64.27 42.13,64.27 42,64 C 41.87,63.73 41.87,62.27 42,62 Z"/><path fill="#7C671F" stroke="none" d="M 41,64 C 41.13,63.87 41.87,63.87 42,64 C 42.13,64.13 42.13,64.87 42,65 C 41.87,65.13 41.13,65.13 41,65 C 40.87,64.87 40.87,64.13 41,64 Z"/><path fill="#7C671F" stroke="none" d="M 25,65 C 25.13,64.87 25.87,64.87 26,65 C 26.13,65.13 26.13,65.87 26,66 C 25.87,66.13 25.13,66.13 25,66 C 24.87,65.87 24.87,65.13 25,65 Z"/><path fill="#7C671F" stroke="none" d="M 40,65 C 40.13,64.87 40.87,64.87 41,65 C 41.13,65.13 41.13,65.87 41,66 C 40.87,66.13 40.13,66.13 40,66 C 39.87,65.87 39.87,65.13 40,65 Z"/><path fill="#3F361D" stroke="none" d="M 55,15 C 55.13,14.87 55.87,14.87 56,15 C 56.13,15.13 56.13,15.87 56,16 C 55.87,16.13 55.13,16.13 55,16 C 54.87,15.87 54.87,15.13 55,15 Z"/><path fill="#3F361D" stroke="none" d="M 54,16 C 54.13,15.87 54.87,15.87 55,16 C 55.13,16.13 55.13,16.87 55,17 C 54.87,17.13 54.13,17.13 54,17 C 53.87,16.87 53.87,16.13 54,16 Z"/><path fill="#7C661E" stroke="none" d="M 28,16 C 28.13,15.87 28.87,15.87 29,16 C 29.13,16.13 29.13,16.87 29,17 C 28.87,17.13 28.13,17.13 28,17 C 27.87,16.87 27.87,16.13 28,16 Z"/><path fill="#7C661E" stroke="none" d="M 24,65 C 24.13,64.87 24.87,64.87 25,65 C 25.13,65.13 25.13,65.87 25,66 C 24.87,66.13 24.13,66.13 24,66 C 23.87,65.87 23.87,65.13 24,65 Z"/><path fill="#090C20" stroke="none" d="M 19,18 C 19.13,17.87 19.87,17.87 20,18 C 20.13,18.13 20.13,18.87 20,19 C 19.87,19.13 19.13,19.13 19,19 C 18.87,18.87 18.87,18.13 19,18 Z"/><path fill="#7C671E" stroke="none" d="M 54,18 C 54.13,17.73 54.87,17.73 55,18 C 55.13,18.27 55.13,19.73 55,20 C 54.87,20.27 54.13,20.27 54,20 C 53.87,19.73 53.87,18.27 54,18 Z"/><path fill="#7C671E" stroke="none" d="M 53,23 C 53.13,22.87 53.87,22.87 54,23 C 54.13,23.13 54.13,23.87 54,24 C 53.87,24.13 53.13,24.13 53,24 C 52.87,23.87 52.87,23.13 53,23 Z"/><path fill="#7C671E" stroke="none" d="M 52,27 C 52.13,26.60 52.87,26.60 53,27 C 53.13,27.40 53.13,29.60 53,30 C 52.87,30.40 52.13,30.40 52,30 C 51.87,29.60 51.87,27.40 52,27 Z"/><path fill="#7C671E" stroke="none" d="M 51,33 C 51.13,32.60 51.87,32.60 52,33 C 52.13,33.40 52.13,35.60 52,36 C 51.87,36.40 51.13,36.40 51,36 C 50.87,35.60 50.87,33.40 51,33 Z"/><path fill="#7C671E" stroke="none" d="M 50,39 C 50.13,38.60 50.87,38.60 51,39 C 51.13,39.40 51.13,41.60 51,42 C 50.87,42.40 50.13,42.40 50,42 C 49.87,41.60 49.87,39.40 50,39 Z"/><path fill="#7C671E" stroke="none" d="M 49,45 C 49.13,44.60 49.87,44.60 50,45 C 50.13,45.40 50.13,47.60 50,48 C 49.87,48.40 49.13,48.40 49,48 C 48.87,47.60 48.87,45.40 49,45 Z"/><path fill="#7C671E" stroke="none" d="M 48,51 C 48.13,50.73 48.87,50.73 49,51 C 49.13,51.27 49.13,52.73 49,53 C 48.87,53.27 48.13,53.27 48,53 C 47.87,52.73 47.87,51.27 48,51 Z"/><path fill="#7C671E" stroke="none" d="M 28,65 C 29.60,64.87 38.40,64.87 40,65 C 41.60,65.13 41.60,65.87 40,66 C 38.40,66.13 29.60,66.13 28,66 C 26.40,65.87 26.40,65.13 28,65 Z"/><path fill="#BBA765" stroke="none" d="M 10,19 C 10.13,18.87 10.87,18.87 11,19 C 11.13,19.13 11.13,19.87 11,20 C 10.87,20.13 10.13,20.13 10,20 C 9.87,19.87 9.87,19.13 10,19 Z"/><path fill="#595136" stroke="none" d="M 11,21 C 11.13,20.87 11.87,20.87 12,21 C 12.13,21.13 12.13,21.87 12,22 C 11.87,22.13 11.13,22.13 11,22 C 10.87,21.87 10.87,21.13 11,21 Z"/><path fill="#595136" stroke="none" d="M 12,25 C 12.13,24.87 12.87,24.87 13,25 C 13.13,25.13 13.13,25.87 13,26 C 12.87,26.13 12.13,26.13 12,26 C 11.87,25.87 11.87,25.13 12,25 Z"/><path fill="#595136" stroke="none" d="M 13,31 C 13.13,30.87 13.87,30.87 14,31 C 14.13,31.13 14.13,31.87 14,32 C 13.87,32.13 13.13,32.13 13,32 C 12.87,31.87 12.87,31.13 13,31 Z"/><path fill="#595136" stroke="none" d="M 14,37 C 14.13,36.87 14.87,36.87 15,37 C 15.13,37.13 15.13,37.87 15,38 C 14.87,38.13 14.13,38.13 14,38 C 13.87,37.87 13.87,37.13 14,37 Z"/><path fill="#595136" stroke="none" d="M 15,43 C 15.13,42.87 15.87,42.87 16,43 C 16.13,43.13 16.13,43.87 16,44 C 15.87,44.13 15.13,44.13 15,44 C 14.87,43.87 14.87,43.13 15,43 Z"/><path fill="#595136" stroke="none" d="M 16,49 C 16.13,48.87 16.87,48.87 17,49 C 17.13,49.13 17.13,49.87 17,50 C 16.87,50.13 16.13,50.13 16,50 C 15.87,49.87 15.87,49.13 16,49 Z"/><path fill="#595136" stroke="none" d="M 19,57 C 19.13,56.87 19.87,56.87 20,57 C 20.13,57.13 20.13,57.87 20,58 C 19.87,58.13 19.13,58.13 19,58 C 18.87,57.87 18.87,57.13 19,57 Z"/><path fill="#595136" stroke="none" d="M 20,59 C 20.13,58.87 20.87,58.87 21,59 C 21.13,59.13 21.13,59.87 21,60 C 20.87,60.13 20.13,60.13 20,60 C 19.87,59.87 19.87,59.13 20,59 Z"/><path fill="#000013" stroke="none" d="M 27,32 C 27.13,31.33 27.87,31.33 28,32 C 28.13,32.67 28.13,36.33 28,37 C 27.87,37.67 27.13,37.67 27,37 C 26.87,36.33 26.87,32.67 27,32 Z"/><path fill="#0D1230" stroke="none" d="M 29,34 C 29.93,33.73 35.07,33.73 36,34 C 36.93,34.27 36.13,35.73 36,36 C 35.87,36.27 35.13,35.87 35,36 C 34.87,36.13 35.27,36.87 35,37 C 34.73,37.13 33.27,36.87 33,37 C 32.73,37.13 33.13,37.87 33,38 C 32.87,38.13 32.13,38.13 32,38 C 31.87,37.87 32.27,37.13 32,37 C 31.73,36.87 30.27,37.13 30,37 C 29.73,36.87 30.13,36.13 30,36 C 29.87,35.87 29.13,36.27 29,36 C 28.87,35.73 28.07,34.27 29,34 Z"/><path fill="#5A5136" stroke="none" d="M 17,54 C 17.13,53.87 17.87,53.87 18,54 C 18.13,54.13 18.13,54.87 18,55 C 17.87,55.13 17.13,55.13 17,55 C 16.87,54.87 16.87,54.13 17,54 Z"/><path fill="#595135" stroke="none" d="M 18,55 C 18.13,54.87 18.87,54.87 19,55 C 19.13,55.13 19.13,55.87 19,56 C 18.87,56.13 18.13,56.13 18,56 C 17.87,55.87 17.87,55.13 18,55 Z"/><path fill="#3C3314" stroke="none" d="M 46,55 C 46.13,54.87 46.87,54.87 47,55 C 47.13,55.13 47.13,55.87 47,56 C 46.87,56.13 46.13,56.13 46,56 C 45.87,55.87 45.87,55.13 46,55 Z"/><path fill="#585034" stroke="none" d="M 23,63 C 23.13,62.87 23.87,62.87 24,63 C 24.13,63.13 24.13,63.87 24,64 C 23.87,64.13 23.13,64.13 23,64 C 22.87,63.87 22.87,63.13 23,63 Z"/><path fill="#B9A566" stroke="none" d="M 23,64 C 23.13,63.87 23.87,63.87 24,64 C 24.13,64.13 24.13,64.87 24,65 C 23.87,65.13 23.13,65.13 23,65 C 22.87,64.87 22.87,64.13 23,64 Z"/><path fill="#ECDDFF" stroke="none" d="M 25,64 C 25.13,63.87 25.87,63.87 26,64 C 26.13,64.13 26.13,64.87 26,65 C 25.87,65.13 25.13,65.13 25,65 C 24.87,64.87 24.87,64.13 25,64 Z"/><path fill="#B8A566" stroke="none" d="M 23,65 C 23.13,64.87 23.87,64.87 24,65 C 24.13,65.13 24.13,65.87 24,66 C 23.87,66.13 23.13,66.13 23,66 C 22.87,65.87 22.87,65.13 23,65 Z"/></g><g class="pb-outlines"><path class="pb-outline" fill="none" stroke="#1a1020" stroke-width="0.15" stroke-linejoin="round" stroke-linecap="round" d="M 19,6 C 20.07,5.87 25.93,5.87 27,6 C 28.07,6.13 28.07,6.87 27,7 C 25.93,7.13 20.07,7.13 19,7 C 17.93,6.87 17.93,6.13 19,6 Z"/><path class="pb-outline" fill="none" stroke="#1a1020" stroke-width="0.15" stroke-linejoin="round" stroke-linecap="round" d="M 38,6 C 39.07,5.60 44.93,5.87 46,6 C 47.07,6.13 46.93,6.87 46,7 C 45.07,7.13 39.93,6.73 39,7 C 38.07,7.27 39.13,8.73 39,9 C 38.87,9.27 38.13,9.40 38,9 C 37.87,8.60 36.93,6.40 38,6 Z"/><path class="pb-outline" fill="none" stroke="#1a1020" stroke-width="0.15" stroke-linejoin="round" stroke-linecap="round" d="M 0,7 C 1.33,6.07 8.67,6.87 10,7 C 11.33,7.13 11.20,7.87 10,8 C 8.80,8.13 2.20,7.33 1,8 C -0.20,8.67 0.87,12.33 1,13 C 1.13,13.67 1.87,12.87 2,13 C 2.13,13.13 2.27,13.87 2,14 C 1.73,14.13 0.27,14.93 0,14 C -0.27,13.07 -1.33,7.93 0,7 Z"/><path class="pb-outline" fill="none" stroke="#1a1020" stroke-width="0.15" stroke-linejoin="round" stroke-linecap="round" d="M 17,7 C 17.27,6.87 18.73,6.87 19,7 C 19.27,7.13 19.27,7.87 19,8 C 18.73,8.13 17.27,8.13 17,8 C 16.73,7.87 16.73,7.13 17,7 Z"/><path class="pb-outline" fill="none" stroke="#1a1020" stroke-width="0.15" stroke-linejoin="round" stroke-linecap="round" d="M 27,7 C 27.67,6.87 31.33,6.87 32,7 C 32.67,7.13 32.67,7.87 32,8 C 31.33,8.13 27.67,8.13 27,8 C 26.33,7.87 26.33,7.13 27,7 Z"/><path class="pb-outline" fill="none" stroke="#1a1020" stroke-width="0.15" stroke-linejoin="round" stroke-linecap="round" d="M 46,7 C 46.27,6.87 47.73,6.87 48,7 C 48.27,7.13 48.27,7.87 48,8 C 47.73,8.13 46.27,8.13 46,8 C 45.73,7.87 45.73,7.13 46,7 Z"/><path class="pb-outline" fill="none" stroke="#1a1020" stroke-width="0.15" stroke-linejoin="round" stroke-linecap="round" d="M 10,8 C 10.67,7.87 14.33,7.73 15,8 C 15.67,8.27 15.13,9.73 15,10 C 14.87,10.27 14.13,10.13 14,10 C 13.87,9.87 14.53,9.13 14,9 C 13.47,8.87 10.53,9.13 10,9 C 9.47,8.87 9.33,8.13 10,8 Z"/><path class="pb-outline" fill="none" stroke="#1a1020" stroke-width="0.15" stroke-linejoin="round" stroke-linecap="round" d="M 16,8 C 16.13,7.73 16.87,7.73 17,8 C 17.13,8.27 17.13,9.73 17,10 C 16.87,10.27 16.13,10.27 16,10 C 15.87,9.73 15.87,8.27 16,8 Z"/><path class="pb-outline" fill="none" stroke="#1a1020" stroke-width="0.15" stroke-linejoin="round" stroke-linecap="round" d="M 32,8 C 32.27,7.87 33.73,7.87 34,8 C 34.27,8.13 34.27,8.87 34,9 C 33.73,9.13 32.27,9.13 32,9 C 31.73,8.87 31.73,8.13 32,8 Z"/><path class="pb-outline" fill="none" stroke="#1a1020" stroke-width="0.15" stroke-linejoin="round" stroke-linecap="round" d="M 48,8 C 48.13,7.73 48.87,7.73 49,8 C 49.13,8.27 49.13,9.73 49,10 C 48.87,10.27 48.13,10.27 48,10 C 47.87,9.73 47.87,8.27 48,8 Z"/><path class="pb-outline" fill="none" stroke="#1a1020" stroke-width="0.15" stroke-linejoin="round" stroke-linecap="round" d="M 50,8 C 50.67,7.73 54.33,7.87 55,8 C 55.67,8.13 55.53,8.87 55,9 C 54.47,9.13 51.53,8.87 51,9 C 50.47,9.13 51.13,9.87 51,10 C 50.87,10.13 50.13,10.27 50,10 C 49.87,9.73 49.33,8.27 50,8 Z"/><path class="pb-outline" fill="none" stroke="#1a1020" stroke-width="0.15" stroke-linejoin="round" stroke-linecap="round" d="M 34,9 C 34.13,8.73 34.87,8.73 35,9 C 35.13,9.27 35.13,10.73 35,11 C 34.87,11.27 34.13,11.27 34,11 C 33.87,10.73 33.87,9.27 34,9 Z"/><path class="pb-outline" fill="none" stroke="#1a1020" stroke-width="0.15" stroke-linejoin="round" stroke-linecap="round" d="M 36,9 C 36.27,8.60 37.73,8.87 38,9 C 38.27,9.13 38.13,9.87 38,10 C 37.87,10.13 37.13,9.73 37,10 C 36.87,10.27 37.13,11.73 37,12 C 36.87,12.27 36.13,12.40 36,12 C 35.87,11.60 35.73,9.40 36,9 Z"/><path class="pb-outline" fill="none" stroke="#1a1020" stroke-width="0.15" stroke-linejoin="round" stroke-linecap="round" d="M 55,9 C 55.53,8.87 58.47,8.87 59,9 C 59.53,9.13 59.53,9.87 59,10 C 58.47,10.13 55.53,10.13 55,10 C 54.47,9.87 54.47,9.13 55,9 Z"/><path class="pb-outline" fill="none" stroke="#1a1020" stroke-width="0.15" stroke-linejoin="round" stroke-linecap="round" d="M 15,10 C 15.13,9.87 15.87,9.87 16,10 C 16.13,10.13 16.13,10.87 16,11 C 15.87,11.13 15.13,11.13 15,11 C 14.87,10.87 14.87,10.13 15,10 Z"/><path class="pb-outline" fill="none" stroke="#1a1020" stroke-width="0.15" stroke-linejoin="round" stroke-linecap="round" d="M 49,10 C 49.13,9.87 49.87,9.87 50,10 C 50.13,10.13 50.13,10.87 50,11 C 49.87,11.13 49.13,11.13 49,11 C 48.87,10.87 48.87,10.13 49,10 Z"/><path class="pb-outline" fill="none" stroke="#1a1020" stroke-width="0.15" stroke-linejoin="round" stroke-linecap="round" d="M 59,10 C 59.27,9.87 60.73,9.73 61,10 C 61.27,10.27 61.13,11.73 61,12 C 60.87,12.27 60.13,12.13 60,12 C 59.87,11.87 60.13,11.13 60,11 C 59.87,10.87 59.13,11.13 59,11 C 58.87,10.87 58.73,10.13 59,10 Z"/><path class="pb-outline" fill="none" stroke="#1a1020" stroke-width="0.15" stroke-linejoin="round" stroke-linecap="round" d="M 33,11 C 33.13,10.87 33.87,10.87 34,11 C 34.13,11.13 34.13,11.87 34,12 C 33.87,12.13 33.13,12.13 33,12 C 32.87,11.87 32.87,11.13 33,11 Z"/><path class="pb-outline" fill="none" stroke="#1a1020" stroke-width="0.15" stroke-linejoin="round" stroke-linecap="round" d="M 31,12 C 31.27,11.87 32.73,11.87 33,12 C 33.27,12.13 33.27,12.87 33,13 C 32.73,13.13 31.27,13.13 31,13 C 30.73,12.87 30.73,12.13 31,12 Z"/><path class="pb-outline" fill="none" stroke="#1a1020" stroke-width="0.15" stroke-linejoin="round" stroke-linecap="round" d="M 37,12 C 37.13,11.47 37.87,11.47 38,12 C 38.13,12.53 38.13,15.47 38,16 C 37.87,16.53 37.13,16.53 37,16 C 36.87,15.47 36.87,12.53 37,12 Z"/><path class="pb-outline" fill="none" stroke="#1a1020" stroke-width="0.15" stroke-linejoin="round" stroke-linecap="round" d="M 61,12 C 61.13,11.87 61.87,11.73 62,12 C 62.13,12.27 62.27,13.73 62,14 C 61.73,14.27 60.27,14.13 60,14 C 59.73,13.87 59.87,13.13 60,13 C 60.13,12.87 60.87,13.13 61,13 C 61.13,12.87 60.87,12.13 61,12 Z"/><path class="pb-outline" fill="none" stroke="#1a1020" stroke-width="0.15" stroke-linejoin="round" stroke-linecap="round" d="M 29,13 C 29.27,12.87 30.73,12.87 31,13 C 31.27,13.13 31.27,13.87 31,14 C 30.73,14.13 29.27,14.13 29,14 C 28.73,13.87 28.73,13.13 29,13 Z"/><path class="pb-outline" fill="none" stroke="#1a1020" stroke-width="0.15" stroke-linejoin="round" stroke-linecap="round" d="M 2,14 C 2.13,13.73 2.87,13.73 3,14 C 3.13,14.27 3.13,15.73 3,16 C 2.87,16.27 2.13,16.27 2,16 C 1.87,15.73 1.87,14.27 2,14 Z"/><path class="pb-outline" fill="none" stroke="#1a1020" stroke-width="0.15" stroke-linejoin="round" stroke-linecap="round" d="M 28,14 C 28.13,13.47 28.87,13.47 29,14 C 29.13,14.53 29.13,17.47 29,18 C 28.87,18.53 28.13,18.53 28,18 C 27.87,17.47 27.87,14.53 28,14 Z"/><path class="pb-outline" fill="none" stroke="#1a1020" stroke-width="0.15" stroke-linejoin="round" stroke-linecap="round" d="M 58,14 C 58.27,13.87 59.73,13.87 60,14 C 60.27,14.13 60.27,14.87 60,15 C 59.73,15.13 58.27,15.13 58,15 C 57.73,14.87 57.73,14.13 58,14 Z"/><path class="pb-outline" fill="none" stroke="#1a1020" stroke-width="0.15" stroke-linejoin="round" stroke-linecap="round" d="M 56,15 C 56.27,14.87 57.73,14.87 58,15 C 58.27,15.13 58.27,15.87 58,16 C 57.73,16.13 56.27,16.13 56,16 C 55.73,15.87 55.73,15.13 56,15 Z"/><path class="pb-outline" fill="none" stroke="#1a1020" stroke-width="0.15" stroke-linejoin="round" stroke-linecap="round" d="M 3,16 C 3.13,15.87 3.87,15.87 4,16 C 4.13,16.13 4.13,16.87 4,17 C 3.87,17.13 3.13,17.13 3,17 C 2.87,16.87 2.87,16.13 3,16 Z"/><path class="pb-outline" fill="none" stroke="#1a1020" stroke-width="0.15" stroke-linejoin="round" stroke-linecap="round" d="M 36,16 C 36.13,15.73 36.87,15.73 37,16 C 37.13,16.27 37.13,17.73 37,18 C 36.87,18.27 36.13,18.27 36,18 C 35.87,17.73 35.87,16.27 36,16 Z"/><path class="pb-outline" fill="none" stroke="#1a1020" stroke-width="0.15" stroke-linejoin="round" stroke-linecap="round" d="M 55,16 C 55.13,15.87 55.87,15.87 56,16 C 56.13,16.13 56.13,16.87 56,17 C 55.87,17.13 55.13,17.13 55,17 C 54.87,16.87 54.87,16.13 55,16 Z"/><path class="pb-outline" fill="none" stroke="#1a1020" stroke-width="0.15" stroke-linejoin="round" stroke-linecap="round" d="M 4,17 C 4.13,16.87 4.87,16.87 5,17 C 5.13,17.13 5.13,17.87 5,18 C 4.87,18.13 4.13,18.13 4,18 C 3.87,17.87 3.87,17.13 4,17 Z"/><path class="pb-outline" fill="none" stroke="#1a1020" stroke-width="0.15" stroke-linejoin="round" stroke-linecap="round" d="M 54,17 C 54.13,16.47 54.87,16.33 55,17 C 55.13,17.67 55.13,21.33 55,22 C 54.87,22.67 54.13,21.47 54,22 C 53.87,22.53 54.13,25.47 54,26 C 53.87,26.53 53.13,25.20 53,26 C 52.87,26.80 53.13,31.20 53,32 C 52.87,32.80 52.13,31.20 52,32 C 51.87,32.80 52.13,37.20 52,38 C 51.87,38.80 51.13,37.20 51,38 C 50.87,38.80 51.13,43.20 51,44 C 50.87,44.80 50.13,43.20 50,44 C 49.87,44.80 50.13,49.20 50,50 C 49.87,50.80 49.13,49.33 49,50 C 48.87,50.67 49.13,54.33 49,55 C 48.87,55.67 48.13,54.87 48,55 C 47.87,55.13 48.13,55.87 48,56 C 47.87,56.13 47.13,55.73 47,56 C 46.87,56.27 47.13,57.73 47,58 C 46.87,58.27 46.13,57.73 46,58 C 45.87,58.27 46.13,59.73 46,60 C 45.87,60.27 45.13,59.73 45,60 C 44.87,60.27 45.27,61.73 45,62 C 44.73,62.27 43.27,62.13 43,62 C 42.73,61.87 42.87,61.13 43,61 C 43.13,60.87 43.87,61.27 44,61 C 44.13,60.73 43.87,59.27 44,59 C 44.13,58.73 44.87,59.27 45,59 C 45.13,58.73 44.87,57.27 45,57 C 45.13,56.73 45.87,57.27 46,57 C 46.13,56.73 45.87,55.27 46,55 C 46.13,54.73 46.87,55.13 47,55 C 47.13,54.87 46.87,54.13 47,54 C 47.13,53.87 47.87,54.67 48,54 C 48.13,53.33 47.87,49.67 48,49 C 48.13,48.33 48.87,49.80 49,49 C 49.13,48.20 48.87,43.80 49,43 C 49.13,42.20 49.87,43.80 50,43 C 50.13,42.20 49.87,37.80 50,37 C 50.13,36.20 50.87,37.80 51,37 C 51.13,36.20 50.87,31.80 51,31 C 51.13,30.20 51.87,31.80 52,31 C 52.13,30.20 51.87,25.80 52,25 C 52.13,24.20 52.87,25.53 53,25 C 53.13,24.47 52.87,21.53 53,21 C 53.13,20.47 53.87,21.53 54,21 C 54.13,20.47 53.87,17.53 54,17 Z"/><path class="pb-outline" fill="none" stroke="#1a1020" stroke-width="0.15" stroke-linejoin="round" stroke-linecap="round" d="M 5,18 C 5.67,17.87 9.33,17.87 10,18 C 10.67,18.13 10.67,18.87 10,19 C 9.33,19.13 5.67,19.13 5,19 C 4.33,18.87 4.33,18.13 5,18 Z"/><path class="pb-outline" fill="none" stroke="#1a1020" stroke-width="0.15" stroke-linejoin="round" stroke-linecap="round" d="M 29,18 C 29.93,17.87 35.07,17.87 36,18 C 36.93,18.13 36.93,18.87 36,19 C 35.07,19.13 29.93,19.13 29,19 C 28.07,18.87 28.07,18.13 29,18 Z"/><path class="pb-outline" fill="none" stroke="#1a1020" stroke-width="0.15" stroke-linejoin="round" stroke-linecap="round" d="M 10,19 C 10.13,18.60 10.87,18.73 11,19 C 11.13,19.27 10.87,20.73 11,21 C 11.13,21.27 11.87,20.47 12,21 C 12.13,21.53 11.87,24.47 12,25 C 12.13,25.53 12.87,24.20 13,25 C 13.13,25.80 12.87,30.20 13,31 C 13.13,31.80 13.87,30.20 14,31 C 14.13,31.80 13.87,36.20 14,37 C 14.13,37.80 14.87,36.20 15,37 C 15.13,37.80 14.87,42.20 15,43 C 15.13,43.80 15.87,42.20 16,43 C 16.13,43.80 15.87,48.20 16,49 C 16.13,49.80 16.87,48.33 17,49 C 17.13,49.67 16.87,53.33 17,54 C 17.13,54.67 17.87,53.87 18,54 C 18.13,54.13 17.87,54.87 18,55 C 18.13,55.13 18.87,54.73 19,55 C 19.13,55.27 18.87,56.73 19,57 C 19.13,57.27 19.87,56.73 20,57 C 20.13,57.27 19.87,58.73 20,59 C 20.13,59.27 20.87,58.73 21,59 C 21.13,59.27 20.87,60.73 21,61 C 21.13,61.27 21.87,60.87 22,61 C 22.13,61.13 22.27,61.87 22,62 C 21.73,62.13 20.27,62.27 20,62 C 19.73,61.73 20.13,60.27 20,60 C 19.87,59.73 19.13,60.27 19,60 C 18.87,59.73 19.13,58.27 19,58 C 18.87,57.73 18.13,58.27 18,58 C 17.87,57.73 18.13,56.27 18,56 C 17.87,55.73 17.13,56.13 17,56 C 16.87,55.87 17.13,55.13 17,55 C 16.87,54.87 16.13,55.67 16,55 C 15.87,54.33 16.13,50.67 16,50 C 15.87,49.33 15.13,50.80 15,50 C 14.87,49.20 15.13,44.80 15,44 C 14.87,43.20 14.13,44.80 14,44 C 13.87,43.20 14.13,38.80 14,38 C 13.87,37.20 13.13,38.80 13,38 C 12.87,37.20 13.13,32.80 13,32 C 12.87,31.20 12.13,32.80 12,32 C 11.87,31.20 12.13,26.80 12,26 C 11.87,25.20 11.13,26.53 11,26 C 10.87,25.47 11.13,22.53 11,22 C 10.87,21.47 10.13,22.40 10,22 C 9.87,21.60 9.87,19.40 10,19 Z"/><path class="pb-outline" fill="none" stroke="#1a1020" stroke-width="0.15" stroke-linejoin="round" stroke-linecap="round" d="M 22,62 C 22.13,61.73 22.87,61.87 23,62 C 23.13,62.13 22.87,62.87 23,63 C 23.13,63.13 23.87,62.73 24,63 C 24.13,63.27 21.73,64.73 24,65 C 26.27,65.27 38.73,65.27 41,65 C 43.27,64.73 40.87,63.27 41,63 C 41.13,62.73 41.87,63.13 42,63 C 42.13,62.87 41.87,62.13 42,62 C 42.13,61.87 42.87,61.73 43,62 C 43.13,62.27 43.13,63.73 43,64 C 42.87,64.27 42.13,63.73 42,64 C 41.87,64.27 44.53,65.73 42,66 C 39.47,66.27 25.53,66.27 23,66 C 20.47,65.73 23.13,64.27 23,64 C 22.87,63.73 22.13,64.27 22,64 C 21.87,63.73 21.87,62.27 22,62 Z"/></g></svg>