<svg xmlns="http://www.w3.org/2000/svg" viewBox="0 0 64 80" width="512" height="640" class="pb-character school-void"><filter id="pb-shader-ink-shadow" x="-35%" y="-35%" width="170%" height="170%" color-interpolation-filters="sRGB"><feDropShadow dx="0.1125" dy="0.1500" stdDeviation="0.0813" flood-color="#05060a" flood-opacity="0.72"/></filter><filter id="pb-shader-ice-glow" x="-80%" y="-80%" width="260%" height="260%" color-interpolation-filters="sRGB"><feGaussianBlur in="SourceAlpha" stdDeviation="0.1688" result="blur"/><feFlood flood-color="#42d9ff" flood-opacity="0.72" result="glowColor"/><feComposite in="glowColor" in2="blur" operator="in" result="glow"/><feMerge><feMergeNode in="glow"/><feMergeNode in="SourceGraphic"/></feMerge></filter><filter id="pb-shader-crystal-rim" x="-45%" y="-45%" width="190%" height="190%" color-interpolation-filters="sRGB"><feTurbulence type="fractalNoise" baseFrequency="7.2000" numOctaves="2" seed="14" result="noise"/><feColorMatrix in="noise" type="matrix" values="0 0 0 0 0.82 0 0 0 0 0.96 0 0 0 0 1 0 0 0 0.38 0" result="spark"/><feBlend in="SourceGraphic" in2="spark" mode="screen"/></filter><filter id="pb-shader-melt-field" x="-50%" y="-20%" width="200%" height="160%" color-interpolation-filters="sRGB"><feTurbulence type="fractalNoise" baseFrequency="0.3600 1.4400" numOctaves="2" seed="26" result="meltNoise"/><feDisplacementMap in="SourceGraphic" in2="meltNoise" scale="0.2062" xChannelSelector="R" yChannelSelector="G"/></filter><g class="pb-fills"><path class="pb-part-left_pauldron" fill="#5C4A18" d="M 11,6 C 11.67,5.87 15.33,5.60 16,6 C 16.67,6.40 15.87,8.60 16,9 C 16.13,9.40 16.87,9.40 17,9 C 17.13,8.60 16.47,6.40 17,6 C 17.53,5.60 20.47,5.87 21,6 C 21.53,6.13 20.47,6.87 21,7 C 21.53,7.13 24.47,6.87 25,7 C 25.53,7.13 24.73,7.87 25,8 C 25.27,8.13 26.73,7.87 27,8 C 27.27,8.13 26.87,8.87 27,9 C 27.13,9.13 27.87,8.87 28,9 C 28.13,9.13 27.87,9.87 28,10 C 28.13,10.13 28.87,9.73 29,10 C 29.13,10.27 29.53,11.73 29,12 C 28.47,12.27 25.53,11.87 25,12 C 24.47,12.13 25.27,12.87 25,13 C 24.73,13.13 23.27,12.87 23,13 C 22.73,13.13 23.40,13.87 23,14 C 22.60,14.13 20.40,13.87 20,14 C 19.60,14.13 21.20,14.87 20,15 C 18.80,15.13 12.20,15.13 11,15 C 9.80,14.87 11.40,14.13 11,14 C 10.60,13.87 8.40,14.13 8,14 C 7.60,13.87 8.27,13.13 8,13 C 7.73,12.87 6.27,13.13 6,13 C 5.73,12.87 6.27,12.13 6,12 C 5.73,11.87 4.27,12.27 4,12 C 3.73,11.73 3.87,10.27 4,10 C 4.13,9.73 4.87,10.27 5,10 C 5.13,9.73 4.73,8.27 5,8 C 5.27,7.73 6.73,8.13 7,8 C 7.27,7.87 6.47,7.13 7,7 C 7.53,6.87 10.47,7.13 11,7 C 11.53,6.87 10.33,6.13 11,6 Z"/><path class="pb-part-left_pauldron" fill="#5C4A18" d="M 43,6 C 43.53,5.87 46.47,5.60 47,6 C 47.53,6.40 46.87,8.60 47,9 C 47.13,9.40 47.87,9.40 48,9 C 48.13,8.60 47.33,6.40 48,6 C 48.67,5.60 52.33,5.87 53,6 C 53.67,6.13 52.47,6.87 53,7 C 53.53,7.13 56.47,6.87 57,7 C 57.53,7.13 56.73,7.87 57,8 C 57.27,8.13 58.73,7.73 59,8 C 59.27,8.27 58.87,9.73 59,10 C 59.13,10.27 59.87,9.73 60,10 C 60.13,10.27 60.27,11.73 60,12 C 59.73,12.27 58.27,11.87 58,12 C 57.73,12.13 58.27,12.87 58,13 C 57.73,13.13 56.27,12.87 56,13 C 55.73,13.13 56.40,13.87 56,14 C 55.60,14.13 53.40,13.87 53,14 C 52.60,14.13 54.20,14.87 53,15 C 51.80,15.13 45.20,15.13 44,15 C 42.80,14.87 44.40,14.13 44,14 C 43.60,13.87 41.40,14.13 41,14 C 40.60,13.87 41.27,13.13 41,13 C 40.73,12.87 39.27,13.13 39,13 C 38.73,12.87 39.53,12.13 39,12 C 38.47,11.87 35.53,12.27 35,12 C 34.47,11.73 34.87,10.27 35,10 C 35.13,9.73 35.87,10.13 36,10 C 36.13,9.87 35.87,9.13 36,9 C 36.13,8.87 36.87,9.13 37,9 C 37.13,8.87 36.73,8.13 37,8 C 37.27,7.87 38.73,8.13 39,8 C 39.27,7.87 38.47,7.13 39,7 C 39.53,6.87 42.47,7.13 43,7 C 43.53,6.87 42.47,6.13 43,6 Z"/><path class="pb-part-body" fill="#000004" d="M 16,8 C 16.13,7.87 16.87,7.87 17,8 C 17.13,8.13 17.13,8.87 17,9 C 16.87,9.13 16.13,9.13 16,9 C 15.87,8.87 15.87,8.13 16,8 Z"/><path class="pb-part-body" fill="#000004" d="M 47,8 C 47.13,7.87 47.87,7.87 48,8 C 48.13,8.13 48.13,8.87 48,9 C 47.87,9.13 47.13,9.13 47,9 C 46.87,8.87 46.87,8.13 47,8 Z"/><path class="pb-part-body" fill="#000004" d="M 25,12 C 25.27,11.87 26.73,11.87 27,12 C 27.27,12.13 26.87,12.87 27,13 C 27.13,13.13 27.87,12.73 28,13 C 28.13,13.27 26.93,14.73 28,15 C 29.07,15.27 34.93,15.27 36,15 C 37.07,14.73 35.87,13.27 36,13 C 36.13,12.73 36.87,13.13 37,13 C 37.13,12.87 36.73,12.13 37,12 C 37.27,11.87 38.73,11.87 39,12 C 39.27,12.13 38.73,12.87 39,13 C 39.27,13.13 40.73,12.87 41,13 C 41.27,13.13 40.60,13.87 41,14 C 41.40,14.13 43.60,13.87 44,14 C 44.40,14.13 42.80,14.87 44,15 C 45.20,15.13 51.80,15.13 53,15 C 54.20,14.87 52.73,14.13 53,14 C 53.27,13.87 54.73,13.87 55,14 C 55.27,14.13 55.13,14.87 55,15 C 54.87,15.13 54.13,14.33 54,15 C 53.87,15.67 54.13,19.33 54,20 C 53.87,20.67 53.13,19.47 53,20 C 52.87,20.53 53.40,23.47 53,24 C 52.60,24.53 50.40,24.13 50,24 C 49.60,23.87 50.27,23.13 50,23 C 49.73,22.87 48.27,23.13 48,23 C 47.73,22.87 49.47,22.13 48,22 C 46.53,21.87 38.47,21.60 37,22 C 35.53,22.40 37.40,24.60 37,25 C 36.60,25.40 34.40,25.13 34,25 C 33.60,24.87 34.13,24.13 34,24 C 33.87,23.87 33.13,24.13 33,24 C 32.87,23.87 33.27,23.13 33,23 C 32.73,22.87 31.27,22.87 31,23 C 30.73,23.13 31.13,23.87 31,24 C 30.87,24.13 30.13,23.87 30,24 C 29.87,24.13 30.40,24.87 30,25 C 29.60,25.13 27.40,25.40 27,25 C 26.60,24.60 28.47,22.40 27,22 C 25.53,21.60 17.47,21.87 16,22 C 14.53,22.13 16.27,22.87 16,23 C 15.73,23.13 14.27,22.87 14,23 C 13.73,23.13 14.40,23.87 14,24 C 13.60,24.13 11.40,24.53 11,24 C 10.60,23.47 11.13,20.53 11,20 C 10.87,19.47 10.13,20.67 10,20 C 9.87,19.33 10.13,15.67 10,15 C 9.87,14.33 9.13,15.13 9,15 C 8.87,14.87 8.73,14.13 9,14 C 9.27,13.87 10.73,13.87 11,14 C 11.27,14.13 9.80,14.87 11,15 C 12.20,15.13 18.80,15.13 20,15 C 21.20,14.87 19.60,14.13 20,14 C 20.40,13.87 22.60,14.13 23,14 C 23.40,13.87 22.73,13.13 23,13 C 23.27,12.87 24.73,13.13 25,13 C 25.27,12.87 24.73,12.13 25,12 Z"/><path class="pb-part-body" fill="#000004" d="M 12,26 C 12.27,25.33 13.73,25.87 14,26 C 14.27,26.13 13.87,26.87 14,27 C 14.13,27.13 14.87,26.87 15,27 C 15.13,27.13 14.73,27.87 15,28 C 15.27,28.13 16.73,27.87 17,28 C 17.27,28.13 16.73,28.87 17,29 C 17.27,29.13 18.73,28.73 19,29 C 19.27,29.27 18.87,30.73 19,31 C 19.13,31.27 19.87,30.87 20,31 C 20.13,31.13 19.87,31.87 20,32 C 20.13,32.13 20.87,31.87 21,32 C 21.13,32.13 20.87,32.87 21,33 C 21.13,33.13 21.87,32.73 22,33 C 22.13,33.27 22.27,34.73 22,35 C 21.73,35.27 20.27,34.73 20,35 C 19.73,35.27 19.87,36.73 20,37 C 20.13,37.27 20.87,36.87 21,37 C 21.13,37.13 20.87,37.87 21,38 C 21.13,38.13 21.87,37.20 22,38 C 22.13,38.80 21.87,43.20 22,44 C 22.13,44.80 22.87,44.53 23,44 C 23.13,43.47 22.87,40.53 23,40 C 23.13,39.47 23.87,39.87 24,40 C 24.13,40.13 23.87,40.87 24,41 C 24.13,41.13 24.87,40.87 25,41 C 25.13,41.13 24.73,41.87 25,42 C 25.27,42.13 26.73,41.87 27,42 C 27.27,42.13 27.13,42.87 27,43 C 26.87,43.13 26.13,42.87 26,43 C 25.87,43.13 25.87,43.87 26,44 C 26.13,44.13 26.87,44.13 27,44 C 27.13,43.87 26.73,43.13 27,43 C 27.27,42.87 28.73,42.87 29,43 C 29.27,43.13 28.73,43.87 29,44 C 29.27,44.13 30.73,43.87 31,44 C 31.27,44.13 30.73,44.87 31,45 C 31.27,45.13 32.73,45.13 33,45 C 33.27,44.87 32.73,44.13 33,44 C 33.27,43.87 34.73,44.13 35,44 C 35.27,43.87 34.73,43.13 35,43 C 35.27,42.87 36.73,43.13 37,43 C 37.27,42.87 36.73,42.13 37,42 C 37.27,41.87 38.73,42.13 39,42 C 39.27,41.87 38.87,41.13 39,41 C 39.13,40.87 39.87,41.13 40,41 C 40.13,40.87 39.87,40.13 40,40 C 40.13,39.87 40.87,39.47 41,40 C 41.13,40.53 40.87,43.47 41,44 C 41.13,44.53 41.87,44.80 42,44 C 42.13,43.20 41.87,38.80 42,38 C 42.13,37.20 42.87,38.13 43,38 C 43.13,37.87 42.87,37.13 43,37 C 43.13,36.87 43.87,37.27 44,37 C 44.13,36.73 44.27,35.27 44,35 C 43.73,34.73 42.27,35.27 42,35 C 41.73,34.73 41.87,33.27 42,33 C 42.13,32.73 42.87,33.13 43,33 C 43.13,32.87 42.87,32.13 43,32 C 43.13,31.87 43.87,32.13 44,32 C 44.13,31.87 43.87,31.13 44,31 C 44.13,30.87 44.87,31.27 45,31 C 45.13,30.73 44.73,29.27 45,29 C 45.27,28.73 46.73,29.13 47,29 C 47.27,28.87 46.73,28.13 47,28 C 47.27,27.87 48.73,28.13 49,28 C 49.27,27.87 48.87,27.13 49,27 C 49.13,26.87 49.87,27.13 50,27 C 50.13,26.87 49.73,26.13 50,26 C 50.27,25.87 51.73,25.33 52,26 C 52.27,26.67 52.13,30.33 52,31 C 51.87,31.67 51.13,30.20 51,31 C 50.87,31.80 51.13,36.20 51,37 C 50.87,37.80 50.13,36.07 50,37 C 49.87,37.93 50.13,43.07 50,44 C 49.87,44.93 49.13,43.20 49,44 C 48.87,44.80 49.13,49.20 49,50 C 48.87,50.80 48.13,49.33 48,50 C 47.87,50.67 48.13,54.33 48,55 C 47.87,55.67 47.13,54.87 47,55 C 46.87,55.13 47.13,55.87 47,56 C 46.87,56.13 46.13,55.87 46,56 C 45.87,56.13 46.13,56.87 46,57 C 45.87,57.13 45.13,56.73 45,57 C 44.87,57.27 45.13,58.73 45,59 C 44.87,59.27 44.13,58.60 44,59 C 43.87,59.40 44.27,61.60 44,62 C 43.73,62.40 42.27,61.73 42,62 C 41.73,62.27 42.13,63.73 42,64 C 41.87,64.27 41.13,63.73 41,64 C 40.87,64.27 43.40,65.73 41,66 C 38.60,66.27 25.40,66.27 23,66 C 20.60,65.73 23.13,64.27 23,64 C 22.87,63.73 22.13,64.27 22,64 C 21.87,63.73 22.27,62.27 22,62 C 21.73,61.73 20.27,62.40 20,62 C 19.73,61.60 20.13,59.40 20,59 C 19.87,58.60 19.13,59.27 19,59 C 18.87,58.73 19.13,57.27 19,57 C 18.87,56.73 18.13,57.13 18,57 C 17.87,56.87 18.13,56.13 18,56 C 17.87,55.87 17.13,56.13 17,56 C 16.87,55.87 17.13,55.13 17,55 C 16.87,54.87 16.13,55.67 16,55 C 15.87,54.33 16.13,50.67 16,50 C 15.87,49.33 15.13,50.80 15,50 C 14.87,49.20 15.13,44.80 15,44 C 14.87,43.20 14.13,44.93 14,44 C 13.87,43.07 14.13,37.93 14,37 C 13.87,36.07 13.13,37.80 13,37 C 12.87,36.20 13.13,31.80 13,31 C 12.87,30.20 12.13,31.67 12,31 C 11.87,30.33 11.73,26.67 12,26 Z"/><path class="pb-part-body" fill="#000004" d="M 18,35 C 18.13,34.87 18.87,34.87 19,35 C 19.13,35.13 19.13,35.87 19,36 C 18.87,36.13 18.13,36.13 18,36 C 17.87,35.87 17.87,35.13 18,35 Z"/><path class="pb-part-body" fill="#000004" d="M 45,35 C 45.13,34.87 45.87,34.87 46,35 C 46.13,35.13 46.13,35.87 46,36 C 45.87,36.13 45.13,36.13 45,36 C 44.87,35.87 44.87,35.13 45,35 Z"/><path class="pb-part-body" fill="#000004" d="M 18,43 C 18.13,42.87 18.87,42.87 19,43 C 19.13,43.13 19.13,43.87 19,44 C 18.87,44.13 18.13,44.13 18,44 C 17.87,43.87 17.87,43.13 18,43 Z"/><path class="pb-part-body" fill="#000004" d="M 20,43 C 20.13,42.87 20.87,42.87 21,43 C 21.13,43.13 21.13,43.87 21,44 C 20.87,44.13 20.13,44.13 20,44 C 19.87,43.87 19.87,43.13 20,43 Z"/><path class="pb-part-body" fill="#000004" d="M 24,43 C 24.13,42.87 24.87,42.87 25,43 C 25.13,43.13 25.13,43.87 25,44 C 24.87,44.13 24.13,44.13 24,44 C 23.87,43.87 23.87,43.13 24,43 Z"/><path class="pb-part-body" fill="#000004" d="M 37,43 C 37.13,42.87 37.87,42.87 38,43 C 38.13,43.13 38.13,43.87 38,44 C 37.87,44.13 37.13,44.13 37,44 C 36.87,43.87 36.87,43.13 37,43 Z"/><path class="pb-part-body" fill="#000004" d="M 39,43 C 39.13,42.87 39.87,42.87 40,43 C 40.13,43.13 40.13,43.87 40,44 C 39.87,44.13 39.13,44.13 39,44 C 38.87,43.87 38.87,43.13 39,43 Z"/><path class="pb-part-body" fill="#000004" d="M 43,43 C 43.13,42.87 43.87,42.87 44,43 C 44.13,43.13 44.13,43.87 44,44 C 43.87,44.13 43.13,44.13 43,44 C 42.87,43.87 42.87,43.13 43,43 Z"/><path class="pb-part-body" fill="#000004" d="M 45,43 C 45.13,42.87 45.87,42.87 46,43 C 46.13,43.13 46.13,43.87 46,44 C 45.87,44.13 45.13,44.13 45,44 C 44.87,43.87 44.87,43.13 45,43 Z"/><path class="pb-part-body" fill="#000004" d="M 29,47 C 29.80,46.73 34.20,46.73 35,47 C 35.80,47.27 35.13,48.73 35,49 C 34.87,49.27 34.13,48.73 34,49 C 33.87,49.27 34.13,50.73 34,51 C 33.87,51.27 33.13,50.73 33,51 C 32.87,51.27 33.27,52.73 33,53 C 32.73,53.27 31.27,53.27 31,53 C 30.73,52.73 31.13,51.27 31,51 C 30.87,50.73 30.13,51.27 30,51 C 29.87,50.73 30.13,49.27 30,49 C 29.87,48.73 29.13,49.27 29,49 C 28.87,48.73 28.20,47.27 29,47 Z"/><path class="pb-part-mantle" fill="#020111" filter="url(#pb-shader-crystal-rim)" d="M 16,22 C 17.47,21.87 25.53,21.60 27,22 C 28.47,22.40 26.73,24.60 27,25 C 27.27,25.40 28.73,24.73 29,25 C 29.27,25.27 29.13,26.73 29,27 C 28.87,27.27 28.13,26.73 28,27 C 27.87,27.27 28.13,28.73 28,29 C 27.87,29.27 27.13,28.47 27,29 C 26.87,29.53 27.40,32.47 27,33 C 26.60,33.53 24.40,32.87 24,33 C 23.60,33.13 24.27,33.87 24,34 C 23.73,34.13 22.27,34.13 22,34 C 21.73,33.87 22.13,33.13 22,33 C 21.87,32.87 21.13,33.13 21,33 C 20.87,32.87 21.13,32.13 21,32 C 20.87,31.87 20.13,32.13 20,32 C 19.87,31.87 20.13,31.13 20,31 C 19.87,30.87 19.13,31.27 19,31 C 18.87,30.73 19.27,29.27 19,29 C 18.73,28.73 17.27,29.13 17,29 C 16.73,28.87 17.27,28.13 17,28 C 16.73,27.87 15.27,28.13 15,28 C 14.73,27.87 15.13,27.13 15,27 C 14.87,26.87 14.13,27.13 14,27 C 13.87,26.87 14.27,26.13 14,26 C 13.73,25.87 12.27,26.27 12,26 C 11.73,25.73 11.73,24.27 12,24 C 12.27,23.73 13.73,24.13 14,24 C 14.27,23.87 13.73,23.13 14,23 C 14.27,22.87 15.73,23.13 16,23 C 16.27,22.87 14.53,22.13 16,22 Z"/><path class="pb-part-mantle" fill="#020111" filter="url(#pb-shader-crystal-rim)" d="M 37,22 C 38.47,21.60 46.53,21.87 48,22 C 49.47,22.13 47.73,22.87 48,23 C 48.27,23.13 49.73,22.87 50,23 C 50.27,23.13 49.73,23.87 50,24 C 50.27,24.13 51.73,23.73 52,24 C 52.27,24.27 52.27,25.73 52,26 C 51.73,26.27 50.27,25.87 50,26 C 49.73,26.13 50.13,26.87 50,27 C 49.87,27.13 49.13,26.87 49,27 C 48.87,27.13 49.27,27.87 49,28 C 48.73,28.13 47.27,27.87 47,28 C 46.73,28.13 47.27,28.87 47,29 C 46.73,29.13 45.27,28.73 45,29 C 44.73,29.27 45.13,30.73 45,31 C 44.87,31.27 44.13,30.87 44,31 C 43.87,31.13 44.13,31.87 44,32 C 43.87,32.13 43.13,31.87 43,32 C 42.87,32.13 43.13,32.87 43,33 C 42.87,33.13 42.13,32.87 42,33 C 41.87,33.13 42.27,33.87 42,34 C 41.73,34.13 40.27,34.13 40,34 C 39.73,33.87 40.40,33.13 40,33 C 39.60,32.87 37.40,33.53 37,33 C 36.60,32.47 37.13,29.53 37,29 C 36.87,28.47 36.13,29.27 36,29 C 35.87,28.73 36.13,27.27 36,27 C 35.87,26.73 35.13,27.27 35,27 C 34.87,26.73 34.73,25.27 35,25 C 35.27,24.73 36.73,25.40 37,25 C 37.27,24.60 35.53,22.40 37,22 Z"/><path class="pb-part-collar" fill="#000004" d="M 18,4 C 19.20,3.87 25.80,3.60 27,4 C 28.20,4.40 26.73,6.60 27,7 C 27.27,7.40 28.73,6.60 29,7 C 29.27,7.40 29.13,9.60 29,10 C 28.87,10.40 28.13,10.13 28,10 C 27.87,9.87 28.13,9.13 28,9 C 27.87,8.87 27.13,9.13 27,9 C 26.87,8.87 27.27,8.13 27,8 C 26.73,7.87 25.27,8.13 25,8 C 24.73,7.87 25.53,7.13 25,7 C 24.47,6.87 21.53,7.13 21,7 C 20.47,6.87 21.53,6.13 21,6 C 20.47,5.87 17.53,5.73 17,6 C 16.47,6.27 17.13,7.73 17,8 C 16.87,8.27 16.13,8.40 16,8 C 15.87,7.60 15.73,5.40 16,5 C 16.27,4.60 17.73,5.13 18,5 C 18.27,4.87 16.80,4.13 18,4 Z"/><path class="pb-part-collar" fill="#000004" d="M 37,4 C 38.20,3.60 44.80,3.87 46,4 C 47.20,4.13 45.73,4.87 46,5 C 46.27,5.13 47.73,4.60 48,5 C 48.27,5.40 48.13,7.60 48,8 C 47.87,8.40 47.13,8.27 47,8 C 46.87,7.73 47.53,6.27 47,6 C 46.47,5.73 43.53,5.87 43,6 C 42.47,6.13 43.53,6.87 43,7 C 42.47,7.13 39.53,6.87 39,7 C 38.47,7.13 39.27,7.87 39,8 C 38.73,8.13 37.27,7.87 37,8 C 36.73,8.13 37.13,8.87 37,9 C 36.87,9.13 36.13,8.87 36,9 C 35.87,9.13 36.13,9.87 36,10 C 35.87,10.13 35.13,10.40 35,10 C 34.87,9.60 34.73,7.40 35,7 C 35.27,6.60 36.73,7.40 37,7 C 37.27,6.60 35.80,4.40 37,4 Z"/><path class="pb-part-rune_channels" fill="#7463E8" d="M 18,35 C 18.13,34.87 18.87,34.87 19,35 C 19.13,35.13 19.13,35.87 19,36 C 18.87,36.13 18.13,36.13 18,36 C 17.87,35.87 17.87,35.13 18,35 Z"/><path class="pb-part-rune_channels" fill="#7463E8" d="M 20,35 C 20.13,34.87 20.87,34.87 21,35 C 21.13,35.13 21.13,35.87 21,36 C 20.87,36.13 20.13,36.13 20,36 C 19.87,35.87 19.87,35.13 20,35 Z"/><path class="pb-part-rune_channels" fill="#7463E8" d="M 22,35 C 22.13,33.80 22.87,33.80 23,35 C 23.13,36.20 23.13,42.80 23,44 C 22.87,45.20 22.13,45.20 22,44 C 21.87,42.80 21.87,36.20 22,35 Z"/><path class="pb-part-rune_channels" fill="#7463E8" d="M 24,35 C 24.13,34.87 24.87,34.87 25,35 C 25.13,35.13 25.13,35.87 25,36 C 24.87,36.13 24.13,36.13 24,36 C 23.87,35.87 23.87,35.13 24,35 Z"/><path class="pb-part-rune_channels" fill="#7463E8" d="M 26,35 C 26.13,34.87 26.87,34.87 27,35 C 27.13,35.13 27.13,35.87 27,36 C 26.87,36.13 26.13,36.13 26,36 C 25.87,35.87 25.87,35.13 26,35 Z"/><path class="pb-part-rune_channels" fill="#7463E8" d="M 37,35 C 37.13,34.87 37.87,34.87 38,35 C 38.13,35.13 38.13,35.87 38,36 C 37.87,36.13 37.13,36.13 37,36 C 36.87,35.87 36.87,35.13 37,35 Z"/><path class="pb-part-rune_channels" fill="#7463E8" d="M 39,35 C 39.13,34.87 39.87,34.87 40,35 C 40.13,35.13 40.13,35.87 40,36 C 39.87,36.13 39.13,36.13 39,36 C 38.87,35.87 38.87,35.13 39,35 Z"/><path class="pb-part-rune_channels" fill="#7463E8" d="M 41,35 C 41.13,33.80 41.87,33.80 42,35 C 42.13,36.20 42.13,42.80 42,44 C 41.87,45.20 41.13,45.20 41,44 C 40.87,42.80 40.87,36.20 41,35 Z"/><path class="pb-part-rune_channels" fill="#7463E8" d="M 43,35 C 43.13,34.87 43.87,34.87 44,35 C 44.13,35.13 44.13,35.87 44,36 C 43.87,36.13 43.13,36.13 43,36 C 42.87,35.87 42.87,35.13 43,35 Z"/><path class="pb-part-rune_channels" fill="#7463E8" d="M 45,35 C 45.13,34.87 45.87,34.87 46,35 C 46.13,35.13 46.13,35.87 46,36 C 45.87,36.13 45.13,36.13 45,36 C 44.87,35.87 44.87,35.13 45,35 Z"/><path class="pb-part-rune_channels" fill="#7463E8" d="M 27,39 C 27.13,38.87 27.87,38.87 28,39 C 28.13,39.13 28.13,39.87 28,40 C 27.87,40.13 27.13,40.13 27,40 C 26.87,39.87 26.87,39.13 27,39 Z"/><path class="pb-part-rune_channels" fill="#7463E8" d="M 36,39 C 36.13,38.87 36.87,38.87 37,39 C 37.13,39.13 37.13,39.87 37,40 C 36.87,40.13 36.13,40.13 36,40 C 35.87,39.87 35.87,39.13 36,39 Z"/><path class="pb-part-rune_channels" fill="#7463E8" d="M 18,43 C 18.13,42.87 18.87,42.87 19,43 C 19.13,43.13 19.13,43.87 19,44 C 18.87,44.13 18.13,44.13 18,44 C 17.87,43.87 17.87,43.13 18,43 Z"/><path class="pb-part-rune_channels" fill="#7463E8" d="M 20,43 C 20.13,42.87 20.87,42.87 21,43 C 21.13,43.13 21.13,43.87 21,44 C 20.87,44.13 20.13,44.13 20,44 C 19.87,43.87 19.87,43.13 20,43 Z"/><path class="pb-part-rune_channels" fill="#7463E8" d="M 24,43 C 24.13,42.87 24.87,42.87 25,43 C 25.13,43.13 25.13,43.87 25,44 C 24.87,44.13 24.13,44.13 24,44 C 23.87,43.87 23.87,43.13 24,43 Z"/><path class="pb-part-rune_channels" fill="#7463E8" d="M 26,43 C 26.13,42.87 26.87,42.87 27,43 C 27.13,43.13 27.13,43.87 27,44 C 26.87,44.13 26.13,44.13 26,44 C 25.87,43.87 25.87,43.13 26,43 Z"/><path class="pb-part-rune_channels" fill="#7463E8" d="M 37,43 C 37.13,42.87 37.87,42.87 38,43 C 38.13,43.13 38.13,43.87 38,44 C 37.87,44.13 37.13,44.13 37,44 C 36.87,43.87 36.87,43.13 37,43 Z"/><path class="pb-part-rune_channels" fill="#7463E8" d="M 39,43 C 39.13,42.87 39.87,42.87 40,43 C 40.13,43.13 40.13,43.87 40,44 C 39.87,44.13 39.13,44.13 39,44 C 38.87,43.87 38.87,43.13 39,43 Z"/><path class="pb-part-rune_channels" fill="#7463E8" d="M 43,43 C 43.13,42.87 43.87,42.87 44,43 C 44.13,43.13 44.13,43.87 44,44 C 43.87,44.13 43.13,44.13 43,44 C 42.87,43.87 42.87,43.13 43,43 Z"/><path class="pb-part-rune_channels" fill="#7463E8" d="M 45,43 C 45.13,42.87 45.87,42.87 46,43 C 46.13,43.13 46.13,43.87 46,44 C 45.87,44.13 45.13,44.13 45,44 C 44.87,43.87 44.87,43.13 45,43 Z"/><path class="pb-part-harness" fill="#01030A" d="M 24,33 C 26.13,32.87 37.87,32.87 40,33 C 42.13,33.13 39.73,33.87 40,34 C 40.27,34.13 41.73,33.87 42,34 C 42.27,34.13 42.13,34.87 42,35 C 41.87,35.13 41.13,34.33 41,35 C 40.87,35.67 41.13,39.33 41,40 C 40.87,40.67 40.13,39.87 40,40 C 39.87,40.13 40.13,40.87 40,41 C 39.87,41.13 39.13,40.87 39,41 C 38.87,41.13 39.27,41.87 39,42 C 38.73,42.13 37.27,41.87 37,42 C 36.73,42.13 37.27,42.87 37,43 C 36.73,43.13 35.27,42.87 35,43 C 34.73,43.13 35.27,43.87 35,44 C 34.73,44.13 33.27,43.87 33,44 C 32.73,44.13 33.27,44.87 33,45 C 32.73,45.13 31.27,45.13 31,45 C 30.73,44.87 31.27,44.13 31,44 C 30.73,43.87 29.27,44.13 29,44 C 28.73,43.87 29.27,43.13 29,43 C 28.73,42.87 27.27,43.13 27,43 C 26.73,42.87 27.27,42.13 27,42 C 26.73,41.87 25.27,42.13 25,42 C 24.73,41.87 25.13,41.13 25,41 C 24.87,40.87 24.13,41.13 24,41 C 23.87,40.87 24.13,40.13 24,40 C 23.87,39.87 23.13,40.67 23,40 C 22.87,39.33 23.13,35.67 23,35 C 22.87,34.33 22.13,35.13 22,35 C 21.87,34.87 21.73,34.13 22,34 C 22.27,33.87 23.73,34.13 24,34 C 24.27,33.87 21.87,33.13 24,33 Z"/><path class="pb-part-harness" fill="#01030A" d="M 31,34 C 31.27,33.87 32.73,33.87 33,34 C 33.27,34.13 32.73,34.87 33,35 C 33.27,35.13 34.73,34.87 35,35 C 35.27,35.13 34.73,35.87 35,36 C 35.27,36.13 36.73,36.13 37,36 C 37.27,35.87 36.87,35.13 37,35 C 37.13,34.87 37.87,34.87 38,35 C 38.13,35.13 38.13,35.87 38,36 C 37.87,36.13 37.13,35.87 37,36 C 36.87,36.13 36.73,36.87 37,37 C 37.27,37.13 38.73,36.87 39,37 C 39.27,37.13 38.87,37.87 39,38 C 39.13,38.13 39.87,37.87 40,38 C 40.13,38.13 40.13,38.87 40,39 C 39.87,39.13 39.13,38.87 39,39 C 38.87,39.13 39.27,39.87 39,40 C 38.73,40.13 37.27,39.87 37,40 C 36.73,40.13 37.27,40.87 37,41 C 36.73,41.13 35.27,40.87 35,41 C 34.73,41.13 35.27,41.87 35,42 C 34.73,42.13 33.27,41.87 33,42 C 32.73,42.13 33.27,42.87 33,43 C 32.73,43.13 31.27,43.13 31,43 C 30.73,42.87 31.27,42.13 31,42 C 30.73,41.87 29.27,42.13 29,42 C 28.73,41.87 29.27,41.13 29,41 C 28.73,40.87 27.27,41.13 27,41 C 26.73,40.87 27.27,40.13 27,40 C 26.73,39.87 25.27,40.13 25,40 C 24.73,39.87 25.13,39.13 25,39 C 24.87,38.87 24.13,39.13 24,39 C 23.87,38.87 23.87,38.13 24,38 C 24.13,37.87 24.87,38.13 25,38 C 25.13,37.87 24.73,37.13 25,37 C 25.27,36.87 26.73,37.27 27,37 C 27.27,36.73 27.13,35.27 27,35 C 26.87,34.73 26.13,34.87 26,35 C 25.87,35.13 25.60,35.87 26,36 C 26.40,36.13 28.60,36.13 29,36 C 29.40,35.87 28.73,35.13 29,35 C 29.27,34.87 30.73,35.13 31,35 C 31.27,34.87 30.73,34.13 31,34 Z"/><path class="pb-part-harness" fill="#01030A" d="M 21,35 C 21.13,34.87 21.87,34.60 22,35 C 22.13,35.40 22.13,37.60 22,38 C 21.87,38.40 21.13,38.13 21,38 C 20.87,37.87 21.13,37.13 21,37 C 20.87,36.87 20.13,37.13 20,37 C 19.87,36.87 19.87,36.13 20,36 C 20.13,35.87 20.87,36.13 21,36 C 21.13,35.87 20.87,35.13 21,35 Z"/><path class="pb-part-harness" fill="#01030A" d="M 24,35 C 24.13,34.87 24.87,34.87 25,35 C 25.13,35.13 25.13,35.87 25,36 C 24.87,36.13 24.13,36.13 24,36 C 23.87,35.87 23.87,35.13 24,35 Z"/><path class="pb-part-harness" fill="#01030A" d="M 39,35 C 39.13,34.87 39.87,34.87 40,35 C 40.13,35.13 40.13,35.87 40,36 C 39.87,36.13 39.13,36.13 39,36 C 38.87,35.87 38.87,35.13 39,35 Z"/><path class="pb-part-harness" fill="#01030A" d="M 42,35 C 42.13,34.60 42.87,34.87 43,35 C 43.13,35.13 42.87,35.87 43,36 C 43.13,36.13 43.87,35.87 44,36 C 44.13,36.13 44.13,36.87 44,37 C 43.87,37.13 43.13,36.87 43,37 C 42.87,37.13 43.13,37.87 43,38 C 42.87,38.13 42.13,38.40 42,38 C 41.87,37.60 41.87,35.40 42,35 Z"/><path class="pb-part-harness" fill="#01030A" d="M 30,36 C 30.13,35.87 30.87,35.87 31,36 C 31.13,36.13 31.13,36.87 31,37 C 30.87,37.13 30.13,37.13 30,37 C 29.87,36.87 29.87,36.13 30,36 Z"/><path class="pb-part-harness" fill="#01030A" d="M 33,36 C 33.13,35.87 33.87,35.87 34,36 C 34.13,36.13 34.13,36.87 34,37 C 33.87,37.13 33.13,37.13 33,37 C 32.87,36.87 32.87,36.13 33,36 Z"/><path class="pb-part-harness" fill="#01030A" d="M 28,37 C 28.27,36.87 29.73,36.60 30,37 C 30.27,37.40 30.27,39.60 30,40 C 29.73,40.40 28.27,40.13 28,40 C 27.73,39.87 28.27,39.13 28,39 C 27.73,38.87 26.27,39.13 26,39 C 25.73,38.87 25.73,38.13 26,38 C 26.27,37.87 27.73,38.13 28,38 C 28.27,37.87 27.73,37.13 28,37 Z"/><path class="pb-part-harness" fill="#01030A" d="M 34,37 C 34.27,36.60 35.73,36.87 36,37 C 36.27,37.13 35.73,37.87 36,38 C 36.27,38.13 37.73,37.87 38,38 C 38.27,38.13 38.27,38.87 38,39 C 37.73,39.13 36.27,38.87 36,39 C 35.73,39.13 36.27,39.87 36,40 C 35.73,40.13 34.27,40.40 34,40 C 33.73,39.60 33.73,37.40 34,37 Z"/><path class="pb-part-harness" fill="#01030A" d="M 31,38 C 31.27,37.87 32.73,37.87 33,38 C 33.27,38.13 33.27,38.87 33,39 C 32.73,39.13 31.27,39.13 31,39 C 30.73,38.87 30.73,38.13 31,38 Z"/><path class="pb-part-harness" fill="#01030A" d="M 30,40 C 30.13,39.87 30.87,39.87 31,40 C 31.13,40.13 31.13,40.87 31,41 C 30.87,41.13 30.13,41.13 30,41 C 29.87,40.87 29.87,40.13 30,40 Z"/><path class="pb-part-harness" fill="#01030A" d="M 33,40 C 33.13,39.87 33.87,39.87 34,40 C 34.13,40.13 34.13,40.87 34,41 C 33.87,41.13 33.13,41.13 33,41 C 32.87,40.87 32.87,40.13 33,40 Z"/><path class="pb-part-emblem" fill="#A66BE0" d="M 31,34 C 31.27,33.87 32.73,33.87 33,34 C 33.27,34.13 32.73,34.87 33,35 C 33.27,35.13 34.73,34.87 35,35 C 35.27,35.13 34.73,35.87 35,36 C 35.27,36.13 36.73,35.87 37,36 C 37.27,36.13 36.73,36.87 37,37 C 37.27,37.13 38.73,36.87 39,37 C 39.27,37.13 38.87,37.87 39,38 C 39.13,38.13 39.87,37.87 40,38 C 40.13,38.13 40.13,38.87 40,39 C 39.87,39.13 39.13,38.87 39,39 C 38.87,39.13 39.27,39.87 39,40 C 38.73,40.13 37.27,40.13 37,40 C 36.73,39.87 36.87,39.13 37,39 C 37.13,38.87 37.87,39.13 38,39 C 38.13,38.87 38.27,38.13 38,38 C 37.73,37.87 36.27,38.13 36,38 C 35.73,37.87 36.27,37.13 36,37 C 35.73,36.87 34.27,37.13 34,37 C 33.73,36.87 34.13,36.13 34,36 C 33.87,35.87 33.13,35.87 33,36 C 32.87,36.13 32.87,36.87 33,37 C 33.13,37.13 33.87,36.60 34,37 C 34.13,37.40 34.13,39.60 34,40 C 33.87,40.40 33.13,39.87 33,40 C 32.87,40.13 32.87,40.87 33,41 C 33.13,41.13 33.87,41.13 34,41 C 34.13,40.87 33.60,40.13 34,40 C 34.40,39.87 36.60,39.87 37,40 C 37.40,40.13 37.27,40.87 37,41 C 36.73,41.13 35.27,40.87 35,41 C 34.73,41.13 35.27,41.87 35,42 C 34.73,42.13 33.27,41.87 33,42 C 32.73,42.13 33.27,42.87 33,43 C 32.73,43.13 31.27,43.13 31,43 C 30.73,42.87 31.27,42.13 31,42 C 30.73,41.87 29.27,42.13 29,42 C 28.73,41.87 29.27,41.13 29,41 C 28.73,40.87 27.27,41.27 27,41 C 26.73,40.73 27.13,39.27 27,39 C 26.87,38.73 26.13,39.13 26,39 C 25.87,38.87 25.73,38.13 26,38 C 26.27,37.87 27.73,38.13 28,38 C 28.27,37.87 27.73,37.13 28,37 C 28.27,36.87 29.73,37.13 30,37 C 30.27,36.87 29.87,36.13 30,36 C 30.13,35.87 30.87,35.87 31,36 C 31.13,36.13 31.13,36.87 31,37 C 30.87,37.13 30.13,36.60 30,37 C 29.87,37.40 30.67,39.60 30,40 C 29.33,40.40 25.67,40.13 25,40 C 24.33,39.87 25.13,39.13 25,39 C 24.87,38.87 24.13,39.13 24,39 C 23.87,38.87 23.87,38.13 24,38 C 24.13,37.87 24.87,38.13 25,38 C 25.13,37.87 24.73,37.13 25,37 C 25.27,36.87 26.73,37.13 27,37 C 27.27,36.87 26.73,36.13 27,36 C 27.27,35.87 28.73,36.13 29,36 C 29.27,35.87 28.73,35.13 29,35 C 29.27,34.87 30.73,35.13 31,35 C 31.27,34.87 30.73,34.13 31,34 Z"/><path class="pb-part-emblem" fill="#A66BE0" d="M 31,38 C 31.27,37.87 32.73,37.87 33,38 C 33.27,38.13 33.27,38.87 33,39 C 32.73,39.13 31.27,39.13 31,39 C 30.73,38.87 30.73,38.13 31,38 Z"/><path class="pb-part-emblem" fill="#A66BE0" d="M 30,40 C 30.13,39.87 30.87,39.87 31,40 C 31.13,40.13 31.13,40.87 31,41 C 30.87,41.13 30.13,41.13 30,41 C 29.87,40.87 29.87,40.13 30,40 Z"/><path class="pb-part-center_core" fill="#5C4A18" d="M 31,23 C 31.27,22.87 32.73,22.87 33,23 C 33.27,23.13 32.87,23.87 33,24 C 33.13,24.13 33.87,23.87 34,24 C 34.13,24.13 33.87,24.87 34,25 C 34.13,25.13 34.87,24.73 35,25 C 35.13,25.27 34.87,26.73 35,27 C 35.13,27.27 35.87,26.73 36,27 C 36.13,27.27 35.87,28.73 36,29 C 36.13,29.27 36.87,28.47 37,29 C 37.13,29.53 37.27,32.47 37,33 C 36.73,33.53 35.27,33.40 35,33 C 34.73,32.60 35.13,30.40 35,30 C 34.87,29.60 34.13,30.13 34,30 C 33.87,29.87 34.13,29.13 34,29 C 33.87,28.87 33.13,29.13 33,29 C 32.87,28.87 33.27,28.13 33,28 C 32.73,27.87 31.27,27.87 31,28 C 30.73,28.13 31.13,28.87 31,29 C 30.87,29.13 30.13,28.87 30,29 C 29.87,29.13 30.13,29.87 30,30 C 29.87,30.13 29.13,29.60 29,30 C 28.87,30.40 29.27,32.60 29,33 C 28.73,33.40 27.27,33.53 27,33 C 26.73,32.47 26.87,29.53 27,29 C 27.13,28.47 27.87,29.27 28,29 C 28.13,28.73 27.87,27.27 28,27 C 28.13,26.73 28.87,27.27 29,27 C 29.13,26.73 28.87,25.27 29,25 C 29.13,24.73 29.87,25.13 30,25 C 30.13,24.87 29.87,24.13 30,24 C 30.13,23.87 30.87,24.13 31,24 C 31.13,23.87 30.73,23.13 31,23 Z"/><path class="pb-part-top_crystal" fill="#020111" d="M 31,28 C 31.27,27.87 32.73,27.87 33,28 C 33.27,28.13 32.87,28.87 33,29 C 33.13,29.13 33.87,28.87 34,29 C 34.13,29.13 33.87,29.87 34,30 C 34.13,30.13 34.87,29.60 35,30 C 35.13,30.40 35.80,32.60 35,33 C 34.20,33.40 29.80,33.40 29,33 C 28.20,32.60 28.87,30.40 29,30 C 29.13,29.60 29.87,30.13 30,30 C 30.13,29.87 29.87,29.13 30,29 C 30.13,28.87 30.87,29.13 31,29 C 31.13,28.87 30.73,28.13 31,28 Z"/><path class="pb-part-lower_drop" fill="#E9D8FD" d="M 29,47 C 29.80,46.73 34.20,46.73 35,47 C 35.80,47.27 35.13,48.73 35,49 C 34.87,49.27 34.13,48.73 34,49 C 33.87,49.27 34.13,50.73 34,51 C 33.87,51.27 33.13,50.73 33,51 C 32.87,51.27 33.27,52.73 33,53 C 32.73,53.27 31.27,53.27 31,53 C 30.73,52.73 31.13,51.27 31,51 C 30.87,50.73 30.13,51.27 30,51 C 29.87,50.73 30.13,49.27 30,49 C 29.87,48.73 29.13,49.27 29,49 C 28.87,48.73 28.20,47.27 29,47 Z"/></g><g class="pb-shading" opacity="0.45"><path class="pb-part-left_pauldron-shadow" fill="#000000" filter="url(#pb-shader-melt-field)" d="M 17,6 C 17.13,5.87 17.87,5.87 18,6 C 18.13,6.13 18.13,6.87 18,7 C 17.87,7.13 17.13,7.13 17,7 C 16.87,6.87 16.87,6.13 17,6 Z"/><path class="pb-part-left_pauldron-shadow" fill="#000000" filter="url(#pb-shader-melt-field)" d="M 46,6 C 46.13,5.87 46.87,5.87 47,6 C 47.13,6.13 47.13,6.87 47,7 C 46.87,7.13 46.13,7.13 46,7 C 45.87,6.87 45.87,6.13 46,6 Z"/><path class="pb-part-left_pauldron-shadow" fill="#000000" filter="url(#pb-shader-melt-field)" d="M 11,7 C 11.53,6.87 14.47,6.87 15,7 C 15.53,7.13 15.53,7.87 15,8 C 14.47,8.13 11.53,8.13 11,8 C 10.47,7.87 10.47,7.13 11,7 Z"/><path class="pb-part-left_pauldron-shadow" fill="#000000" filter="url(#pb-shader-melt-field)" d="M 18,7 C 18.13,6.87 18.87,6.87 19,7 C 19.13,7.13 19.13,7.87 19,8 C 18.87,8.13 18.13,8.13 18,8 C 17.87,7.87 17.87,7.13 18,7 Z"/><path class="pb-part-left_pauldron-shadow" fill="#000000" filter="url(#pb-shader-melt-field)" d="M 45,7 C 45.13,6.87 45.87,6.87 46,7 C 46.13,7.13 46.13,7.87 46,8 C 45.87,8.13 45.13,8.13 45,8 C 44.87,7.87 44.87,7.13 45,7 Z"/><path class="pb-part-left_pauldron-shadow" fill="#000000" filter="url(#pb-shader-melt-field)" d="M 49,7 C 49.53,6.87 52.47,6.87 53,7 C 53.53,7.13 53.53,7.87 53,8 C 52.47,8.13 49.53,8.13 49,8 C 48.47,7.87 48.47,7.13 49,7 Z"/><path class="pb-part-left_pauldron-shadow" fill="#000000" filter="url(#pb-shader-melt-field)" d="M 7,8 C 7.53,7.87 10.47,7.87 11,8 C 11.53,8.13 11.53,8.87 11,9 C 10.47,9.13 7.53,9.13 7,9 C 6.47,8.87 6.47,8.13 7,8 Z"/><path class="pb-part-left_pauldron-shadow" fill="#000000" filter="url(#pb-shader-melt-field)" d="M 15,8 C 15.13,7.87 15.87,7.87 16,8 C 16.13,8.13 16.13,8.87 16,9 C 15.87,9.13 15.13,9.13 15,9 C 14.87,8.87 14.87,8.13 15,8 Z"/><path class="pb-part-left_pauldron-shadow" fill="#000000" filter="url(#pb-shader-melt-field)" d="M 17,8 C 17.13,7.87 17.87,7.87 18,8 C 18.13,8.13 18.13,8.87 18,9 C 17.87,9.13 17.13,9.13 17,9 C 16.87,8.87 16.87,8.13 17,8 Z"/><path class="pb-part-left_pauldron-shadow" fill="#000000" filter="url(#pb-shader-melt-field)" d="M 46,8 C 46.13,7.87 46.87,7.87 47,8 C 47.13,8.13 47.13,8.87 47,9 C 46.87,9.13 46.13,9.13 46,9 C 45.87,8.87 45.87,8.13 46,8 Z"/><path class="pb-part-left_pauldron-shadow" fill="#000000" filter="url(#pb-shader-melt-field)" d="M 48,8 C 48.13,7.87 48.87,7.87 49,8 C 49.13,8.13 49.13,8.87 49,9 C 48.87,9.13 48.13,9.13 48,9 C 47.87,8.87 47.87,8.13 48,8 Z"/><path class="pb-part-left_pauldron-shadow" fill="#000000" filter="url(#pb-shader-melt-field)" d="M 53,8 C 53.53,7.87 56.47,7.87 57,8 C 57.53,8.13 57.53,8.87 57,9 C 56.47,9.13 53.53,9.13 53,9 C 52.47,8.87 52.47,8.13 53,8 Z"/><path class="pb-part-left_pauldron-shadow" fill="#000000" filter="url(#pb-shader-melt-field)" d="M 6,9 C 6.13,8.87 6.87,8.87 7,9 C 7.13,9.13 7.13,9.87 7,10 C 6.87,10.13 6.13,10.13 6,10 C 5.87,9.87 5.87,9.13 6,9 Z"/><path class="pb-part-left_pauldron-shadow" fill="#000000" filter="url(#pb-shader-melt-field)" d="M 57,9 C 57.13,8.87 57.87,8.87 58,9 C 58.13,9.13 58.13,9.87 58,10 C 57.87,10.13 57.13,10.13 57,10 C 56.87,9.87 56.87,9.13 57,9 Z"/><path class="pb-part-left_pauldron-shadow" fill="#000000" filter="url(#pb-shader-melt-field)" d="M 5,10 C 5.13,9.87 5.87,9.87 6,10 C 6.13,10.13 6.13,10.87 6,11 C 5.87,11.13 5.13,11.13 5,11 C 4.87,10.87 4.87,10.13 5,10 Z"/><path class="pb-part-left_pauldron-shadow" fill="#000000" filter="url(#pb-shader-melt-field)" d="M 27,10 C 27.13,9.87 27.87,9.87 28,10 C 28.13,10.13 28.13,10.87 28,11 C 27.87,11.13 27.13,11.13 27,11 C 26.87,10.87 26.87,10.13 27,10 Z"/><path class="pb-part-left_pauldron-shadow" fill="#000000" filter="url(#pb-shader-melt-field)" d="M 36,10 C 36.13,9.87 36.87,9.87 37,10 C 37.13,10.13 37.13,10.87 37,11 C 36.87,11.13 36.13,11.13 36,11 C 35.87,10.87 35.87,10.13 36,10 Z"/><path class="pb-part-left_pauldron-shadow" fill="#000000" filter="url(#pb-shader-melt-field)" d="M 58,10 C 58.13,9.87 58.87,9.87 59,10 C 59.13,10.13 59.13,10.87 59,11 C 58.87,11.13 58.13,11.13 58,11 C 57.87,10.87 57.87,10.13 58,10 Z"/><path class="pb-part-left_pauldron-shadow" fill="#000000" filter="url(#pb-shader-melt-field)" d="M 6,11 C 6.27,10.87 7.73,10.87 8,11 C 8.27,11.13 8.27,11.87 8,12 C 7.73,12.13 6.27,12.13 6,12 C 5.73,11.87 5.73,11.13 6,11 Z"/><path class="pb-part-left_pauldron-shadow" fill="#000000" filter="url(#pb-shader-melt-field)" d="M 26,11 C 26.13,10.87 26.87,10.87 27,11 C 27.13,11.13 27.13,11.87 27,12 C 26.87,12.13 26.13,12.13 26,12 C 25.87,11.87 25.87,11.13 26,11 Z"/><path class="pb-part-left_pauldron-shadow" fill="#000000" filter="url(#pb-shader-melt-field)" d="M 37,11 C 37.13,10.87 37.87,10.87 38,11 C 38.13,11.13 38.13,11.87 38,12 C 37.87,12.13 37.13,12.13 37,12 C 36.87,11.87 36.87,11.13 37,11 Z"/><path class="pb-part-left_pauldron-shadow" fill="#000000" filter="url(#pb-shader-melt-field)" d="M 56,11 C 56.27,10.87 57.73,10.87 58,11 C 58.27,11.13 58.27,11.87 58,12 C 57.73,12.13 56.27,12.13 56,12 C 55.73,11.87 55.73,11.13 56,11 Z"/><path class="pb-part-left_pauldron-shadow" fill="#000000" filter="url(#pb-shader-melt-field)" d="M 8,12 C 8.27,11.87 9.73,11.87 10,12 C 10.27,12.13 10.27,12.87 10,13 C 9.73,13.13 8.27,13.13 8,13 C 7.73,12.87 7.73,12.13 8,12 Z"/><path class="pb-part-left_pauldron-shadow" fill="#000000" filter="url(#pb-shader-melt-field)" d="M 54,12 C 54.27,11.87 55.73,11.87 56,12 C 56.27,12.13 56.27,12.87 56,13 C 55.73,13.13 54.27,13.13 54,13 C 53.73,12.87 53.73,12.13 54,12 Z"/><path class="pb-part-left_pauldron-shadow" fill="#000000" filter="url(#pb-shader-melt-field)" d="M 10,13 C 10.13,12.87 10.87,12.87 11,13 C 11.13,13.13 11.13,13.87 11,14 C 10.87,14.13 10.13,14.13 10,14 C 9.87,13.87 9.87,13.13 10,13 Z"/><path class="pb-part-left_pauldron-shadow" fill="#000000" filter="url(#pb-shader-melt-field)" d="M 53,13 C 53.13,12.87 53.87,12.87 54,13 C 54.13,13.13 54.13,13.87 54,14 C 53.87,14.13 53.13,14.13 53,14 C 52.87,13.87 52.87,13.13 53,13 Z"/><path class="pb-part-body-shadow" fill="#000000" filter="url(#pb-shader-melt-field)" d="M 25,12 C 25.13,11.87 25.87,11.87 26,12 C 26.13,12.13 26.13,12.87 26,13 C 25.87,13.13 25.13,13.13 25,13 C 24.87,12.87 24.87,12.13 25,12 Z"/><path class="pb-part-body-shadow" fill="#000000" filter="url(#pb-shader-melt-field)" d="M 38,12 C 38.13,11.87 38.87,11.87 39,12 C 39.13,12.13 39.13,12.87 39,13 C 38.87,13.13 38.13,13.13 38,13 C 37.87,12.87 37.87,12.13 38,12 Z"/><path class="pb-part-body-shadow" fill="#000000" filter="url(#pb-shader-melt-field)" d="M 26,13 C 26.13,12.73 26.87,12.73 27,13 C 27.13,13.27 27.13,14.73 27,15 C 26.87,15.27 26.13,15.27 26,15 C 25.87,14.73 25.87,13.27 26,13 Z"/><path class="pb-part-body-shadow" fill="#000000" filter="url(#pb-shader-melt-field)" d="M 37,13 C 37.13,12.73 37.87,12.73 38,13 C 38.13,13.27 38.13,14.73 38,15 C 37.87,15.27 37.13,15.27 37,15 C 36.87,14.73 36.87,13.27 37,13 Z"/><path class="pb-part-body-shadow" fill="#000000" filter="url(#pb-shader-melt-field)" d="M 12,15 C 12.13,14.33 12.87,14.33 13,15 C 13.13,15.67 13.13,19.33 13,20 C 12.87,20.67 12.13,20.67 12,20 C 11.87,19.33 11.87,15.67 12,15 Z"/><path class="pb-part-body-shadow" fill="#000000" filter="url(#pb-shader-melt-field)" d="M 27,15 C 27.13,14.87 27.87,14.87 28,15 C 28.13,15.13 28.13,15.87 28,16 C 27.87,16.13 27.13,16.13 27,16 C 26.87,15.87 26.87,15.13 27,15 Z"/><path class="pb-part-body-shadow" fill="#000000" filter="url(#pb-shader-melt-field)" d="M 36,15 C 36.13,14.87 36.87,14.87 37,15 C 37.13,15.13 37.13,15.87 37,16 C 36.87,16.13 36.13,16.13 36,16 C 35.87,15.87 35.87,15.13 36,15 Z"/><path class="pb-part-body-shadow" fill="#000000" filter="url(#pb-shader-melt-field)" d="M 51,15 C 51.13,14.33 51.87,14.33 52,15 C 52.13,15.67 52.13,19.33 52,20 C 51.87,20.67 51.13,20.67 51,20 C 50.87,19.33 50.87,15.67 51,15 Z"/><path class="pb-part-body-shadow" fill="#000000" filter="url(#pb-shader-melt-field)" d="M 28,16 C 29.07,15.87 34.93,15.87 36,16 C 37.07,16.13 37.07,16.87 36,17 C 34.93,17.13 29.07,17.13 28,17 C 26.93,16.87 26.93,16.13 28,16 Z"/><path class="pb-part-body-shadow" fill="#000000" filter="url(#pb-shader-melt-field)" d="M 13,20 C 13.13,19.47 13.87,19.47 14,20 C 14.13,20.53 14.13,23.47 14,24 C 13.87,24.53 13.13,24.53 13,24 C 12.87,23.47 12.87,20.53 13,20 Z"/><path class="pb-part-body-shadow" fill="#000000" filter="url(#pb-shader-melt-field)" d="M 50,20 C 50.13,19.47 50.87,19.47 51,20 C 51.13,20.53 51.13,23.47 51,24 C 50.87,24.53 50.13,24.53 50,24 C 49.87,23.47 49.87,20.53 50,20 Z"/><path class="pb-part-body-shadow" fill="#000000" filter="url(#pb-shader-melt-field)" d="M 14,27 C 14.13,26.47 14.87,26.47 15,27 C 15.13,27.53 15.13,30.47 15,31 C 14.87,31.53 14.13,31.53 14,31 C 13.87,30.47 13.87,27.53 14,27 Z"/><path class="pb-part-body-shadow" fill="#000000" filter="url(#pb-shader-melt-field)" d="M 49,27 C 49.13,26.47 49.87,26.47 50,27 C 50.13,27.53 50.13,30.47 50,31 C 49.87,31.53 49.13,31.53 49,31 C 48.87,30.47 48.87,27.53 49,27 Z"/><path class="pb-part-body-shadow" fill="#000000" filter="url(#pb-shader-melt-field)" d="M 15,31 C 15.13,30.20 15.87,30.20 16,31 C 16.13,31.80 16.13,36.20 16,37 C 15.87,37.80 15.13,37.80 15,37 C 14.87,36.20 14.87,31.80 15,31 Z"/><path class="pb-part-body-shadow" fill="#000000" filter="url(#pb-shader-melt-field)" d="M 48,31 C 48.13,30.20 48.87,30.20 49,31 C 49.13,31.80 49.13,36.20 49,37 C 48.87,37.80 48.13,37.80 48,37 C 47.87,36.20 47.87,31.80 48,31 Z"/><path class="pb-part-body-shadow" fill="#000000" filter="url(#pb-shader-melt-field)" d="M 16,37 C 16.13,36.07 16.87,36.07 17,37 C 17.13,37.93 17.13,43.07 17,44 C 16.87,44.93 16.13,44.93 16,44 C 15.87,43.07 15.87,37.93 16,37 Z"/><path class="pb-part-body-shadow" fill="#000000" filter="url(#pb-shader-melt-field)" d="M 47,37 C 47.13,36.07 47.87,36.07 48,37 C 48.13,37.93 48.13,43.07 48,44 C 47.87,44.93 47.13,44.93 47,44 C 46.87,43.07 46.87,37.93 47,37 Z"/><path class="pb-part-body-shadow" fill="#000000" filter="url(#pb-shader-melt-field)" d="M 17,44 C 17.13,43.20 17.87,43.20 18,44 C 18.13,44.80 18.13,49.20 18,50 C 17.87,50.80 17.13,50.80 17,50 C 16.87,49.20 16.87,44.80 17,44 Z"/><path class="pb-part-body-shadow" fill="#000000" filter="url(#pb-shader-melt-field)" d="M 46,44 C 46.13,43.20 46.87,43.20 47,44 C 47.13,44.80 47.13,49.20 47,50 C 46.87,50.80 46.13,50.80 46,50 C 45.87,49.20 45.87,44.80 46,44 Z"/><path class="pb-part-body-shadow" fill="#000000" filter="url(#pb-shader-melt-field)" d="M 18,50 C 18.13,49.33 18.87,49.33 19,50 C 19.13,50.67 19.13,54.33 19,55 C 18.87,55.67 18.13,55.67 18,55 C 17.87,54.33 17.87,50.67 18,50 Z"/><path class="pb-part-body-shadow" fill="#000000" filter="url(#pb-shader-melt-field)" d="M 45,50 C 45.13,49.33 45.87,49.33 46,50 C 46.13,50.67 46.13,54.33 46,55 C 45.87,55.67 45.13,55.67 45,55 C 44.87,54.33 44.87,50.67 45,50 Z"/><path class="pb-part-body-shadow" fill="#000000" filter="url(#pb-shader-melt-field)" d="M 19,55 C 19.13,54.87 19.87,54.87 20,55 C 20.13,55.13 20.13,55.87 20,56 C 19.87,56.13 19.13,56.13 19,56 C 18.87,55.87 18.87,55.13 19,55 Z"/><path class="pb-part-body-shadow" fill="#000000" filter="url(#pb-shader-melt-field)" d="M 44,55 C 44.13,54.87 44.87,54.87 45,55 C 45.13,55.13 45.13,55.87 45,56 C 44.87,56.13 44.13,56.13 44,56 C 43.87,55.87 43.87,55.13 44,55 Z"/><path class="pb-part-body-shadow" fill="#000000" filter="url(#pb-shader-melt-field)" d="M 20,56 C 20.13,55.87 20.87,55.87 21,56 C 21.13,56.13 21.13,56.87 21,57 C 20.87,57.13 20.13,57.13 20,57 C 19.87,56.87 19.87,56.13 20,56 Z"/><path class="pb-part-body-shadow" fill="#000000" filter="url(#pb-shader-melt-field)" d="M 43,56 C 43.13,55.87 43.87,55.87 44,56 C 44.13,56.13 44.13,56.87 44,57 C 43.87,57.13 43.13,57.13 43,57 C 42.87,56.87 42.87,56.13 43,56 Z"/><path class="pb-part-body-shadow" fill="#000000" filter="url(#pb-shader-melt-field)" d="M 21,57 C 21.13,56.73 21.87,56.73 22,57 C 22.13,57.27 22.13,58.73 22,59 C 21.87,59.27 21.13,59.27 21,59 C 20.87,58.73 20.87,57.27 21,57 Z"/><path class="pb-part-body-shadow" fill="#000000" filter="url(#pb-shader-melt-field)" d="M 42,57 C 42.13,56.73 42.87,56.73 43,57 C 43.13,57.27 43.13,58.73 43,59 C 42.87,59.27 42.13,59.27 42,59 C 41.87,58.73 41.87,57.27 42,57 Z"/><path class="pb-part-body-shadow" fill="#000000" filter="url(#pb-shader-melt-field)" d="M 22,59 C 22.13,58.73 22.87,58.73 23,59 C 23.13,59.27 23.13,60.73 23,61 C 22.87,61.27 22.13,61.27 22,61 C 21.87,60.73 21.87,59.27 22,59 Z"/><path class="pb-part-body-shadow" fill="#000000" filter="url(#pb-shader-melt-field)" d="M 41,59 C 41.13,58.73 41.87,58.73 42,59 C 42.13,59.27 42.13,60.73 42,61 C 41.87,61.27 41.13,61.27 41,61 C 40.87,60.73 40.87,59.27 41,59 Z"/><path class="pb-part-body-shadow" fill="#000000" filter="url(#pb-shader-melt-field)" d="M 23,61 C 23.13,60.87 23.87,60.87 24,61 C 24.13,61.13 24.13,61.87 24,62 C 23.87,62.13 23.13,62.13 23,62 C 22.87,61.87 22.87,61.13 23,61 Z"/><path class="pb-part-body-shadow" fill="#000000" filter="url(#pb-shader-melt-field)" d="M 40,61 C 40.13,60.87 40.87,60.87 41,61 C 41.13,61.13 41.13,61.87 41,62 C 40.87,62.13 40.13,62.13 40,62 C 39.87,61.87 39.87,61.13 40,61 Z"/><path class="pb-part-body-shadow" fill="#000000" filter="url(#pb-shader-melt-field)" d="M 24,62 C 24.13,61.73 24.87,61.73 25,62 C 25.13,62.27 25.13,63.73 25,64 C 24.87,64.27 24.13,64.27 24,64 C 23.87,63.73 23.87,62.27 24,62 Z"/><path class="pb-part-body-shadow" fill="#000000" filter="url(#pb-shader-melt-field)" d="M 39,62 C 39.13,61.73 39.87,61.73 40,62 C 40.13,62.27 40.13,63.73 40,64 C 39.87,64.27 39.13,64.27 39,64 C 38.87,63.73 38.87,62.27 39,62 Z"/><path class="pb-part-body-shadow" fill="#000000" filter="url(#pb-shader-melt-field)" d="M 25,64 C 26.87,63.87 37.13,63.87 39,64 C 40.87,64.13 40.87,64.87 39,65 C 37.13,65.13 26.87,65.13 25,65 C 23.13,64.87 23.13,64.13 25,64 Z"/><path class="pb-part-mantle-shadow" fill="#000000" filter="url(#pb-shader-melt-field)" d="M 14,24 C 14.13,23.73 14.87,23.73 15,24 C 15.13,24.27 15.13,25.73 15,26 C 14.87,26.27 14.13,26.27 14,26 C 13.87,25.73 13.87,24.27 14,24 Z"/><path class="pb-part-mantle-shadow" fill="#000000" filter="url(#pb-shader-melt-field)" d="M 49,24 C 49.13,23.73 49.87,23.73 50,24 C 50.13,24.27 50.13,25.73 50,26 C 49.87,26.27 49.13,26.27 49,26 C 48.87,25.73 48.87,24.27 49,24 Z"/><path class="pb-part-collar-shadow" fill="#000000" filter="url(#pb-shader-melt-field)" d="M 19,5 C 19.93,4.87 25.07,4.73 26,5 C 26.93,5.27 26.13,6.73 26,7 C 25.87,7.27 25.13,7.13 25,7 C 24.87,6.87 25.80,6.13 25,6 C 24.20,5.87 19.80,6.13 19,6 C 18.20,5.87 18.07,5.13 19,5 Z"/><path class="pb-part-collar-shadow" fill="#000000" filter="url(#pb-shader-melt-field)" d="M 38,5 C 38.93,4.73 44.07,4.87 45,5 C 45.93,5.13 45.80,5.87 45,6 C 44.20,6.13 39.80,5.87 39,6 C 38.20,6.13 39.13,6.87 39,7 C 38.87,7.13 38.13,7.27 38,7 C 37.87,6.73 37.07,5.27 38,5 Z"/><path class="pb-part-collar-shadow" fill="#000000" filter="url(#pb-shader-melt-field)" d="M 16,7 C 16.13,6.87 16.87,6.87 17,7 C 17.13,7.13 17.13,7.87 17,8 C 16.87,8.13 16.13,8.13 16,8 C 15.87,7.87 15.87,7.13 16,7 Z"/><path class="pb-part-collar-shadow" fill="#000000" filter="url(#pb-shader-melt-field)" d="M 26,7 C 26.13,6.87 26.87,6.87 27,7 C 27.13,7.13 27.13,7.87 27,8 C 26.87,8.13 26.13,8.13 26,8 C 25.87,7.87 25.87,7.13 26,7 Z"/><path class="pb-part-collar-shadow" fill="#000000" filter="url(#pb-shader-melt-field)" d="M 37,7 C 37.13,6.87 37.87,6.87 38,7 C 38.13,7.13 38.13,7.87 38,8 C 37.87,8.13 37.13,8.13 37,8 C 36.87,7.87 36.87,7.13 37,7 Z"/><path class="pb-part-collar-shadow" fill="#000000" filter="url(#pb-shader-melt-field)" d="M 47,7 C 47.13,6.87 47.87,6.87 48,7 C 48.13,7.13 48.13,7.87 48,8 C 47.87,8.13 47.13,8.13 47,8 C 46.87,7.87 46.87,7.13 47,7 Z"/><path class="pb-part-collar-shadow" fill="#000000" filter="url(#pb-shader-melt-field)" d="M 27,8 C 27.13,7.87 27.87,7.87 28,8 C 28.13,8.13 28.13,8.87 28,9 C 27.87,9.13 27.13,9.13 27,9 C 26.87,8.87 26.87,8.13 27,8 Z"/><path class="pb-part-collar-shadow" fill="#000000" filter="url(#pb-shader-melt-field)" d="M 36,8 C 36.13,7.87 36.87,7.87 37,8 C 37.13,8.13 37.13,8.87 37,9 C 36.87,9.13 36.13,9.13 36,9 C 35.87,8.87 35.87,8.13 36,8 Z"/></g><g class="pb-outlines"><path class="pb-outline" fill="none" stroke="#A58A2D" stroke-width="0.1875" stroke-linejoin="round" stroke-linecap="round" filter="url(#pb-shader-ink-shadow)" d="M 18,4 C 19.20,3.87 25.80,3.60 27,4 C 28.20,4.40 27.13,6.60 27,7 C 26.87,7.40 26.13,7.27 26,7 C 25.87,6.73 26.93,5.27 26,5 C 25.07,4.73 19.93,4.87 19,5 C 18.07,5.13 19.27,5.87 19,6 C 18.73,6.13 17.27,5.87 17,6 C 16.73,6.13 17.13,6.87 17,7 C 16.87,7.13 16.13,6.87 16,7 C 15.87,7.13 16.13,7.87 16,8 C 15.87,8.13 15.13,8.13 15,8 C 14.87,7.87 15.53,7.13 15,7 C 14.47,6.87 11.53,7.13 11,7 C 10.47,6.87 10.33,6.13 11,6 C 11.67,5.87 15.33,6.13 16,6 C 16.67,5.87 15.73,5.13 16,5 C 16.27,4.87 17.73,5.13 18,5 C 18.27,4.87 16.80,4.13 18,4 Z"/><path class="pb-outline" fill="none" stroke="#A58A2D" stroke-width="0.1875" stroke-linejoin="round" stroke-linecap="round" filter="url(#pb-shader-ink-shadow)" d="M 37,4 C 38.20,3.60 44.80,3.87 46,4 C 47.20,4.13 45.73,4.87 46,5 C 46.27,5.13 47.73,4.87 48,5 C 48.27,5.13 47.33,5.87 48,6 C 48.67,6.13 52.33,5.87 53,6 C 53.67,6.13 53.53,6.87 53,7 C 52.47,7.13 49.53,6.87 49,7 C 48.47,7.13 49.13,7.87 49,8 C 48.87,8.13 48.13,8.13 48,8 C 47.87,7.87 48.13,7.13 48,7 C 47.87,6.87 47.13,7.13 47,7 C 46.87,6.87 47.27,6.13 47,6 C 46.73,5.87 45.27,6.13 45,6 C 44.73,5.87 45.93,5.13 45,5 C 44.07,4.87 38.93,4.73 38,5 C 37.07,5.27 38.13,6.73 38,7 C 37.87,7.27 37.13,7.40 37,7 C 36.87,6.60 35.80,4.40 37,4 Z"/><path class="pb-outline" fill="none" stroke="#A58A2D" stroke-width="0.1875" stroke-linejoin="round" stroke-linecap="round" filter="url(#pb-shader-ink-shadow)" d="M 7,7 C 7.53,6.87 10.47,6.87 11,7 C 11.53,7.13 11.53,7.87 11,8 C 10.47,8.13 7.53,8.13 7,8 C 6.47,7.87 6.47,7.13 7,7 Z"/><path class="pb-outline" fill="none" stroke="#A58A2D" stroke-width="0.1875" stroke-linejoin="round" stroke-linecap="round" filter="url(#pb-shader-ink-shadow)" d="M 17,7 C 17.13,6.87 17.87,6.87 18,7 C 18.13,7.13 18.13,7.87 18,8 C 17.87,8.13 17.13,8.13 17,8 C 16.87,7.87 16.87,7.13 17,7 Z"/><path class="pb-outline" fill="none" stroke="#A58A2D" stroke-width="0.1875" stroke-linejoin="round" stroke-linecap="round" filter="url(#pb-shader-ink-shadow)" d="M 27,7 C 27.27,6.87 28.73,6.33 29,7 C 29.27,7.67 29.27,11.33 29,12 C 28.73,12.67 27.27,12.13 27,12 C 26.73,11.87 26.87,11.13 27,11 C 27.13,10.87 27.87,11.40 28,11 C 28.13,10.60 28.13,8.40 28,8 C 27.87,7.60 27.13,8.13 27,8 C 26.87,7.87 26.73,7.13 27,7 Z"/><path class="pb-outline" fill="none" stroke="#A58A2D" stroke-width="0.1875" stroke-linejoin="round" stroke-linecap="round" filter="url(#pb-shader-ink-shadow)" d="M 35,7 C 35.27,6.33 36.73,6.87 37,7 C 37.27,7.13 37.13,7.87 37,8 C 36.87,8.13 36.13,7.60 36,8 C 35.87,8.40 35.87,10.60 36,11 C 36.13,11.40 36.87,10.87 37,11 C 37.13,11.13 37.27,11.87 37,12 C 36.73,12.13 35.27,12.67 35,12 C 34.73,11.33 34.73,7.67 35,7 Z"/><path class="pb-outline" fill="none" stroke="#A58A2D" stroke-width="0.1875" stroke-linejoin="round" stroke-linecap="round" filter="url(#pb-shader-ink-shadow)" d="M 46,7 C 46.13,6.87 46.87,6.87 47,7 C 47.13,7.13 47.13,7.87 47,8 C 46.87,8.13 46.13,8.13 46,8 C 45.87,7.87 45.87,7.13 46,7 Z"/><path class="pb-outline" fill="none" stroke="#A58A2D" stroke-width="0.1875" stroke-linejoin="round" stroke-linecap="round" filter="url(#pb-shader-ink-shadow)" d="M 53,7 C 53.53,6.87 56.47,6.87 57,7 C 57.53,7.13 57.53,7.87 57,8 C 56.47,8.13 53.53,8.13 53,8 C 52.47,7.87 52.47,7.13 53,7 Z"/><path class="pb-outline" fill="none" stroke="#A58A2D" stroke-width="0.1875" stroke-linejoin="round" stroke-linecap="round" filter="url(#pb-shader-ink-shadow)" d="M 5,8 C 5.27,7.73 6.73,7.87 7,8 C 7.27,8.13 7.13,8.87 7,9 C 6.87,9.13 6.13,8.87 6,9 C 5.87,9.13 6.13,9.87 6,10 C 5.87,10.13 5.13,10.27 5,10 C 4.87,9.73 4.73,8.27 5,8 Z"/><path class="pb-outline" fill="none" stroke="#A58A2D" stroke-width="0.1875" stroke-linejoin="round" stroke-linecap="round" filter="url(#pb-shader-ink-shadow)" d="M 16,8 C 16.13,7.87 16.87,7.87 17,8 C 17.13,8.13 17.13,8.87 17,9 C 16.87,9.13 16.13,9.13 16,9 C 15.87,8.87 15.87,8.13 16,8 Z"/><path class="pb-outline" fill="none" stroke="#A58A2D" stroke-width="0.1875" stroke-linejoin="round" stroke-linecap="round" filter="url(#pb-shader-ink-shadow)" d="M 47,8 C 47.13,7.87 47.87,7.87 48,8 C 48.13,8.13 48.13,8.87 48,9 C 47.87,9.13 47.13,9.13 47,9 C 46.87,8.87 46.87,8.13 47,8 Z"/><path class="pb-outline" fill="none" stroke="#A58A2D" stroke-width="0.1875" stroke-linejoin="round" stroke-linecap="round" filter="url(#pb-shader-ink-shadow)" d="M 57,8 C 57.27,7.87 58.73,7.73 59,8 C 59.27,8.27 59.13,9.73 59,10 C 58.87,10.27 58.13,10.13 58,10 C 57.87,9.87 58.13,9.13 58,9 C 57.87,8.87 57.13,9.13 57,9 C 56.87,8.87 56.73,8.13 57,8 Z"/><path class="pb-outline" fill="none" stroke="#A58A2D" stroke-width="0.1875" stroke-linejoin="round" stroke-linecap="round" filter="url(#pb-shader-ink-shadow)" d="M 4,10 C 4.13,9.73 4.87,9.87 5,10 C 5.13,10.13 4.87,10.87 5,11 C 5.13,11.13 5.87,10.87 6,11 C 6.13,11.13 6.27,11.87 6,12 C 5.73,12.13 4.27,12.27 4,12 C 3.73,11.73 3.87,10.27 4,10 Z"/><path class="pb-outline" fill="none" stroke="#A58A2D" stroke-width="0.1875" stroke-linejoin="round" stroke-linecap="round" filter="url(#pb-shader-ink-shadow)" d="M 59,10 C 59.13,9.87 59.87,9.73 60,10 C 60.13,10.27 60.27,11.73 60,12 C 59.73,12.27 58.27,12.13 58,12 C 57.73,11.87 57.87,11.13 58,11 C 58.13,10.87 58.87,11.13 59,11 C 59.13,10.87 58.87,10.13 59,10 Z"/><path class="pb-outline" fill="none" stroke="#A58A2D" stroke-width="0.1875" stroke-linejoin="round" stroke-linecap="round" filter="url(#pb-shader-ink-shadow)" d="M 6,12 C 6.27,11.87 7.73,11.87 8,12 C 8.27,12.13 8.27,12.87 8,13 C 7.73,13.13 6.27,13.13 6,13 C 5.73,12.87 5.73,12.13 6,12 Z"/><path class="pb-outline" fill="none" stroke="#A58A2D" stroke-width="0.1875" stroke-linejoin="round" stroke-linecap="round" filter="url(#pb-shader-ink-shadow)" d="M 26,12 C 26.13,11.87 26.87,11.87 27,12 C 27.13,12.13 27.13,12.87 27,13 C 26.87,13.13 26.13,13.13 26,13 C 25.87,12.87 25.87,12.13 26,12 Z"/><path class="pb-outline" fill="none" stroke="#A58A2D" stroke-width="0.1875" stroke-linejoin="round" stroke-linecap="round" filter="url(#pb-shader-ink-shadow)" d="M 37,12 C 37.13,11.87 37.87,11.87 38,12 C 38.13,12.13 38.13,12.87 38,13 C 37.87,13.13 37.13,13.13 37,13 C 36.87,12.87 36.87,12.13 37,12 Z"/><path class="pb-outline" fill="none" stroke="#A58A2D" stroke-width="0.1875" stroke-linejoin="round" stroke-linecap="round" filter="url(#pb-shader-ink-shadow)" d="M 56,12 C 56.27,11.87 57.73,11.87 58,12 C 58.27,12.13 58.27,12.87 58,13 C 57.73,13.13 56.27,13.13 56,13 C 55.73,12.87 55.73,12.13 56,12 Z"/><path class="pb-outline" fill="none" stroke="#A58A2D" stroke-width="0.1875" stroke-linejoin="round" stroke-linecap="round" filter="url(#pb-shader-ink-shadow)" d="M 8,13 C 8.27,12.87 9.73,12.87 10,13 C 10.27,13.13 9.87,13.87 10,14 C 10.13,14.13 10.87,13.87 11,14 C 11.13,14.13 10.87,14.87 11,15 C 11.13,15.13 11.87,14.33 12,15 C 12.13,15.67 11.87,19.33 12,20 C 12.13,20.67 12.87,19.47 13,20 C 13.13,20.53 12.87,23.47 13,24 C 13.13,24.53 13.87,23.07 14,24 C 14.13,24.93 13.87,30.07 14,31 C 14.13,31.93 14.87,30.20 15,31 C 15.13,31.80 14.87,36.20 15,37 C 15.13,37.80 15.87,36.07 16,37 C 16.13,37.93 15.87,43.07 16,44 C 16.13,44.93 16.87,43.20 17,44 C 17.13,44.80 16.87,49.20 17,50 C 17.13,50.80 17.87,49.33 18,50 C 18.13,50.67 17.87,54.33 18,55 C 18.13,55.67 18.87,54.87 19,55 C 19.13,55.13 18.87,55.87 19,56 C 19.13,56.13 19.87,55.87 20,56 C 20.13,56.13 19.87,56.87 20,57 C 20.13,57.13 20.87,56.73 21,57 C 21.13,57.27 20.87,58.73 21,59 C 21.13,59.27 21.87,58.73 22,59 C 22.13,59.27 21.87,60.73 22,61 C 22.13,61.27 22.87,60.87 23,61 C 23.13,61.13 22.87,61.87 23,62 C 23.13,62.13 23.87,61.73 24,62 C 24.13,62.27 23.87,63.73 24,64 C 24.13,64.27 24.87,63.87 25,64 C 25.13,64.13 23.13,64.87 25,65 C 26.87,65.13 37.13,65.13 39,65 C 40.87,64.87 38.87,64.13 39,64 C 39.13,63.87 39.87,64.27 40,64 C 40.13,63.73 39.87,62.27 40,62 C 40.13,61.73 40.87,62.13 41,62 C 41.13,61.87 40.87,61.13 41,61 C 41.13,60.87 41.87,61.27 42,61 C 42.13,60.73 41.87,59.27 42,59 C 42.13,58.73 42.87,59.27 43,59 C 43.13,58.73 42.87,57.27 43,57 C 43.13,56.73 43.87,57.13 44,57 C 44.13,56.87 43.87,56.13 44,56 C 44.13,55.87 44.87,56.13 45,56 C 45.13,55.87 44.87,55.13 45,55 C 45.13,54.87 45.87,55.67 46,55 C 46.13,54.33 45.87,50.67 46,50 C 46.13,49.33 46.87,50.80 47,50 C 47.13,49.20 46.87,44.80 47,44 C 47.13,43.20 47.87,44.93 48,44 C 48.13,43.07 47.87,37.93 48,37 C 48.13,36.07 48.87,37.80 49,37 C 49.13,36.20 48.87,31.80 49,31 C 49.13,30.20 49.87,31.93 50,31 C 50.13,30.07 49.87,24.93 50,24 C 50.13,23.07 50.87,24.53 51,24 C 51.13,23.47 50.87,20.53 51,20 C 51.13,19.47 51.87,20.67 52,20 C 52.13,19.33 51.87,15.67 52,15 C 52.13,14.33 52.87,15.13 53,15 C 53.13,14.87 52.87,14.13 53,14 C 53.13,13.87 53.87,14.13 54,14 C 54.13,13.87 53.73,13.13 54,13 C 54.27,12.87 55.73,12.87 56,13 C 56.27,13.13 56.13,13.87 56,14 C 55.87,14.13 55.13,13.87 55,14 C 54.87,14.13 55.13,14.87 55,15 C 54.87,15.13 54.13,14.33 54,15 C 53.87,15.67 54.13,19.33 54,20 C 53.87,20.67 53.13,19.47 53,20 C 52.87,20.53 53.13,23.47 53,24 C 52.87,24.53 52.13,23.07 52,24 C 51.87,24.93 52.13,30.07 52,31 C 51.87,31.93 51.13,30.20 51,31 C 50.87,31.80 51.13,36.20 51,37 C 50.87,37.80 50.13,36.07 50,37 C 49.87,37.93 50.13,43.07 50,44 C 49.87,44.93 49.13,43.20 49,44 C 48.87,44.80 49.13,49.20 49,50 C 48.87,50.80 48.13,49.33 48,50 C 47.87,50.67 48.13,54.33 48,55 C 47.87,55.67 47.13,54.87 47,55 C 46.87,55.13 47.13,55.87 47,56 C 46.87,56.13 46.13,55.87 46,56 C 45.87,56.13 46.13,56.87 46,57 C 45.87,57.13 45.13,56.73 45,57 C 44.87,57.27 45.13,58.73 45,59 C 44.87,59.27 44.13,58.60 44,59 C 43.87,59.40 44.27,61.60 44,62 C 43.73,62.40 42.27,61.73 42,62 C 41.73,62.27 42.13,63.73 42,64 C 41.87,64.27 41.13,63.73 41,64 C 40.87,64.27 43.40,65.73 41,66 C 38.60,66.27 25.40,66.27 23,66 C 20.60,65.73 23.13,64.27 23,64 C 22.87,63.73 22.13,64.27 22,64 C 21.87,63.73 22.27,62.27 22,62 C 21.73,61.73 20.27,62.40 20,62 C 19.73,61.60 20.13,59.40 20,59 C 19.87,58.60 19.13,59.27 19,59 C 18.87,58.73 19.13,57.27 19,57 C 18.87,56.73 18.13,57.13 18,57 C 17.87,56.87 18.13,56.13 18,56 C 17.87,55.87 17.13,56.13 17,56 C 16.87,55.87 17.13,55.13 17,55 C 16.87,54.87 16.13,55.67 16,55 C 15.87,54.33 16.13,50.67 16,50 C 15.87,49.33 15.13,50.80 15,50 C 14.87,49.20 15.13,44.80 15,44 C 14.87,43.20 14.13,44.93 14,44 C 13.87,43.07 14.13,37.93 14,37 C 13.87,36.07 13.13,37.80 13,37 C 12.87,36.20 13.13,31.80 13,31 C 12.87,30.20 12.13,31.93 12,31 C 11.87,30.07 12.13,24.93 12,24 C 11.87,23.07 11.13,24.53 11,24 C 10.87,23.47 11.13,20.53 11,20 C 10.87,19.47 10.13,20.67 10,20 C 9.87,19.33 10.13,15.67 10,15 C 9.87,14.33 9.13,15.13 9,15 C 8.87,14.87 9.13,14.13 9,14 C 8.87,13.87 8.13,14.13 8,14 C 7.87,13.87 7.73,13.13 8,13 Z"/><path class="pb-outline" fill="none" stroke="#A58A2D" stroke-width="0.1875" stroke-linejoin="round" stroke-linecap="round" filter="url(#pb-shader-ink-shadow)" d="M 27,13 C 27.13,12.73 27.87,12.73 28,13 C 28.13,13.27 28.13,14.73 28,15 C 27.87,15.27 27.13,15.27 27,15 C 26.87,14.73 26.87,13.27 27,13 Z"/><path class="pb-outline" fill="none" stroke="#A58A2D" stroke-width="0.1875" stroke-linejoin="round" stroke-linecap="round" filter="url(#pb-shader-ink-shadow)" d="M 36,13 C 36.13,12.73 36.87,12.73 37,13 C 37.13,13.27 37.13,14.73 37,15 C 36.87,15.27 36.13,15.27 36,15 C 35.87,14.73 35.87,13.27 36,13 Z"/><path class="pb-outline" fill="none" stroke="#A58A2D" stroke-width="0.1875" stroke-linejoin="round" stroke-linecap="round" filter="url(#pb-shader-ink-shadow)" d="M 28,15 C 29.07,14.87 34.93,14.87 36,15 C 37.07,15.13 37.07,15.87 36,16 C 34.93,16.13 29.07,16.13 28,16 C 26.93,15.87 26.93,15.13 28,15 Z"/></g></svg>