<svg xmlns="http://www.w3.org/2000/svg" width="64" height="128" viewBox="0 0 64 128" shape-rendering="crispEdges">
  <rect x="45" y="15" width="1" height="1" fill="#565B66"/>
  <rect x="46" y="15" width="1" height="1" fill="#565B66"/>
  <rect x="45" y="16" width="1" height="1" fill="#565B66"/>
  <rect x="46" y="16" width="1" height="1" fill="#565B66"/>
  <rect x="45" y="17" width="1" height="1" fill="#8A8F98"/>
  <rect x="46" y="17" width="1" height="1" fill="#565B66"/>
  <rect x="45" y="18" width="1" height="1" fill="#565B66"/>
  <rect x="46" y="18" width="1" height="1" fill="#565B66"/>
  <rect x="44" y="19" width="1" height="1" fill="#565B66"/>
  <rect x="45" y="19" width="1" height="1" fill="#565B66"/>
  <rect x="46" y="19" width="1" height="1" fill="#565B66"/>
  <rect x="47" y="19" width="1" height="1" fill="#565B66"/>
  <rect x="44" y="20" width="1" height="1" fill="#565B66"/>
  <rect x="45" y="20" width="1" height="1" fill="#565B66"/>
  <rect x="46" y="20" width="1" height="1" fill="#565B66"/>
  <rect x="47" y="20" width="1" height="1" fill="#565B66"/>
  <rect x="44" y="21" width="1" height="1" fill="#565B66"/>
  <rect x="45" y="21" width="1" height="1" fill="#565B66"/>
  <rect x="46" y="21" width="1" height="1" fill="#565B66"/>
  <rect x="47" y="21" width="1" height="1" fill="#565B66"/>
  <rect x="44" y="22" width="1" height="1" fill="#8A8F98"/>
  <rect x="45" y="22" width="1" height="1" fill="#565B66"/>
  <rect x="46" y="22" width="1" height="1" fill="#565B66"/>
  <rect x="47" y="22" width="1" height="1" fill="#565B66"/>
  <rect x="44" y="23" width="1" height="1" fill="#8A8F98"/>
  <rect x="45" y="23" width="1" height="1" fill="#565B66"/>
  <rect x="46" y="23" width="1" height="1" fill="#23262E"/>
  <rect x="47" y="23" width="1" height="1" fill="#565B66"/>
  <rect x="44" y="24" width="1" height="1" fill="#8A8F98"/>
  <rect x="45" y="24" width="1" height="1" fill="#565B66"/>
  <rect x="46" y="24" width="1" height="1" fill="#23262E"/>
  <rect x="47" y="24" width="1" height="1" fill="#565B66"/>
  <rect x="44" y="25" width="1" height="1" fill="#8A8F98"/>
  <rect x="45" y="25" width="1" height="1" fill="#565B66"/>
  <rect x="46" y="25" width="1" height="1" fill="#23262E"/>
  <rect x="47" y="25" width="1" height="1" fill="#565B66"/>
  <rect x="44" y="26" width="1" height="1" fill="#8A8F98"/>
  <rect x="45" y="26" width="1" height="1" fill="#565B66"/>
  <rect x="46" y="26" width="1" height="1" fill="#23262E"/>
  <rect x="47" y="26" width="1" height="1" fill="#565B66"/>
  <rect x="44" y="27" width="1" height="1" fill="#8A8F98"/>
  <rect x="45" y="27" width="1" height="1" fill="#565B66"/>
  <rect x="46" y="27" width="1" height="1" fill="#23262E"/>
  <rect x="47" y="27" width="1" height="1" fill="#565B66"/>
  <rect x="44" y="28" width="1" height="1" fill="#8A8F98"/>
  <rect x="45" y="28" width="1" height="1" fill="#565B66"/>
  <rect x="46" y="28" width="1" height="1" fill="#23262E"/>
  <rect x="47" y="28" width="1" height="1" fill="#565B66"/>
  <rect x="44" y="29" width="1" height="1" fill="#8A8F98"/>
  <rect x="45" y="29" width="1" height="1" fill="#565B66"/>
  <rect x="46" y="29" width="1" height="1" fill="#23262E"/>
  <rect x="47" y="29" width="1" height="1" fill="#565B66"/>
  <rect x="44" y="30" width="1" height="1" fill="#8A8F98"/>
  <rect x="45" y="30" width="1" height="1" fill="#565B66"/>
  <rect x="46" y="30" width="1" height="1" fill="#23262E"/>
  <rect x="47" y="30" width="1" height="1" fill="#565B66"/>
  <rect x="44" y="31" width="1" height="1" fill="#8A8F98"/>
  <rect x="45" y="31" width="1" height="1" fill="#565B66"/>
  <rect x="46" y="31" width="1" height="1" fill="#23262E"/>
  <rect x="47" y="31" width="1" height="1" fill="#565B66"/>
  <rect x="44" y="32" width="1" height="1" fill="#8A8F98"/>
  <rect x="45" y="32" width="1" height="1" fill="#565B66"/>
  <rect x="46" y="32" width="1" height="1" fill="#23262E"/>
  <rect x="47" y="32" width="1" height="1" fill="#565B66"/>
  <rect x="44" y="33" width="1" height="1" fill="#8A8F98"/>
  <rect x="45" y="33" width="1" height="1" fill="#565B66"/>
  <rect x="46" y="33" width="1" height="1" fill="#23262E"/>
  <rect x="47" y="33" width="1" height="1" fill="#565B66"/>
  <rect x="44" y="34" width="1" height="1" fill="#8A8F98"/>
  <rect x="45" y="34" width="1" height="1" fill="#565B66"/>
  <rect x="46" y="34" width="1" height="1" fill="#23262E"/>
  <rect x="47" y="34" width="1" height="1" fill="#565B66"/>
  <rect x="44" y="35" width="1" height="1" fill="#8A8F98"/>
  <rect x="45" y="35" width="1" height="1" fill="#565B66"/>
  <rect x="46" y="35" width="1" height="1" fill="#23262E"/>
  <rect x="47" y="35" width="1" height="1" fill="#565B66"/>
  <rect x="44" y="36" width="1" height="1" fill="#8A8F98"/>
  <rect x="45" y="36" width="1" height="1" fill="#565B66"/>
  <rect x="46" y="36" width="1" height="1" fill="#23262E"/>
  <rect x="47" y="36" width="1" height="1" fill="#565B66"/>
  <rect x="44" y="37" width="1" height="1" fill="#8A8F98"/>
  <rect x="45" y="37" width="1" height="1" fill="#565B66"/>
  <rect x="46" y="37" width="1" height="1" fill="#23262E"/>
  <rect x="47" y="37" width="1" height="1" fill="#565B66"/>
  <rect x="44" y="38" width="1" height="1" fill="#8A8F98"/>
  <rect x="45" y="38" width="1" height="1" fill="#565B66"/>
  <rect x="46" y="38" width="1" height="1" fill="#23262E"/>
  <rect x="47" y="38" width="1" height="1" fill="#565B66"/>
  <rect x="44" y="39" width="1" height="1" fill="#8A8F98"/>
  <rect x="45" y="39" width="1" height="1" fill="#565B66"/>
  <rect x="46" y="39" width="1" height="1" fill="#23262E"/>
  <rect x="47" y="39" width="1" height="1" fill="#565B66"/>
  <rect x="44" y="40" width="1" height="1" fill="#8A8F98"/>
  <rect x="45" y="40" width="1" height="1" fill="#565B66"/>
  <rect x="46" y="40" width="1" height="1" fill="#23262E"/>
  <rect x="47" y="40" width="1" height="1" fill="#565B66"/>
  <rect x="44" y="41" width="1" height="1" fill="#8A8F98"/>
  <rect x="45" y="41" width="1" height="1" fill="#565B66"/>
  <rect x="46" y="41" width="1" height="1" fill="#23262E"/>
  <rect x="47" y="41" width="1" height="1" fill="#565B66"/>
  <rect x="44" y="42" width="1" height="1" fill="#8A8F98"/>
  <rect x="45" y="42" width="1" height="1" fill="#565B66"/>
  <rect x="46" y="42" width="1" height="1" fill="#23262E"/>
  <rect x="47" y="42" width="1" height="1" fill="#565B66"/>
  <rect x="44" y="43" width="1" height="1" fill="#8A8F98"/>
  <rect x="45" y="43" width="1" height="1" fill="#565B66"/>
  <rect x="46" y="43" width="1" height="1" fill="#23262E"/>
  <rect x="47" y="43" width="1" height="1" fill="#565B66"/>
  <rect x="44" y="44" width="1" height="1" fill="#8A8F98"/>
  <rect x="45" y="44" width="1" height="1" fill="#565B66"/>
  <rect x="46" y="44" width="1" height="1" fill="#23262E"/>
  <rect x="47" y="44" width="1" height="1" fill="#565B66"/>
  <rect x="44" y="45" width="1" height="1" fill="#8A8F98"/>
  <rect x="45" y="45" width="1" height="1" fill="#565B66"/>
  <rect x="46" y="45" width="1" height="1" fill="#23262E"/>
  <rect x="47" y="45" width="1" height="1" fill="#565B66"/>
  <rect x="44" y="46" width="1" height="1" fill="#8A8F98"/>
  <rect x="45" y="46" width="1" height="1" fill="#565B66"/>
  <rect x="46" y="46" width="1" height="1" fill="#23262E"/>
  <rect x="47" y="46" width="1" height="1" fill="#565B66"/>
  <rect x="44" y="47" width="1" height="1" fill="#8A8F98"/>
  <rect x="45" y="47" width="1" height="1" fill="#565B66"/>
  <rect x="46" y="47" width="1" height="1" fill="#23262E"/>
  <rect x="47" y="47" width="1" height="1" fill="#565B66"/>
  <rect x="44" y="48" width="1" height="1" fill="#8A8F98"/>
  <rect x="45" y="48" width="1" height="1" fill="#565B66"/>
  <rect x="46" y="48" width="1" height="1" fill="#23262E"/>
  <rect x="47" y="48" width="1" height="1" fill="#565B66"/>
  <rect x="44" y="49" width="1" height="1" fill="#8A8F98"/>
  <rect x="45" y="49" width="1" height="1" fill="#565B66"/>
  <rect x="46" y="49" width="1" height="1" fill="#23262E"/>
  <rect x="47" y="49" width="1" height="1" fill="#565B66"/>
  <rect x="44" y="50" width="1" height="1" fill="#8A8F98"/>
  <rect x="45" y="50" width="1" height="1" fill="#565B66"/>
  <rect x="46" y="50" width="1" height="1" fill="#23262E"/>
  <rect x="47" y="50" width="1" height="1" fill="#565B66"/>
  <rect x="44" y="51" width="1" height="1" fill="#8A8F98"/>
  <rect x="45" y="51" width="1" height="1" fill="#565B66"/>
  <rect x="46" y="51" width="1" height="1" fill="#23262E"/>
  <rect x="47" y="51" width="1" height="1" fill="#565B66"/>
  <rect x="44" y="52" width="1" height="1" fill="#8A8F98"/>
  <rect x="45" y="52" width="1" height="1" fill="#565B66"/>
  <rect x="46" y="52" width="1" height="1" fill="#565B66"/>
  <rect x="47" y="52" width="1" height="1" fill="#565B66"/>
  <rect x="44" y="53" width="1" height="1" fill="#8A8F98"/>
  <rect x="45" y="53" width="1" height="1" fill="#565B66"/>
  <rect x="46" y="53" width="1" height="1" fill="#565B66"/>
  <rect x="47" y="53" width="1" height="1" fill="#565B66"/>
  <rect x="44" y="54" width="1" height="1" fill="#8A8F98"/>
  <rect x="45" y="54" width="1" height="1" fill="#565B66"/>
  <rect x="46" y="54" width="1" height="1" fill="#565B66"/>
  <rect x="47" y="54" width="1" height="1" fill="#565B66"/>
  <rect x="48" y="23" width="1" height="1" fill="#2E323B"/>
  <rect x="48" y="24" width="1" height="1" fill="#2E323B"/>
  <rect x="48" y="25" width="1" height="1" fill="#2E323B"/>
  <rect x="48" y="26" width="1" height="1" fill="#2E323B"/>
  <rect x="48" y="27" width="1" height="1" fill="#2E323B"/>
  <rect x="48" y="28" width="1" height="1" fill="#2E323B"/>
  <rect x="48" y="29" width="1" height="1" fill="#2E323B"/>
  <rect x="48" y="30" width="1" height="1" fill="#2E323B"/>
  <rect x="48" y="31" width="1" height="1" fill="#2E323B"/>
  <rect x="48" y="32" width="1" height="1" fill="#2E323B"/>
  <rect x="48" y="33" width="1" height="1" fill="#2E323B"/>
  <rect x="48" y="34" width="1" height="1" fill="#2E323B"/>
  <rect x="48" y="35" width="1" height="1" fill="#2E323B"/>
  <rect x="48" y="36" width="1" height="1" fill="#2E323B"/>
  <rect x="48" y="37" width="1" height="1" fill="#2E323B"/>
  <rect x="48" y="38" width="1" height="1" fill="#2E323B"/>
  <rect x="48" y="39" width="1" height="1" fill="#2E323B"/>
  <rect x="48" y="40" width="1" height="1" fill="#2E323B"/>
  <rect x="48" y="41" width="1" height="1" fill="#2E323B"/>
  <rect x="48" y="42" width="1" height="1" fill="#2E323B"/>
  <rect x="48" y="43" width="1" height="1" fill="#2E323B"/>
  <rect x="48" y="44" width="1" height="1" fill="#2E323B"/>
  <rect x="48" y="45" width="1" height="1" fill="#2E323B"/>
  <rect x="48" y="46" width="1" height="1" fill="#2E323B"/>
  <rect x="48" y="47" width="1" height="1" fill="#2E323B"/>
  <rect x="48" y="48" width="1" height="1" fill="#2E323B"/>
  <rect x="48" y="49" width="1" height="1" fill="#2E323B"/>
  <rect x="48" y="50" width="1" height="1" fill="#2E323B"/>
  <rect x="48" y="51" width="1" height="1" fill="#2E323B"/>
  <rect x="48" y="52" width="1" height="1" fill="#2E323B"/>
  <rect x="48" y="53" width="1" height="1" fill="#2E323B"/>
  <rect x="48" y="54" width="1" height="1" fill="#2E323B"/>
  <rect x="46" y="8" width="1" height="1" fill="#FFB347"/>
  <rect x="46" y="9" width="1" height="1" fill="#FFB347"/>
  <rect x="46" y="10" width="1" height="1" fill="#FFF3C4"/>
  <rect x="46" y="11" width="1" height="1" fill="#F97316"/>
  <rect x="46" y="12" width="1" height="1" fill="#FFF3C4"/>
  <rect x="49" y="24" width="1" height="1" fill="#F97316"/>
  <rect x="43" y="26" width="1" height="1" fill="#B45309"/>
  <rect x="49" y="26" width="1" height="1" fill="#F97316"/>
  <rect x="49" y="27" width="1" height="1" fill="#FFB347"/>
  <rect x="49" y="36" width="1" height="1" fill="#F97316"/>
  <rect x="43" y="31" width="1" height="1" fill="#B45309"/>
  <rect x="49" y="46" width="1" height="1" fill="#B45309"/>
  <rect x="43" y="44" width="1" height="1" fill="#B45309"/>
  <rect x="41" y="55" width="1" height="1" fill="#D4A017"/>
  <rect x="42" y="55" width="1" height="1" fill="#FFE08A"/>
  <rect x="43" y="55" width="1" height="1" fill="#FFE08A"/>
  <rect x="44" y="55" width="1" height="1" fill="#FFE08A"/>
  <rect x="45" y="55" width="1" height="1" fill="#FFE08A"/>
  <rect x="46" y="55" width="1" height="1" fill="#FFE08A"/>
  <rect x="47" y="55" width="1" height="1" fill="#FFE08A"/>
  <rect x="48" y="55" width="1" height="1" fill="#FFE08A"/>
  <rect x="49" y="55" width="1" height="1" fill="#FFE08A"/>
  <rect x="50" y="55" width="1" height="1" fill="#FFE08A"/>
  <rect x="41" y="56" width="1" height="1" fill="#D4A017"/>
  <rect x="42" y="56" width="1" height="1" fill="#D4A017"/>
  <rect x="43" y="56" width="1" height="1" fill="#D4A017"/>
  <rect x="44" y="56" width="1" height="1" fill="#D4A017"/>
  <rect x="45" y="56" width="1" height="1" fill="#D4A017"/>
  <rect x="46" y="56" width="1" height="1" fill="#D4A017"/>
  <rect x="47" y="56" width="1" height="1" fill="#D4A017"/>
  <rect x="48" y="56" width="1" height="1" fill="#D4A017"/>
  <rect x="49" y="56" width="1" height="1" fill="#D4A017"/>
  <rect x="42" y="57" width="1" height="1" fill="#D4A017"/>
  <rect x="43" y="57" width="1" height="1" fill="#D4A017"/>
  <rect x="44" y="57" width="1" height="1" fill="#D4A017"/>
  <rect x="45" y="57" width="1" height="1" fill="#D4A017"/>
  <rect x="46" y="57" width="1" height="1" fill="#D4A017"/>
  <rect x="47" y="57" width="1" height="1" fill="#D4A017"/>
  <rect x="48" y="57" width="1" height="1" fill="#D4A017"/>
  <rect x="49" y="57" width="1" height="1" fill="#D4A017"/>
  <rect x="42" y="58" width="1" height="1" fill="#8A6A10"/>
  <rect x="43" y="58" width="1" height="1" fill="#8A6A10"/>
  <rect x="44" y="58" width="1" height="1" fill="#8A6A10"/>
  <rect x="45" y="58" width="1" height="1" fill="#8A6A10"/>
  <rect x="46" y="58" width="1" height="1" fill="#8A6A10"/>
  <rect x="47" y="58" width="1" height="1" fill="#8A6A10"/>
  <rect x="48" y="58" width="1" height="1" fill="#8A6A10"/>
  <rect x="49" y="58" width="1" height="1" fill="#8A6A10"/>
  <rect x="50" y="58" width="1" height="1" fill="#8A6A10"/>
  <rect x="40" y="54" width="1" height="1" fill="#FFE08A"/>
  <rect x="51" y="54" width="1" height="1" fill="#8A6A10"/>
  <rect x="45" y="59" width="1" height="1" fill="#6B4A2B"/>
  <rect x="46" y="59" width="1" height="1" fill="#6B4A2B"/>
  <rect x="45" y="60" width="1" height="1" fill="#4A3018"/>
  <rect x="46" y="60" width="1" height="1" fill="#4A3018"/>
  <rect x="45" y="61" width="1" height="1" fill="#6B4A2B"/>
  <rect x="46" y="61" width="1" height="1" fill="#6B4A2B"/>
  <rect x="45" y="62" width="1" height="1" fill="#4A3018"/>
  <rect x="46" y="62" width="1" height="1" fill="#4A3018"/>
  <rect x="45" y="63" width="1" height="1" fill="#6B4A2B"/>
  <rect x="46" y="63" width="1" height="1" fill="#6B4A2B"/>
  <rect x="45" y="64" width="1" height="1" fill="#4A3018"/>
  <rect x="46" y="64" width="1" height="1" fill="#4A3018"/>
  <rect x="45" y="65" width="1" height="1" fill="#6B4A2B"/>
  <rect x="46" y="65" width="1" height="1" fill="#6B4A2B"/>
  <rect x="45" y="66" width="1" height="1" fill="#FFF3C4"/>
  <rect x="46" y="66" width="1" height="1" fill="#F97316"/>
  <rect x="45" y="67" width="1" height="1" fill="#F97316"/>
  <rect x="46" y="67" width="1" height="1" fill="#B45309"/>
</svg>