<svg xmlns="http://www.w3.org/2000/svg" width="1600" height="900" viewBox="0 0 1600 900" fill="none">
<defs>
  <linearGradient id="ring" x1="420" y1="650" x2="1160" y2="190" gradientUnits="userSpaceOnUse">
    <stop stop-color="#7A42FF"/>
    <stop offset=".45" stop-color="#F6F2E6"/>
    <stop offset=".72" stop-color="#D8952C"/>
    <stop offset="1" stop-color="#00E0FF"/>
  </linearGradient>
  <filter id="softGlow" x="-40%" y="-40%" width="180%" height="180%">
    <feGaussianBlur stdDeviation="8" result="blur"/>
    <feMerge><feMergeNode in="blur"/><feMergeNode in="SourceGraphic"/></feMerge>
  </filter>
  <pattern id="grid" width="56" height="56" patternUnits="userSpaceOnUse">
    <path d="M56 0H0V56" stroke="#FFFFFF" stroke-opacity=".035"/>
  </pattern>
</defs>
<rect width="1600" height="900" fill="url(#grid)"/>
<g opacity=".38">
  <path d="M100 600C400 470 615 500 900 390C1080 320 1220 235 1500 260" stroke="#7A42FF" stroke-opacity=".18" stroke-width="3"/>
  <path d="M190 650C505 530 715 560 995 430C1175 346 1300 326 1510 346" stroke="#00E0FF" stroke-opacity=".13" stroke-width="2"/>
</g>
<g transform="translate(730 410)" filter="url(#softGlow)">
  <circle r="174" stroke="#D8952C" stroke-opacity=".35" stroke-width="2"/>
  <circle r="238" stroke="#7A42FF" stroke-opacity=".18" stroke-width="2"/>
  <ellipse rx="480" ry="72" transform="rotate(-8)" stroke="url(#ring)" stroke-opacity=".92" stroke-width="7"/>
  <ellipse rx="520" ry="92" transform="rotate(-8)" stroke="#F6F2E6" stroke-opacity=".18" stroke-width="2"/>
  <ellipse rx="380" ry="48" transform="rotate(-8)" stroke="#D8952C" stroke-opacity=".28" stroke-width="2"/>
  <circle r="126" stroke="#F6F2E6" stroke-opacity=".52" stroke-width="3"/>
</g>
<g stroke="#F6F2E6" stroke-opacity=".11">
  <path d="M730 110v600M430 410h600"/>
  <circle cx="730" cy="410" r="300"/>
  <circle cx="730" cy="410" r="370"/>
  <path d="M518 198l424 424M942 198 518 622"/>
</g>
<g fill="#F6F2E6" opacity=".45">
  <circle cx="265" cy="210" r="2"/>
  <circle cx="355" cy="620" r="2"/>
  <circle cx="1110" cy="228" r="2"/>
  <circle cx="1235" cy="522" r="1.5"/>
  <circle cx="1328" cy="170" r="1.5"/>
  <circle cx="565" cy="132" r="1.5"/>
  <circle cx="1015" cy="700" r="1.5"/>
</g>
</svg>
