<svg xmlns="http://www.w3.org/2000/svg" viewBox="0 0 32 48" width="32" height="48" class="pb-character school-void"><filter id="pb-shader-ink-shadow" x="-35%" y="-35%" width="170%" height="170%" color-interpolation-filters="sRGB"><feDropShadow dx="0.9000" dy="1.2000" stdDeviation="0.6500" flood-color="#05060a" flood-opacity="0.72"/></filter><filter id="pb-shader-ice-glow" x="-80%" y="-80%" width="260%" height="260%" color-interpolation-filters="sRGB"><feGaussianBlur in="SourceAlpha" stdDeviation="1.3500" result="blur"/><feFlood flood-color="#42d9ff" flood-opacity="0.72" result="glowColor"/><feComposite in="glowColor" in2="blur" operator="in" result="glow"/><feMerge><feMergeNode in="glow"/><feMergeNode in="SourceGraphic"/></feMerge></filter><filter id="pb-shader-crystal-rim" x="-45%" y="-45%" width="190%" height="190%" color-interpolation-filters="sRGB"><feTurbulence type="fractalNoise" baseFrequency="0.9000" numOctaves="2" seed="14" result="noise"/><feColorMatrix in="noise" type="matrix" values="0 0 0 0 0.82 0 0 0 0 0.96 0 0 0 0 1 0 0 0 0.38 0" result="spark"/><feBlend in="SourceGraphic" in2="spark" mode="screen"/></filter><filter id="pb-shader-melt-field" x="-50%" y="-20%" width="200%" height="160%" color-interpolation-filters="sRGB"><feTurbulence type="fractalNoise" baseFrequency="0.0450 0.1800" numOctaves="2" seed="26" result="meltNoise"/><feDisplacementMap in="SourceGraphic" in2="meltNoise" scale="1.6500" xChannelSelector="R" yChannelSelector="G"/></filter><g class="pb-fills"><path class="pb-part-hair" fill="#3A2070" d="M 11,2 L 22,2 L 22,5 L 21,5 L 21,6 L 20,6 L 20,7 L 19,7 L 19,6 L 14,6 L 14,7 L 13,7 L 13,6 L 12,6 L 12,5 L 11,5 Z"/><path class="pb-part-body" fill="#786890" d="M 10,5 L 12,5 L 12,6 L 13,6 L 13,7 L 14,7 L 14,6 L 19,6 L 19,7 L 20,7 L 20,6 L 21,6 L 21,5 L 23,5 L 23,7 L 24,7 L 24,10 L 23,10 L 23,11 L 22,11 L 22,12 L 21,12 L 21,13 L 20,13 L 20,14 L 19,14 L 19,18 L 14,18 L 14,14 L 13,14 L 13,13 L 12,13 L 12,12 L 11,12 L 11,9 L 13,9 L 13,11 L 10,11 L 10,10 L 9,10 L 9,7 L 10,7 Z"/><path class="pb-part-body" fill="#786890" d="M 19,9 L 21,9 L 21,11 L 19,11 Z"/><path class="pb-part-body" fill="#786890" d="M 16,11 L 17,11 L 17,12 L 18,12 L 18,13 L 16,13 Z"/><path class="pb-part-body" fill="#786890" d="M 24,21 L 25,21 L 25,22 L 26,22 L 26,26 L 27,26 L 27,29 L 26,29 L 26,38 L 25,38 L 25,41 L 24,41 L 24,24 L 23,24 L 23,23 L 24,23 Z"/><path class="pb-part-body" fill="#786890" d="M 8,23 L 10,23 L 10,24 L 8,24 Z"/><path class="pb-part-body" fill="#786890" d="M 8,28 L 9,28 L 9,41 L 8,41 L 8,38 L 7,38 L 7,31 L 8,31 Z"/><path class="pb-part-body" fill="#786890" d="M 10,43 L 12,43 L 12,45 L 11,45 L 11,44 L 10,44 Z"/><path class="pb-part-body" fill="#786890" d="M 21,43 L 23,43 L 23,44 L 22,44 L 22,45 L 21,45 Z"/><path class="pb-part-leftEye" fill="#6050F0" d="M 11,9 L 13,9 L 13,11 L 11,11 Z"/><path class="pb-part-rightEye" fill="#4038C0" d="M 19,9 L 21,9 L 21,11 L 19,11 Z"/><path class="pb-part-nose" fill="#9080A8" d="M 16,11 L 17,11 L 17,12 L 16,12 Z"/><path class="pb-part-mouth" fill="#9080A8" d="M 16,12 L 18,12 L 18,13 L 16,13 Z"/><path class="pb-part-top" fill="#989080" d="M 9,18 L 24,18 L 24,23 L 23,23 L 23,27 L 24,27 L 24,29 L 23,29 L 23,31 L 22,31 L 22,33 L 11,33 L 11,31 L 10,31 L 10,29 L 9,29 L 9,27 L 10,27 L 10,23 L 9,23 Z"/><path class="pb-part-bottom" fill="#807870" d="M 9,24 L 10,24 L 10,27 L 9,27 Z"/><path class="pb-part-bottom" fill="#807870" d="M 23,24 L 24,24 L 24,27 L 23,27 Z"/><path class="pb-part-bottom" fill="#807870" d="M 9,29 L 10,29 L 10,31 L 11,31 L 11,33 L 16,33 L 16,40 L 12,40 L 12,43 L 9,43 Z"/><path class="pb-part-bottom" fill="#807870" d="M 23,29 L 24,29 L 24,43 L 21,43 L 21,40 L 17,40 L 17,33 L 22,33 L 22,31 L 23,31 Z"/><path class="pb-part-shoes" fill="#6A4030" d="M 12,40 L 21,40 L 21,46 L 12,46 Z"/></g><g class="pb-shading" opacity="0.45"><path class="pb-part-hair-shadow" fill="#000001" filter="url(#pb-shader-melt-field)" d="M 12,3 L 21,3 L 21,5 L 20,5 L 20,4 L 13,4 L 13,5 L 12,5 Z"/><path class="pb-part-body-shadow" fill="#332c3d" filter="url(#pb-shader-melt-field)" d="M 11,5 L 12,5 L 12,7 L 11,7 Z"/><path class="pb-part-body-shadow" fill="#332c3d" filter="url(#pb-shader-melt-field)" d="M 21,5 L 22,5 L 22,7 L 21,7 Z"/><path class="pb-part-body-shadow" fill="#332c3d" filter="url(#pb-shader-melt-field)" d="M 10,7 L 11,7 L 11,10 L 10,10 Z"/><path class="pb-part-body-shadow" fill="#332c3d" filter="url(#pb-shader-melt-field)" d="M 22,7 L 23,7 L 23,10 L 22,10 Z"/><path class="pb-part-body-shadow" fill="#332c3d" filter="url(#pb-shader-melt-field)" d="M 21,10 L 22,10 L 22,11 L 21,11 Z"/><path class="pb-part-body-shadow" fill="#332c3d" filter="url(#pb-shader-melt-field)" d="M 12,11 L 13,11 L 13,12 L 12,12 Z"/><path class="pb-part-body-shadow" fill="#332c3d" filter="url(#pb-shader-melt-field)" d="M 20,11 L 21,11 L 21,12 L 20,12 Z"/><path class="pb-part-body-shadow" fill="#332c3d" filter="url(#pb-shader-melt-field)" d="M 13,12 L 14,12 L 14,13 L 13,13 Z"/><path class="pb-part-body-shadow" fill="#332c3d" filter="url(#pb-shader-melt-field)" d="M 19,12 L 20,12 L 20,13 L 19,13 Z"/><path class="pb-part-body-shadow" fill="#332c3d" filter="url(#pb-shader-melt-field)" d="M 14,13 L 15,13 L 15,14 L 14,14 Z"/><path class="pb-part-body-shadow" fill="#332c3d" filter="url(#pb-shader-melt-field)" d="M 18,13 L 19,13 L 19,14 L 18,14 Z"/><path class="pb-part-body-shadow" fill="#332c3d" filter="url(#pb-shader-melt-field)" d="M 15,14 L 16,14 L 16,18 L 15,18 Z"/><path class="pb-part-body-shadow" fill="#332c3d" filter="url(#pb-shader-melt-field)" d="M 17,14 L 18,14 L 18,18 L 17,18 Z"/><path class="pb-part-body-shadow" fill="#332c3d" filter="url(#pb-shader-melt-field)" d="M 24,22 L 25,22 L 25,26 L 24,26 Z"/><path class="pb-part-body-shadow" fill="#332c3d" filter="url(#pb-shader-melt-field)" d="M 9,23 L 10,23 L 10,24 L 9,24 Z"/><path class="pb-part-body-shadow" fill="#332c3d" filter="url(#pb-shader-melt-field)" d="M 25,26 L 26,26 L 26,29 L 25,29 Z"/><path class="pb-part-body-shadow" fill="#332c3d" filter="url(#pb-shader-melt-field)" d="M 24,29 L 25,29 L 25,38 L 24,38 Z"/><path class="pb-part-body-shadow" fill="#332c3d" filter="url(#pb-shader-melt-field)" d="M 8,31 L 9,31 L 9,38 L 8,38 Z"/><path class="pb-part-body-shadow" fill="#332c3d" filter="url(#pb-shader-melt-field)" d="M 11,43 L 12,43 L 12,44 L 11,44 Z"/><path class="pb-part-body-shadow" fill="#332c3d" filter="url(#pb-shader-melt-field)" d="M 21,43 L 22,43 L 22,44 L 21,44 Z"/><path class="pb-part-top-shadow" fill="#4c473d" filter="url(#pb-shader-melt-field)" d="M 14,18 L 15,18 L 15,19 L 14,19 Z"/><path class="pb-part-top-shadow" fill="#4c473d" filter="url(#pb-shader-melt-field)" d="M 18,18 L 19,18 L 19,19 L 18,19 Z"/><path class="pb-part-top-shadow" fill="#4c473d" filter="url(#pb-shader-melt-field)" d="M 10,19 L 14,19 L 14,20 L 11,20 L 11,23 L 10,23 Z"/><path class="pb-part-top-shadow" fill="#4c473d" filter="url(#pb-shader-melt-field)" d="M 19,19 L 23,19 L 23,21 L 22,21 L 22,20 L 19,20 Z"/><path class="pb-part-top-shadow" fill="#4c473d" filter="url(#pb-shader-melt-field)" d="M 23,21 L 24,21 L 24,22 L 23,22 Z"/><path class="pb-part-top-shadow" fill="#4c473d" filter="url(#pb-shader-melt-field)" d="M 10,27 L 11,27 L 11,28 L 10,28 Z"/><path class="pb-part-top-shadow" fill="#4c473d" filter="url(#pb-shader-melt-field)" d="M 9,28 L 10,28 L 10,29 L 9,29 Z"/><path class="pb-part-top-shadow" fill="#4c473d" filter="url(#pb-shader-melt-field)" d="M 16,31 L 17,31 L 17,32 L 16,32 Z"/><path class="pb-part-top-shadow" fill="#4c473d" filter="url(#pb-shader-melt-field)" d="M 15,32 L 16,32 L 16,33 L 15,33 Z"/><path class="pb-part-top-shadow" fill="#4c473d" filter="url(#pb-shader-melt-field)" d="M 17,32 L 18,32 L 18,33 L 17,33 Z"/><path class="pb-part-bottom-shadow" fill="#34312d" filter="url(#pb-shader-melt-field)" d="M 14,33 L 15,33 L 15,40 L 14,40 Z"/><path class="pb-part-bottom-shadow" fill="#34312d" filter="url(#pb-shader-melt-field)" d="M 18,33 L 19,33 L 19,40 L 18,40 Z"/><path class="pb-part-bottom-shadow" fill="#34312d" filter="url(#pb-shader-melt-field)" d="M 9,40 L 10,40 L 10,41 L 9,41 Z"/><path class="pb-part-bottom-shadow" fill="#34312d" filter="url(#pb-shader-melt-field)" d="M 23,40 L 24,40 L 24,41 L 23,41 Z"/><path class="pb-part-bottom-shadow" fill="#34312d" filter="url(#pb-shader-melt-field)" d="M 10,41 L 11,41 L 11,43 L 10,43 Z"/><path class="pb-part-bottom-shadow" fill="#34312d" filter="url(#pb-shader-melt-field)" d="M 22,41 L 23,41 L 23,43 L 22,43 Z"/><path class="pb-part-shoes-shadow" fill="#080503" filter="url(#pb-shader-melt-field)" d="M 15,40 L 16,40 L 16,41 L 15,41 Z"/><path class="pb-part-shoes-shadow" fill="#080503" filter="url(#pb-shader-melt-field)" d="M 17,40 L 18,40 L 18,41 L 17,41 Z"/><path class="pb-part-shoes-shadow" fill="#080503" filter="url(#pb-shader-melt-field)" d="M 16,41 L 17,41 L 17,42 L 16,42 Z"/><path class="pb-part-shoes-shadow" fill="#080503" filter="url(#pb-shader-melt-field)" d="M 12,44 L 21,44 L 21,45 L 12,45 Z"/></g><g class="pb-outlines"><path class="pb-outline" fill="none" stroke="#1A1030" stroke-width="1.5" stroke-linejoin="round" stroke-linecap="round" filter="url(#pb-shader-ink-shadow)" d="M 11,2 L 22,2 L 22,5 L 21,5 L 21,3 L 12,3 L 12,5 L 11,5 Z"/><path class="pb-outline" fill="none" stroke="#1A1030" stroke-width="1.5" stroke-linejoin="round" stroke-linecap="round" filter="url(#pb-shader-ink-shadow)" d="M 10,5 L 11,5 L 11,7 L 10,7 Z"/><path class="pb-outline" fill="none" stroke="#1A1030" stroke-width="1.5" stroke-linejoin="round" stroke-linecap="round" filter="url(#pb-shader-ink-shadow)" d="M 22,5 L 23,5 L 23,7 L 22,7 Z"/><path class="pb-outline" fill="none" stroke="#1A1030" stroke-width="1.5" stroke-linejoin="round" stroke-linecap="round" filter="url(#pb-shader-ink-shadow)" d="M 9,7 L 10,7 L 10,10 L 9,10 Z"/><path class="pb-outline" fill="none" stroke="#1A1030" stroke-width="1.5" stroke-linejoin="round" stroke-linecap="round" filter="url(#pb-shader-ink-shadow)" d="M 23,7 L 24,7 L 24,10 L 23,10 Z"/><path class="pb-outline" fill="none" stroke="#1A1030" stroke-width="1.5" stroke-linejoin="round" stroke-linecap="round" filter="url(#pb-shader-ink-shadow)" d="M 10,10 L 11,10 L 11,11 L 10,11 Z"/><path class="pb-outline" fill="none" stroke="#1A1030" stroke-width="1.5" stroke-linejoin="round" stroke-linecap="round" filter="url(#pb-shader-ink-shadow)" d="M 22,10 L 23,10 L 23,11 L 22,11 Z"/><path class="pb-outline" fill="none" stroke="#1A1030" stroke-width="1.5" stroke-linejoin="round" stroke-linecap="round" filter="url(#pb-shader-ink-shadow)" d="M 11,11 L 12,11 L 12,12 L 11,12 Z"/><path class="pb-outline" fill="none" stroke="#1A1030" stroke-width="1.5" stroke-linejoin="round" stroke-linecap="round" filter="url(#pb-shader-ink-shadow)" d="M 21,11 L 22,11 L 22,12 L 21,12 Z"/><path class="pb-outline" fill="none" stroke="#1A1030" stroke-width="1.5" stroke-linejoin="round" stroke-linecap="round" filter="url(#pb-shader-ink-shadow)" d="M 12,12 L 13,12 L 13,13 L 12,13 Z"/><path class="pb-outline" fill="none" stroke="#1A1030" stroke-width="1.5" stroke-linejoin="round" stroke-linecap="round" filter="url(#pb-shader-ink-shadow)" d="M 20,12 L 21,12 L 21,13 L 20,13 Z"/><path class="pb-outline" fill="none" stroke="#1A1030" stroke-width="1.5" stroke-linejoin="round" stroke-linecap="round" filter="url(#pb-shader-ink-shadow)" d="M 13,13 L 14,13 L 14,14 L 13,14 Z"/><path class="pb-outline" fill="none" stroke="#1A1030" stroke-width="1.5" stroke-linejoin="round" stroke-linecap="round" filter="url(#pb-shader-ink-shadow)" d="M 19,13 L 20,13 L 20,14 L 19,14 Z"/><path class="pb-outline" fill="none" stroke="#1A1030" stroke-width="1.5" stroke-linejoin="round" stroke-linecap="round" filter="url(#pb-shader-ink-shadow)" d="M 14,14 L 15,14 L 15,18 L 14,18 Z"/><path class="pb-outline" fill="none" stroke="#1A1030" stroke-width="1.5" stroke-linejoin="round" stroke-linecap="round" filter="url(#pb-shader-ink-shadow)" d="M 18,14 L 19,14 L 19,18 L 18,18 Z"/><path class="pb-outline" fill="none" stroke="#1A1030" stroke-width="1.5" stroke-linejoin="round" stroke-linecap="round" filter="url(#pb-shader-ink-shadow)" d="M 9,18 L 14,18 L 14,19 L 10,19 L 10,23 L 9,23 Z"/><path class="pb-outline" fill="none" stroke="#1A1030" stroke-width="1.5" stroke-linejoin="round" stroke-linecap="round" filter="url(#pb-shader-ink-shadow)" d="M 19,18 L 24,18 L 24,21 L 23,21 L 23,19 L 19,19 Z"/><path class="pb-outline" fill="none" stroke="#1A1030" stroke-width="1.5" stroke-linejoin="round" stroke-linecap="round" filter="url(#pb-shader-ink-shadow)" d="M 24,21 L 25,21 L 25,22 L 24,22 Z"/><path class="pb-outline" fill="none" stroke="#1A1030" stroke-width="1.5" stroke-linejoin="round" stroke-linecap="round" filter="url(#pb-shader-ink-shadow)" d="M 25,22 L 26,22 L 26,26 L 25,26 Z"/><path class="pb-outline" fill="none" stroke="#1A1030" stroke-width="1.5" stroke-linejoin="round" stroke-linecap="round" filter="url(#pb-shader-ink-shadow)" d="M 8,23 L 9,23 L 9,24 L 8,24 Z"/><path class="pb-outline" fill="none" stroke="#1A1030" stroke-width="1.5" stroke-linejoin="round" stroke-linecap="round" filter="url(#pb-shader-ink-shadow)" d="M 9,24 L 10,24 L 10,28 L 9,28 Z"/><path class="pb-outline" fill="none" stroke="#1A1030" stroke-width="1.5" stroke-linejoin="round" stroke-linecap="round" filter="url(#pb-shader-ink-shadow)" d="M 26,26 L 27,26 L 27,29 L 26,29 Z"/><path class="pb-outline" fill="none" stroke="#1A1030" stroke-width="1.5" stroke-linejoin="round" stroke-linecap="round" filter="url(#pb-shader-ink-shadow)" d="M 8,28 L 9,28 L 9,31 L 8,31 Z"/><path class="pb-outline" fill="none" stroke="#1A1030" stroke-width="1.5" stroke-linejoin="round" stroke-linecap="round" filter="url(#pb-shader-ink-shadow)" d="M 25,29 L 26,29 L 26,38 L 25,38 Z"/><path class="pb-outline" fill="none" stroke="#1A1030" stroke-width="1.5" stroke-linejoin="round" stroke-linecap="round" filter="url(#pb-shader-ink-shadow)" d="M 7,31 L 8,31 L 8,38 L 7,38 Z"/><path class="pb-outline" fill="none" stroke="#1A1030" stroke-width="1.5" stroke-linejoin="round" stroke-linecap="round" filter="url(#pb-shader-ink-shadow)" d="M 16,32 L 17,32 L 17,33 L 16,33 Z"/><path class="pb-outline" fill="none" stroke="#1A1030" stroke-width="1.5" stroke-linejoin="round" stroke-linecap="round" filter="url(#pb-shader-ink-shadow)" d="M 15,33 L 16,33 L 16,40 L 15,40 Z"/><path class="pb-outline" fill="none" stroke="#1A1030" stroke-width="1.5" stroke-linejoin="round" stroke-linecap="round" filter="url(#pb-shader-ink-shadow)" d="M 17,33 L 18,33 L 18,40 L 17,40 Z"/><path class="pb-outline" fill="none" stroke="#1A1030" stroke-width="1.5" stroke-linejoin="round" stroke-linecap="round" filter="url(#pb-shader-ink-shadow)" d="M 8,38 L 9,38 L 9,41 L 8,41 Z"/><path class="pb-outline" fill="none" stroke="#1A1030" stroke-width="1.5" stroke-linejoin="round" stroke-linecap="round" filter="url(#pb-shader-ink-shadow)" d="M 24,38 L 25,38 L 25,41 L 24,41 Z"/><path class="pb-outline" fill="none" stroke="#1A1030" stroke-width="1.5" stroke-linejoin="round" stroke-linecap="round" filter="url(#pb-shader-ink-shadow)" d="M 16,40 L 17,40 L 17,41 L 16,41 Z"/><path class="pb-outline" fill="none" stroke="#1A1030" stroke-width="1.5" stroke-linejoin="round" stroke-linecap="round" filter="url(#pb-shader-ink-shadow)" d="M 9,41 L 10,41 L 10,43 L 9,43 Z"/><path class="pb-outline" fill="none" stroke="#1A1030" stroke-width="1.5" stroke-linejoin="round" stroke-linecap="round" filter="url(#pb-shader-ink-shadow)" d="M 23,41 L 24,41 L 24,43 L 23,43 Z"/><path class="pb-outline" fill="none" stroke="#1A1030" stroke-width="1.5" stroke-linejoin="round" stroke-linecap="round" filter="url(#pb-shader-ink-shadow)" d="M 10,43 L 11,43 L 11,44 L 10,44 Z"/><path class="pb-outline" fill="none" stroke="#1A1030" stroke-width="1.5" stroke-linejoin="round" stroke-linecap="round" filter="url(#pb-shader-ink-shadow)" d="M 22,43 L 23,43 L 23,44 L 22,44 Z"/><path class="pb-outline" fill="none" stroke="#1A1030" stroke-width="1.5" stroke-linejoin="round" stroke-linecap="round" filter="url(#pb-shader-ink-shadow)" d="M 11,44 L 12,44 L 12,45 L 11,45 Z"/><path class="pb-outline" fill="none" stroke="#1A1030" stroke-width="1.5" stroke-linejoin="round" stroke-linecap="round" filter="url(#pb-shader-ink-shadow)" d="M 21,44 L 22,44 L 22,45 L 21,45 Z"/><path class="pb-outline" fill="none" stroke="#1A1030" stroke-width="1.5" stroke-linejoin="round" stroke-linecap="round" filter="url(#pb-shader-ink-shadow)" d="M 12,45 L 21,45 L 21,46 L 12,46 Z"/></g></svg>